<svg xmlns="http://www.w3.org/2000/svg" viewBox="0 0 724.11 158.74"><defs><style>.cls-1{opacity:0.7;}.cls-2{opacity:0.9;}.cls-3{fill:#fff;}</style></defs><g id="レイヤー_2" data-name="レイヤー 2"><g id="レイヤー_1-2" data-name="レイヤー 1"><g class="cls-1"><g class="cls-2"><g class="cls-2"><path class="cls-3" d="M671.27,21.33c-.38-1.78-3-2.59-2.06-4.7h8.54C677.9,19.24,676.06,22.8,671.27,21.33Z" transform="translate(-0.18)"/><path class="cls-3" d="M630.15,70.23c-3.95.15-7.68.47-11.63.79-2.39-.33-5-.65-7.41-.82h-2c-3.49-.32-7-.49-10.48-.82h-7.44l-1.07-.81c-2.42.32-4.83.64-7.25.8a16.9,16.9,0,0,1-2.14-1.47c-1.34.65-2.89,1.46-4.22,2.27l-7.44,0c0,.17,0,.5,0,.82-5.92.15-11.84.47-17.75.78-9.84-.33-19.68-.67-29.53-.85,0-.81,0-1.62.07-2.43h-6.35l-.06,2.43c-5.47.16-11.18.48-16.66.79h-6.34c-5.83-2.93-4.39.16-6.35,0-2.38-.81-4.77-1.63-7.37-2.44h-3.07c-2.18-.49-4.13-1-6.3-1.47-13.15.3-21.21-.84-32.59-.86-7,.64-21.29,2.41-26-2.46-4.66,2.26-9.45,1.44-13.83,1.59.28-2.42-3.25-1.3-5.19-2.27H374.92l-21,0c-2.4-.33-4.8-.66-7.2-.82-2.42.15-5,.48-7.47.79s-4.82.49-7.23.64c-2.65.65-5.07,1.14-7.49,1.62h-1.1c-3.06.16-6.35.48-9.43.8-3.5.15-7,.48-10.52.8-2.18-.33-4.14-.66-6.33-.82-2.71,2.91-7.28,2.1-10.54,1.44-5.92.32-11.83.63-17.75.79-2.21,1-4.43,2.1-6.42,3.07a16.11,16.11,0,0,1-1-3.08c-5.7.31-11.17.47-16.88.78,0,1.62-.07,3.09-.12,4.71-4.19,1.28-5.35,3.88-6.46,4.69-2.42.15-4.84.48-7.25.64-7.84-1.15-12.19-2.46-14.66,0-5,.65-9.88,1.12-14.92,1.6-7.18-1.79-11.57-1.47-11.41.8H174.83c-6.29-1.8-7.46.8-8.35,1.45l-8.32,0c-3.5,0-7.22,0-10.5,0-5.89-.65-4.85,1.29-8.58,1.62-2-.49-4.13-1-6.3-1.63h-2c-2.06,3.08-6.18,2.1-8.58,1.61h-2c-1.39,2.92-4.65,2.1-6.39,1.61-.68,1-1.36,1.94-2.27,3.08-2.83-.66-5.44-1.15-8.27-1.64H97c-.68,1-1.37,2.11-2.06,3.08-2.17-.49-4.34-1-6.3-1.47C84.69,89.39,81,89.06,77,88.9c-.39-1.79-.55-3.73-1-5.52,1.77-.64,3.54-1.45,5.32-2.25H82.5a45.67,45.67,0,0,0,2.06,4.7h6.13c2.9-1.77,6.37-1,8.6-2.41a65,65,0,0,0,6.3,1.62c2.42-.31,4.83-.47,7.25-.79,1.33-.49,2.87-1,4.2-1.46,2.07-3.88,5.11-2.91,7.52-3.23,0-.64,0-1.45.06-2.27h2.19c3.06.16,6.12.49,9.39.82,4.36.66,6-2.26,7.32-3.88,2.2-.32,4.4-.64,6.37-.8a37.81,37.81,0,0,1,4.14.81l2.23-1.61c6.33.5,12.67,1,18.78,1.65,1.56-1.13,2.9-2.1,4.46-3.08,2.61.49,5.44,1,8.28,1.47,2.84-.16,5.48-.47,8.33-.8h3.29l0-1.46c3.06.17,6.34.5,9.39.82,0,.49,0,1,0,1.46,6.1,1,5.94-1.61,9.46-2.25,2.42-.33,5.06-.64,7.46-.8-1.85-4.06-7.08-4.87-9.34-2.29h-2.19c-2.16-1.14-4.1-2.11-6.26-3.25,7.59-5.66,13.82-1.28,20-3.86,6.77.33,7.84-6.8,15-3.06,5.87,1.63,9.6,1.14,10.54-1.44,6.14-.31,12.49-.64,18.85-.79,1.46,2.76,3.71.33,6.32.82,11.76-6,22.93,2,34.68-3.84,5.2,2.27,7.87.17,12.72-.8,3.49.17,7,.5,10.48.83,5.6-5,11.31,2.94,18.8.68,3.28.32,6.33.66,9.39.82,4.39-.48,10.82-3.71,11.62-.79,3.95-.32,4.93,3.89,10.44,2.44,6-2.1,14.23-.31,18-3.05,7.37,2.77,21.3-2.56,29.29,1.5,6.21-2.91,16.87-.95,25.2-1.43h5.25c-.26,1.78,2.6,1.46,4.13,1.47,1.53-.16,3.48.65,4.39-.8-.18-1.31,2.87-.49,6.06,2.43,0,.17,0,.49,0,.81-1.78,1-3.34,2-5.34,3.08,2.79,2.26,5,2.27,7.34,3.9.46-.81.7-1.62,1.15-2.43,1.78-.65,3.54-1.46,5.33-2.26l4.07,3.08c5.41,1.79,2.7-3.08,6.44-3.88,3,1.3,6.28,2.6,9.31,3.9,7-1.12,12.63,2.45,18.82,0a32.11,32.11,0,0,1,2.09,3.89c2.19-.16,4.17-.48,6.37-.8,3.49.33,7,.66,10.48.83,2-2.43,8.18-3.4,8.31,0l10.51,0c2.22-1.29,4.23-2.58,6.45-3.88-1.46-2.92,3.19-4.69,6.44-3.88.64,1,1.27,2.11,1.9,3.08,1.54-.48,2.86-1,4.41-1.45,1.29.81,2.81,1.46,4.1,2.27h10.5a27,27,0,0,0,8.38-2.26c0-1.13.05-2.11.08-3.08,1.57-1.13,2.9-2.1,4.25-3.23,5.71-.64,9.81,1.15,14.83,1.64,7,1.63,4.24,5.51,5.05,7.79h5.26a54.93,54.93,0,0,0,2.93,4.71C639.12,70.24,634.3,70.39,630.15,70.23Z" transform="translate(-0.18)"/><path class="cls-3" d="M601.1,10.22c-4.21,1.93-6.38,1.28-8.3-.67C596.35,7.61,601.22,5.84,601.1,10.22Z" transform="translate(-0.18)"/><path class="cls-3" d="M579.62,28.17a38.56,38.56,0,0,1-3.13,2.27c-8.29-1.15-15.39,2.41-24.07,0-3.43,5.51,2.68,6.33.62,9.41-1.16,2.43-4,.64-6.19,2.26,0,.32,0,.48,0,.81-2.3,4.37-2.33,5.67-2.37,7-2.42.49-4.84,1-7.48,1.61-1.93-1.62-4.08-3.08-6-4.71,1.2-3.72,6.17-1.44,6.25-4.68,1.55-.49,2.88-1,4.42-1.46-6.9-3.9-13.27-2.93-18.95-3.27l-4.08-3.08a26.68,26.68,0,0,1,2.27-3.08c1.32-.32,2.86-.48,4.18-.8,4.17-.16,8.33-.48,12.49-.8,2-.16,3.53-.47,5.28-.64.91-1.61,1.61-3.24,2.31-4.7,2.21-.8,4.2-1.61,6.41-2.42,2.39.65,4.78,1.14,7.18,1.63,3.49.66,5.72-1,8.58-1.6.66,0,1.31,0,2,0,3.48.65,7.19,1.15,10.46,1.64C579.7,25.1,579.66,26.56,579.62,28.17Z" transform="translate(-0.18)"/><path class="cls-3" d="M638.73,18.85c-4.83.81-9.67,1.62-14.72,2.42l-11.64,1.44h-2c-1-1.46-2.11-3.09-3.16-4.71-4.8-.66-2.5,3.56-5.38,4.7-3.73.31-7.67.47-11.62.79-1.74-.33-3.26-.49-5.23-.82-.83-1.46-1.88-3.08-2.94-4.7-5-.17-10.93-.34-12.79,3.87-.66,0-1.31,0-2,0-2.86.64-5.09,2.26-8.58,1.6-2.4-.49-4.79-1-7.18-1.63-2.21.81-4.2,1.62-6.41,2.42H537.7a3.68,3.68,0,0,0-.15,5.34c-4.16.32-8.32.64-12.49.8l.21-7.79c-8-5.36-17.75.79-28.39-2.3-11.31-2.61-20.84,1.91-30.38-1.66,16.49-2.89,33.07-.93,45.18-3.84,0,.33,0,.49,0,.82,7.47-1,15.49,1.64,24.27.84,4.84-1.12,9-2.9,10.48.83h5.25a11.47,11.47,0,0,1,2-.82c2.63.17,5,.5,7.42.83,0-1.46.07-2.59.11-3.9,5.94-1.44,7.72-2.58,9.51-3.87l22.1,0c1.92,1.95,4.09,2.6,8.3.67,14.85,1.31,29.48,2.63,44.11,3.95C643,15.78,641,17.4,638.73,18.85Z" transform="translate(-0.18)"/><path class="cls-3" d="M570.7,9.52c-1.79,1.29-3.57,2.43-9.51,3.87,0,1.31-.07,2.44-.11,3.9-2.4-.33-4.79-.66-7.42-.83a11.47,11.47,0,0,0-2,.82h-5.25c-1.43-3.73-5.64-1.95-10.48-.83-8.78.8-16.8-1.81-24.27-.84,0-.33,0-.49,0-.82-12.11,2.91-28.69,1-45.18,3.84,9.54,3.57,19.07-.95,30.38,1.66,10.64,3.09,20.43-3.06,28.39,2.3l-.21,7.79c-1.32.32-2.86.48-4.18.8-1.73-.81-3.46-1.63-5.2-2.28-3.27-.32-1.14,2.27-3.35,3.08L504,32l-17.95,0c-3.1,1.3-7.67.48-11.62.79-1.95-.64-4.13-1.14-6.08-1.62-5.42-2.28-7.81-2.61-9.58-1.64-2-.65-4.13-1.46-6.08-2.28-1.54.49-2.86,1-4.42,1.62-2.38-.65-4.78-1.14-7.18-1.63-2.86.81-5.73,1.61-8.59,2.26-2.62-.17-5.46-.5-8.3-.66H419c-2.94-4.71-4,2.26-10.5,0a6.81,6.81,0,0,1-1.14,1.45c-4,2.92-9.43,1-12.52,1.6-2.17-.81-4.11-1.63-6.28-2.44-2.18-.16-4.14-.49-6.33-.65-3.08.48-6.37,1-9.45,1.44h-1.09c-3.93-.16-7.64-.5-11.58-.83-7-.33-7.49,1.94-11.46,3.23-6.09-1.63-7.24.48-9.65.64-5.87-1.47-7.62-1.47-9.37-1.48l-14.66,0c-1.34.81-2.47,2.27-4.22,2.27h-2.19c-2-.16-4.15-.49-6.33-.82-2.6-.65-7.58-2.6-11.36-.66-4.37-.33-8.51-.66-12.67-.83-4.63,1.13-7.92,1.29-12.75,2.25-3.08.49-6.15,1-9.46,1.61-10-1.31-12.29,1.44-18.86,1.43l-10.57,2.42c-3.29.47-6.37,1-9.45,1.44-1.29-.81-3.94.48-6.34,0-12.64-2.12-19.23-.83-25.22,1.59-3.51.48-7.24,1-10.54,1.61h-6.34c-5.64-1.95-6.33-.66-8.54,0,0,.49,0,1,0,1.46h-9.41a5.41,5.41,0,0,1-1.11.81c-2-.33-4.15-.49-6.11-.82a20.78,20.78,0,0,0-2.21.81c-2.42.16-5.05.48-7.46.8a38.33,38.33,0,0,0-4.14-.82c-2,.16-4.17.48-6.37.8l-12.47,0c5.52-1.94,8.9-5.49,12.54-2.41,2.19-.16,4.39-.48,6.36-.64a22.81,22.81,0,0,1,12.72-.79c.68-1.3,1.38-2.59,2.07-3.89h4.37c.76-3.73,3.8-2.91,6.22-3.07a23.73,23.73,0,0,0,2.25-2.43c2.42-.49,4.84-1,7.48-1.45,1.94,1,3.18,3.73,6,3.09.76-3.57-1.68-10.86,6.62-10.2,8.29.82,17.11-1.43,26.26,0,2.67-1.78,4.48-3.88,9.49-3.06-.26,1.94,2.59,1.62,4.34,1.62,5-.15,6-2.42,11.42-1.6a23.16,23.16,0,0,1,2.17.81c3.34-2.42,2.94-3.4,5.35-3.88-5-2.11-5.67-.66-7.42-.82h-2c-2.17-.49-4.13-1-6.3-1.47h6.34c.72-1.94,1.42-3.72,2.12-5.5h3.28A67.42,67.42,0,0,1,244.87,16h2.19c2.22-1.14,4.21-2.1,6.43-3.08.65.17,1.3.49,1.95.66l5.29-1.45h6.35a4.77,4.77,0,0,1,1.12-.82l6.34,0c1.74.48,3.48,1,5.21,1.62,0,1.46-.08,3.08-.12,4.54a16.2,16.2,0,0,0,1.92,1.62c.44,0,.88,0,1.1,0,3.54-1.61,7.09-3.06,10.63-4.68A6.31,6.31,0,0,0,292.22,13c4.38.17,8.53.5,12.68.67,2.21-.65,4.19-1.45,6.41-2.27,3.7.5,7.63,1,11.55,1.64,7.94-2.09,13.65-3.06,17.75-.78,3.94.17,7.64.49,11.58.82h3.06a40.32,40.32,0,0,1,4.4-.8c1.74.48,3.26,1,5.21,1.46,1.57-1.13,3.35-2.26,4.26-3.89,3.06.34,6.33.67,9.4.83L411.16,9.3c3.51-.32,5.77-2.91,9.5-3.23h2.19c1.94.82,4.11,1.63,6.06,2.44l14.66,0c3.29-.32,6.37-.64,9.65-.79h4.16c26.26.2,52.51.56,78.76.92,5.59,4.06,4.58.82,6.35,0,6.12.5,12.45,1,18.78,1.49C564.34,10,567.63,9.68,570.7,9.52Z" transform="translate(-0.18)"/><path class="cls-3" d="M542.83,28.93c-1.75.17-3.3.48-5.28.64a3.68,3.68,0,0,1,.15-5.34h7.44C544.44,25.69,543.74,27.32,542.83,28.93Z" transform="translate(-0.18)"/><path class="cls-3" d="M606.14,59.33a27,27,0,0,1-8.38,2.26h-10.5a16.71,16.71,0,0,0-1.14,1.62,46,46,0,0,1-3-3.89c-1.55.48-2.87,1-4.41,1.45-.63-1-1.26-2.11-1.9-3.08-3.25-.81-7.9,1-6.44,3.88-2.22,1.3-4.23,2.59-6.45,3.88l-10.51,0c-.13-3.4-6.27-2.43-8.31,0-3.5-.17-7-.5-10.48-.83-2.2.32-4.18.64-6.37.8a32.11,32.11,0,0,0-2.09-3.89c-6.19,2.42-11.79-1.15-18.82,0-3-1.3-6.28-2.6-9.31-3.9-3.74.8-1,5.67-6.44,3.88l-4.07-3.08c-1.79.8-3.55,1.61-5.33,2.26-.45.81-.69,1.62-1.15,2.43-.66.16-1.33.48-2.21.8a60.57,60.57,0,0,0-5.13-4.7c2-1.3,3.57-2.6,5.35-3.89-3.19-2.92-6.24-3.74-6.06-2.43-.91,1.45-2.86.64-4.39.8-1.53,0-4.39.31-4.13-1.47h-5.25c-8.33.48-19-1.48-25.2,1.43-8-4.06-21.92,1.27-29.29-1.5-3.8,2.74-12.06,1-18,3.05-5.51,1.45-6.49-2.76-10.44-2.44-.8-2.92-7.23.31-11.62.79-3.06-.16-6.11-.5-9.39-.82-7.49,2.26-13.2-5.7-18.8-.68-3.5-.33-7-.66-10.48-.83-4.85,1-7.52,3.07-12.72.8-11.75,5.82-22.92-2.14-34.68,3.84-2.61-.49-4.86,1.94-6.32-.82-6.36.15-12.71.48-18.85.79-.94,2.58-4.67,3.07-10.54,1.44-7.12-3.74-8.19,3.39-15,3.06-6.2,2.58-12.43-1.8-20,3.86,2.16,1.14,4.1,2.11,6.26,3.25h2.19c2.26-2.58,7.49-1.77,9.34,2.29-2.4.16-5,.47-7.46.8-3.08.8-6.38,1.44-9.46,2.25,0-.48,0-1,0-1.46-3-.32-6.33-.65-9.39-.82l0,1.46h-3.29c-2,.33-4.17.64-6.15.8h-2.18c-2.84-.49-5.67-1-8.28-1.47a19,19,0,0,0-2.27,3.08H175c-6.11-.67-12.45-1.15-18.78-1.65L154,74.25a37.81,37.81,0,0,0-4.14-.81c0-.81.05-1.62.07-2.27-1.29-1.13-2.79-2.11-4.08-3.25A42,42,0,0,0,149,64.85c6.39-1.61,12.85-6,19.22-6.94,2.33,2.92,5.66,1,11.56,1.64,0-.65,0-1.14,0-1.63,5.49-.48,11.19-1,16.68-1.6,3.69,1.15,2.68-2.1,4.46-3.07h5.25c4.41-1.45,9.93-3.07,13.69-4.69,24.49.85,44.24-1.23,67.29-3.79,5.92-.32,6,3.9,14.67,0,2.4-.16,5-.47,7.45-.64,8.7,1.8,14,.84,17.87,3.11,5.93-1.13,4.26-4.05,6.23-3.88h4.37c5.87,1.46,7.24-.48,9.43-.8,5.86,1.79,6.58-.32,8.33,0h1.09l12.69,0c.87,0,2,0,3.06,0,3,.82,6.3,1.63,9.36,2.29,4.16-.16,8.54-.48,12.7-.63h5.26c0,.16,0,.49,0,.65,10.89,1.8,25.82-.13,34.53,1.67,5.53-2.1,12.27-.31,16.88-.78,1.45,2.91,5.44,1,8.25,2.43,2.18.18,4.14.5,6.33.66,7,.66,16.22-1.27,20.94,2.46,3.53-1.12,7.06-2.09,10.59-3.06.64.65,1.27,1.46,2.12,2.27h5.26c.19,1-.95,2.59.79,3.08,5.27-.32,7.05-1.78,10.63-4.69,2.17.66,4.35,1.14,6.3,1.63,1.77-.32,3.52-.48,5.27-.8,1.12-1,2.25-2.1,3.37-3.08,1.93,1.63,4.08,3.09,6,4.71,2.64-.64,5.06-1.12,7.48-1.61,2.41-.16,5-.47,7.46-.8h10.51c1.29.81,2.8,1.62,4.09,2.43,5.26-.31,10.58-2.89,15.75,0,4.81.16,9.84.5,14.65.83,3.71.17,5.83,2.92,9.3,3.9C606.19,57.22,606.17,58.2,606.14,59.33Z" transform="translate(-0.18)"/><path class="cls-3" d="M537.22,42.06c-1.74-.17-3.27-.5-5.22-.83-3.48-1-4,1.62-5.35,3.24-2-.33-4.14-.66-6.1-.82-1.56,1-2.9,2.1-4.46,3.08,0,.81-.05,1.62-.06,2.26-3.58,2.91-5.36,4.37-10.63,4.69-1.74-.49-.6-2.11-.79-3.08h-5.26c-.85-.81-1.48-1.62-2.12-2.27-3.53,1-7.06,1.94-10.59,3.06-4.72-3.73-14-1.8-20.94-2.46-2.19-.16-4.15-.48-6.33-.66-2.81-1.46-6.8.48-8.25-2.43-4.61.47-11.35-1.32-16.88.78-8.71-1.8-23.64.13-34.53-1.67,0-.16,0-.49,0-.65h-5.26c-4.16.15-8.54.47-12.7.63-3.06-.66-6.32-1.47-9.36-2.29-1.09,0-2.19,0-3.06,0l-12.69,0h-1.09c-1.75-.33-2.47,1.78-8.33,0-2.19.32-3.56,2.26-9.43.8h-4.37c-2-.17-.3,2.75-6.23,3.88C323.32,45,318,46,309.34,44.16c-2.41.17-5,.48-7.45.64-8.65,3.88-8.75-.34-14.67,0-23.05,2.56-42.8,4.64-67.29,3.79-3.76,1.62-9.28,3.24-13.69,4.69H201c-1.78,1-.77,4.22-4.46,3.07-5.49.65-11.19,1.12-16.68,1.6,0,.49,0,1,0,1.63-5.9-.67-9.23,1.28-11.56-1.64-6.37,1-12.83,5.33-19.22,6.94a42,42,0,0,1-3.15,3.07c1.29,1.14,2.79,2.12,4.08,3.25,0,.65-.05,1.46-.07,2.27-2,.16-4.17.48-6.37.8-1.35,1.62-3,4.54-7.32,3.88-3.27-.33-6.33-.66-9.39-.82h-2.19c-1.74-.32-3.49-.49-5.23-.81-6.6,1.29-11.91,3.71-20,3.86-5.69.32-11.39.47-16.87.79H81.41c0-.81,0-1.63.06-2.28,2.2-.64,4.19-1.13,6.39-1.61,0-.81,3.31-1.29,2.27-3.07-7.9.79-9.29-4.72-15.68-3.11-1.53.17-2.85.49-4.39.65L59.66,67.8l13.82-1.44c9.44-1,20.62-1.75,29.31.85,5.45.66,6.24-4.37,10.61-3.87,6.19-2.42,12.38-4.85,19.21-6.29a48.72,48.72,0,0,1,3.16-3.9c2.41-.15,4.83-.47,7.46-.79h.88c2.81,1.3,5.62,2.61,8.43,3.9,1.14-1.78,2.07-3.56,3.21-5.35-2-.81-4.12-1.62-6.28-2.43,0-.65,0-1.46.06-2.27a5.41,5.41,0,0,0,1.11-.81h9.41c2.4.33,5,.5,7.42.83A7.85,7.85,0,0,1,168.63,44H175c3.3-.65,7-1.13,10.54-1.61,6-2.42,12.58-3.71,25.22-1.59,2.4.49,5.05-.8,6.34,0,3.08-.48,6.16-1,9.45-1.44,3.5.17,7,.49,10.49.82l18.88-2.4c1.75.33,3.49.49,5.23.82,2.83.81,4.2-1.29,6.39-1.61,7.66-.16,15.34-.47,23.22-.62,5.92-.64,11.85-1.11,17.77-1.6,0-.32,0-.48,0-.81h2.19c2,.49,4.13,1,6.31,1.63,4.16-.32,9,.66,12.49-.8l2.14,1.63L338.94,34c1.74.32,3.49.49,5.23.81,1.55-.81,2.47-2.43,4.44-2.26,1.73.49,3.25,1,5.21,1.46,2,.33,3.51-.32,5.27-.8,3.28.33,7,.66,10.49.83h6.13c0-.49,0-1,0-1.46,2.19-.32,4.39-.65,6.36-.8,0,.16,0,.49,0,.81,2.2-.33,4.17-.65,6.37-.8h6.34c3.09-.64,8.5,1.32,12.52-1.6,2.39.82,5,1.63,7.37,2.44,2.67-1.45,6.79,0,9.46-1.61l4.08,3.09c1.55-.81,2.88-1.45,4.22-2.26,3.28.16,6.33.49,9.6.82,0-.32,0-.65,0-.81h16.63c0,.49,0,1,0,1.46-6,3.23-10.81,3.23-16.72,3.22,0,.48,0,1,0,1.46,9.35,2.28,17.29,0,20.95,2.46,8.51.82,22.27,1.82,31.53-.77l4.08,3.09c1.1-.32,2-.49,3.09-.81,2.17.33,4.14.49,6.32.82,0-1,.05-2.1.08-3.08l7.59-5.49c-1.08-.82-2.15-1.47-3.22-2.28,2.21-.81.08-3.4,3.35-3.08,1.74.65,3.47,1.47,5.2,2.28a26.68,26.68,0,0,0-2.27,3.08l4.08,3.08c5.68.34,12-.63,18.95,3.27C540.1,41.09,538.77,41.57,537.22,42.06Z" transform="translate(-0.18)"/><path class="cls-3" d="M527.6,49.82c-1.75.32-3.5.48-5.27.8-2-.49-4.13-1-6.3-1.63,0-.64,0-1.45.06-2.26,1.56-1,2.9-2.11,4.46-3.08,2,.16,4.14.49,6.1.82,1.52.65,2.81,1.46,4.32,2.27C529.85,47.72,528.72,48.85,527.6,49.82Z" transform="translate(-0.18)"/><path class="cls-3" d="M194.66,11.26a36.49,36.49,0,0,0-4.17.81c-4.16-.33-8.53-.66-12.68-.83,0-.81,0-1.62.06-2.27l-9.41,0a9.27,9.27,0,0,0-2.14-1.62c2.27-3.07,8.4-3.06,11.61-.79.46-.81.7-1.46,1.16-2.27,5.25.17,10.49.5,15.74.83,3.93.17,7.64.5,11.57.67a32.29,32.29,0,0,0,1,4.7C203,10.79,198.83,11,194.66,11.26Z" transform="translate(-0.18)"/><path class="cls-3" d="M55.2,78.82c1.57,7-14.87-.19-10.75,9.22.41,1.3.59,2.6,1,3.89,0,1-.06,2.11-.09,3.09H39c-.69,1.13-1.37,2.1-2.06,3.23-2.87,1-5.74,1.94-8.62,3.07-3-3.89-2.91-5.52-2.88-7,1.77-.65,3.54-1.14,5.3-1.62a47.73,47.73,0,0,1-1-5.51c0-.16,0-.48,0-.65,0-1.46.07-2.59.11-3.89H22.49c-.19-.81-.61-1.62-.81-2.43-.82-2.11-1.42-4-2-6.16,3.51-.32,7-.64,10.53-.8h1.09c0,1.3-.07,2.6-.1,3.89a27.9,27.9,0,0,1,3,1.63c2.87-1.13,5.74-2.1,8.62-3.23a66.13,66.13,0,0,1-2-7c0-.17,0-.49,0-.81A24.84,24.84,0,0,1,42,63.89a38.19,38.19,0,0,1-3.23-2.28c-.17-1.62-.57-3.08-.75-4.7,0-.16,0-.48,0-.81,2-.48,4.18-1,6.17-1.45,4-.15,5.38,3.25,6.21,5.36,0,1.3-.08,2.59-.11,3.89.42.81.62,1.62,1,2.43a49.23,49.23,0,0,0-3.17,3.89c.19,1,.6,2.11.8,3.08a14.41,14.41,0,0,0-.92,1.61C50.46,76.22,52.84,77.36,55.2,78.82Z" transform="translate(-0.18)"/><path class="cls-3" d="M42.11,102.14,37,98.24c.69-1.13,1.37-2.1,2.06-3.23h6.34a27.87,27.87,0,0,0,2.11,3.24A54.77,54.77,0,0,0,42.11,102.14Z" transform="translate(-0.18)"/><path class="cls-3" d="M6.4,62.38c1.24,2.6,2.49,5.19,3.95,7.78,0,.49,0,1,0,1.46a12.57,12.57,0,0,0-1.16,2.44c.14,3.23.48,6.64.83,10,1.25,2.43,3.58,5.51-.14,5.51-1.1,0-2.19,0-3.29,0,0-1.62.08-3.08.13-4.7C4.37,81.34-1.26,78.74,5,74.85c-4.93-4-7.39-10.38-.77-12.48,1.17-2.91,2.34-5.66,3.3-8.58h3.28a18.37,18.37,0,0,1,1.93,1.63C10.69,57.68,8.44,60,6.4,62.38Z" transform="translate(-0.18)"/><path class="cls-3" d="M630.35,62.45c-.81-2.28,1.92-6.16-5.05-7.79,3.51-.32,7-.48,10.53-.8,3.45,2,4.83,7.62-.22,8.59Z" transform="translate(-0.18)"/><path class="cls-3" d="M638.65,21.93c-.7,1.63-1.4,3.25-2.09,4.7-11.09,5.17-4.95-3.57-12.66-1.48h-5.25c-2.17-.82-4.11-1.63-6.28-2.44L624,21.27c5-.8,9.89-1.61,14.72-2.42C638.69,20.48,638.67,21.29,638.65,21.93Z" transform="translate(-0.18)"/><path class="cls-3" d="M601.86,22.7c-3.14,2.91,0,8.43-7.38,6.31-3-1.47-2.75-3.74-4.24-5.52C594.19,23.17,598.13,23,601.86,22.7Z" transform="translate(-0.18)"/><path class="cls-3" d="M588,74.06c-1.74,0-3.5,0-5.21-1.63h-6.34c-2.2.32-4.18.64-6.37.8a10.86,10.86,0,0,0-1-2.27c0-.32,0-.65,0-.82l7.44,0c1.33-.81,2.88-1.62,4.22-2.27a16.9,16.9,0,0,0,2.14,1.47c2.42-.16,4.83-.48,7.25-.8l1.07.81C590.08,71,588.94,72.44,588,74.06Z" transform="translate(-0.18)"/><path class="cls-3" d="M584.56,39.85c-6.86,2.58-11.22,2.26-12.48,0C578.71,37.57,582.44,37.1,584.56,39.85Z" transform="translate(-0.18)"/><path class="cls-3" d="M561.27,10.16c-6.33-.5-12.66-1-18.78-1.49l-2.15-1.62a43.49,43.49,0,0,0-4.2,1.61c-26.25-.36-52.5-.72-78.76-.92.7-1.62,1.4-3.08,2.09-4.7,7.65.67,15.06,2,21-.77C487.68,3.9,493.92-.31,501.58,0c.4,1.3-.75,3.08,1,3.89,7.42.5,14.21-7.76,19.95-1.59,3.3-.64,6.39-1.45,9.69-2.25,2.4.49,4.8,1,7.18,1.63a19.06,19.06,0,0,1,2.15,1.46c2.4.33,4.8.49,7.2.82,3.94.17,10.18-4.2,11.58.83,2-.81,4-1.78,6.39-1.62-.93,2.28,2.76,3.09,4,6.33C567.63,9.68,564.34,10,561.27,10.16Z" transform="translate(-0.18)"/><path class="cls-3" d="M521.79,70.88h-6.34l.06-2.43h6.35C521.83,69.26,521.82,70.07,521.79,70.88Z" transform="translate(-0.18)"/><path class="cls-3" d="M498.79,71.66c-3.34,2.11-6,2.91-6.34,0Z" transform="translate(-0.18)"/><path class="cls-3" d="M475.66,69.2c-13.91,4.68-24.32,1.26-35.71,1.57-13.64,2.58-33.09,1.57-47.3.74-1-1.46-3.48-.65-5.23-.81a5.29,5.29,0,0,0-1.11.8c-22.16,2.08-42.2-1.52-63.11,3-1.71-1.45-4.8-.65-7.2-.81-7.74,2.9-19.72.94-29.59,1.57-3.15,3.08-11.17.31-15.82,2.25C259.23,76.84,249.46,82,238,79.08c1.11-.81,2.27-3.41,6.46-4.69.05-1.62.08-3.09.12-4.71,5.71-.31,11.18-.47,16.88-.78a16.11,16.11,0,0,0,1,3.08c2-1,4.21-2.11,6.42-3.07,5.92-.16,11.83-.47,17.75-.79,3.26.66,7.83,1.47,10.54-1.44,2.19.16,4.15.49,6.33.82,3.51-.32,7-.65,10.52-.8,3.08-.32,6.37-.64,9.43-.8h1.1c2.42-.48,4.84-1,7.49-1.62,2.41-.15,4.82-.47,7.23-.64s5.05-.64,7.47-.79c2.4.16,4.8.49,7.2.82l21,0h16.85c1.94,1,5.47-.15,5.19,2.27,4.38-.15,9.17.67,13.83-1.59,4.69,4.87,18.95,3.1,26,2.46,11.38,0,19.44,1.16,32.59.86C471.53,68.22,473.48,68.71,475.66,69.2Z" transform="translate(-0.18)"/><path class="cls-3" d="M443.57,8.53l-14.66,0c-2-.81-4.12-1.62-6.06-2.44,2.07-4.05,8.32-.47,10.39-3.87,2.68-2.1,7.2.65,10.46,1.63h7.44c-.47,1.14,1.26,1.62,2.08,3.9C449.94,7.89,446.86,8.21,443.57,8.53Z" transform="translate(-0.18)"/><path class="cls-3" d="M378.52,10.71c-3.07-.16-6.34-.49-9.4-.83l-3.24-1.46c-5.29,1.46-3.18,4.21-6.23,3.89a40.32,40.32,0,0,0-4.4.8h-3.06c-3.94-.33-7.64-.65-11.58-.82-4.1-2.28-9.81-1.31-17.75.78-3.92-.65-7.85-1.14-11.55-1.64-2.22.82-4.2,1.62-6.41,2.27-4.15-.17-8.3-.5-12.68-.67l-12.47,0c-1.73-.65-3.47-1.14-5.21-1.62l-6.34,0a4.77,4.77,0,0,0-1.12.82h-6.35c-1.93-1.63-4.08-3.09-6-4.71-2.61-.66-3.76,1.62-6.37.8H233.7a18.43,18.43,0,0,0-1.18,3.07h-3.28c-3.05-.49-6.1-1-9.37-1.63-3.94.32-7.68.63-11.62.79h-.87a32.29,32.29,0,0,1-1-4.7c2-.65,4.21-1.46,6.41-2.27a16.07,16.07,0,0,1,6.11.82c2.43-.64,5.06-1.12,7.48-1.6,2.23-1.46,5.49-.48,8.35-.8h6.34c8.74.67,17.47,1.16,26.22,1.67a20.78,20.78,0,0,1,2.21-.81c3.49.49,7,1,10.46,1.63h4.16c5.41,2.27,7.6,2.44,9.37,1.47,1.76-.16,3.51-.48,5.27-.64,4.56,1.14,1.41-3.57,5.34-3.23,1.28,1.13,2.79,2.11,4.07,3.24,3.28,0,9.09,3.58,9.65-.79,2.6,1.13,7.63,1.14,10.51,0,3.91,1,4.58.33,9.44-1.61.56,4.06,1.87,3.89,5.24.82,7.81,2.6,16.59,1.64,23,.84,3,.49,7.62,1.64,8.56-.79,8.55-.32,14,.66,22.13-.78-2.3-4.07,5.53-2.1,7.25-1.45,3.6,4.7,12.48.17,16.74,4.56-3.73.32-6,2.91-9.5,3.23Z" transform="translate(-0.18)"/><path class="cls-3" d="M230.7,79.72c-4.43,1.77-12.1,2.57-14.66,0C218.51,77.26,222.86,78.57,230.7,79.72Z" transform="translate(-0.18)"/><path class="cls-3" d="M201.12,81.29c-3.12,1.94-9.25,1.94-11.41.8C189.55,79.82,193.94,79.5,201.12,81.29Z" transform="translate(-0.18)"/><path class="cls-3" d="M185.34,82.08a13.42,13.42,0,0,1-10.55,1.45h-8.31c.89-.65,2.06-3.25,8.35-1.45Z" transform="translate(-0.18)"/><path class="cls-3" d="M158.16,83.5c-4.44,2.43-7.5,2.42-10.55,1.61-2.85.48-5.71,1-8.57,1.61-3.08.48-6.37,1-9.46,1.44-6.33-.17-9.71,3.23-18,3-3.08.65-6.16,1.13-9.45,1.61-2.63.16-4.35-1.3-7.19-1.63.69-1,1.38-2.1,2.06-3.08h6.35c2.83.49,5.44,1,8.27,1.64.91-1.14,1.59-2.11,2.27-3.08,1.74.49,5,1.31,6.39-1.61h2c2.4.49,6.52,1.47,8.58-1.61h2c2.17.65,4.34,1.14,6.3,1.63,3.73-.33,2.69-2.27,8.58-1.62C150.94,83.5,154.66,83.5,158.16,83.5Z" transform="translate(-0.18)"/><path class="cls-3" d="M76.94,92.79c-.16,6-7.52,3.07-11.68,3.06-3.59,3.08-11.42,1.44-11.74,5.5-3.74.48-3.71-.82-6.05-3.09A27.87,27.87,0,0,1,45.36,95C50,94.37,54.6,93.57,59,92.76h4.38c.88-.32,2-.48,3.09-.81C70,92.3,73.45,92.46,76.94,92.79Z" transform="translate(-0.18)"/><path class="cls-3" d="M42.11,102.14c.61,1.78,1.65,3.89-.1,3.89-.94,2.27-2.49,3.24-4.5,4.53-3.46-1.62-4.25-4.87-9.19-8.44-.69,1.46-1.39,3.08-2.09,4.53-.74-5.18-10-2.44-10.36-5.35,0-.66,0-1.14,0-1.63-1.91-2-4.7-4.06-6.2-5.36,0-1.62.09-3.24.13-4.7,3.72,0,1.39-3.08.14-5.51-.35-3.4-.69-6.81-.83-10a12.57,12.57,0,0,1,1.16-2.44c3,.82,6.31,1.63,9.35,2.45.6,2.11,1.2,4.05,2,6.16.2.81.62,1.62.81,2.43,1.06,1.47,2.11,3.09,3.17,4.54-.07,2.43-.13,4.71-.2,7.14,0,1.45-.08,3.08,2.88,7,2.88-1.13,5.75-2.1,8.62-3.07Z" transform="translate(-0.18)"/><path class="cls-3" d="M13.15,39c-1.15,2.27-2.28,3.57-4.24,3.08-4.12-1.47-4.28-3.73-4-6.16,2.44-1.62,6.14-.64,8.29.66C13.18,37.91,13.17,38.4,13.15,39Z" transform="translate(-0.18)"/><path class="cls-3" d="M610.4,22.71c-2,1.78-8.39,2.58-8.54,0,2.88-1.14.58-5.36,5.38-4.7C608.29,19.62,609.35,21.25,610.4,22.71Z" transform="translate(-0.18)"/><path class="cls-3" d="M585,22.67c-.71,2.27-3.75,1.29-5.27.81-3.27-.49-7-1-10.46-1.64,1.86-4.21,7.77-4,12.79-3.87C583.13,19.59,584.18,21.21,585,22.67Z" transform="translate(-0.18)"/><path class="cls-3" d="M126.81,77.3c3.06.16,6.12.49,9.39.82,4.36.66,6-2.26,7.32-3.88-1.35,1.62-3,4.54-7.32,3.88C132.93,77.79,129.87,77.46,126.81,77.3Z" transform="translate(-0.18)"/><path class="cls-3" d="M124.56,79.56c-2.41.32-5.45-.65-7.52,3.23-1.33.49-2.87,1-4.2,1.46-2.42.32-4.83.48-7.25.79a65,65,0,0,1-6.3-1.62c-2.23,1.45-5.7.64-8.6,2.41H83.47c.26-1.61-.14-3.07-2.06-4.69H82.5c5.48-.32,11.18-.47,16.87-.79,8.11-.15,13.42-2.57,20-3.86,1.74.32,3.49.49,5.23.81C124.6,78.11,124.58,78.92,124.56,79.56Z" transform="translate(-0.18)"/><path class="cls-3" d="M45.36,95c0-1,.06-2.12.09-3.09,2.86-.8,5.51-1.45,8.37-2.26,2.88-1,3.47,1.47,5.17,3.09C54.6,93.57,50,94.37,45.36,95Z" transform="translate(-0.18)"/><path class="cls-3" d="M667.24,16.63c-3.85,5-11.22,2.25-16.93,3.05a46,46,0,0,0-.95-5.51C655.47,15,661.35,15.81,667.24,16.63Z" transform="translate(-0.18)"/><path class="cls-3" d="M542.49,8.67c-1.77.81-.76,4.05-6.35,0a43.49,43.49,0,0,1,4.2-1.61Z" transform="translate(-0.18)"/><path class="cls-3" d="M515.55,34.25,508,39.74c0,1-.06,2.11-.08,3.08-2.18-.33-4.15-.49-6.32-.82-1.11.32-2,.49-3.09.81l-4.08-3.09c-9.26,2.59-23,1.59-31.53.77-3.66-2.43-11.6-.18-20.95-2.46,0-.49,0-1,0-1.46,5.91,0,10.72,0,16.72-3.22,0-.48,0-1,0-1.46H442.08c0,.16,0,.49,0,.81-3.27-.33-6.32-.66-9.6-.82-1.34.81-2.67,1.45-4.22,2.26L424.15,31c-2.67,1.62-6.79.16-9.46,1.61-2.38-.81-5-1.62-7.37-2.44a6.81,6.81,0,0,0,1.14-1.45c6.49,2.27,7.56-4.7,10.5,0h5.25c2.84.16,5.68.49,8.3.66,2.86-.65,5.73-1.45,8.59-2.26,2.4.49,4.8,1,7.18,1.63,1.56-.65,2.88-1.13,4.42-1.62,1.95.82,4.12,1.63,6.08,2.28,1.77-1,4.16-.64,9.58,1.64-1.12.81-2.23,1.61-3.34,2.26,6.06,2.44,7-.8,9.42-.64,3.95-.31,8.52.51,11.62-.79L504,32l8.32,0C513.4,32.78,514.47,33.43,515.55,34.25Z" transform="translate(-0.18)"/><path class="cls-3" d="M388.46,31.8c-2.2.15-4.17.47-6.37.8,0-.32,0-.65,0-.81-2,.15-4.17.48-6.36.8,0,.49,0,1,0,1.46h-6.13c-3.5-.17-7.21-.5-10.49-.83-1.76.48-3.31,1.13-5.27.8-2-.49-3.48-1-5.21-1.46,4-1.29,4.47-3.56,11.46-3.23,3.94.33,7.65.67,11.58.83h1.09c3.08-.48,6.37-1,9.45-1.44,2.19.16,4.15.49,6.33.65,2.17.81,4.11,1.63,6.28,2.44Z" transform="translate(-0.18)"/><path class="cls-3" d="M369.12,9.88c-.91,1.63-2.69,2.76-4.26,3.89-1.95-.49-3.47-1-5.21-1.46,3.05.32.94-2.43,6.23-3.89Z" transform="translate(-0.18)"/><path class="cls-3" d="M308.5,34.76c-5.92.49-11.85,1-17.77,1.6-7.88.15-15.56.46-23.22.62-2.19.32-3.56,2.42-6.39,1.61-1.74-.33-3.48-.49-5.23-.82L237,40.17c-3.5-.33-7-.65-10.49-.82l10.57-2.42c6.57,0,8.83-2.74,18.86-1.43,3.31-.65,6.38-1.12,9.46-1.61,4.83-1,8.12-1.12,12.75-2.25,4.16.17,8.3.5,12.67.83,3.78-1.94,8.76,0,11.36.66,2.18.33,4.36.66,6.33.82C308.51,34.28,308.51,34.44,308.5,34.76Z" transform="translate(-0.18)"/><path class="cls-3" d="M255.44,13.62c-.65-.17-1.3-.49-1.95-.66-2.22,1-4.21,1.94-6.43,3.08h-2.19a67.42,67.42,0,0,0-12.35-4.72,18.43,18.43,0,0,1,1.18-3.07h14.66c2.61.82,3.76-1.46,6.37-.8,1.92,1.62,4.07,3.08,6,4.71Z" transform="translate(-0.18)"/><path class="cls-3" d="M231.12,23h-2.19c0-.33,0-.48,0-.81-5.45-.82-6.38,1.45-11.42,1.6-1.75,0-4.6.32-4.34-1.62-5-.82-6.82,1.28-9.49,3.06-9.15-1.46-18,.79-26.26,0-8.3-.66-5.86,6.63-6.62,10.2-2.86.64-4.1-2.11-6-3.09-2.64.49-5.06,1-7.48,1.45a23.73,23.73,0,0,1-2.25,2.43c-2.42.16-5.46-.66-6.22,3.07h-4.37c-.69,1.3-1.39,2.59-2.07,3.89a22.81,22.81,0,0,0-12.72.79c-2,.16-4.17.48-6.36.64-3.64-3.08-7,.47-12.54,2.41h-2.19c-1-1.62-1.89-3.08-2.94-4.7-4,.48-7.68,1-11.64,1.6-2.21,1-4.21,1.94-6.43,3.08-2,.15-4.17.47-6.37.79,0,.65,0,1.46-.06,2.27-1.33.49-2.87,1-4.2,1.62l-9.41,0c-2.47,2.27-5.16,4.53-7.62,7H56.84c-.55-4.06-1.87-3.89-3-3.9-2,1-1,3.09-1.22,4.7-.91,1.3-3.12,2.11-2.2.65-.83-2.11-2.26-5.51-6.21-5.36-2,.49-4.19,1-6.17,1.45a17.86,17.86,0,0,0-7.4-1.47H23.24c0-1.62.08-3.08.13-4.7,1.54-.48,2.86-1,4.42-1.61-.34-3.57-.69-7.14-.81-10.86,0-.17,0-.49,0-.81h4.16c3.49.33,7,.66,10.48.82H50c1.55-.81,2.47-2.43,4.44-2.26h4.16c1.94.82,4.11,1.47,6.28,2.28,3.72-.16,8.3.66,12.5-.8-.62-1.45-1.23-3.08-1.85-4.53-3.28-.33-6.33-.66-9.61-.83,2.47-2.1,7.7-1.28,7.55-3.88,3.94-.32,7.67-.64,11.62-.79,7-1.29,12.35-3.71,22.24-5.48-8.1.31-7.81-2.45-9.52-3.9A13.06,13.06,0,0,0,100,15c2.17.49,4.13,1,6.3,1.63.05-1.95.1-3.73.15-5.51,1.76-.33,3.51-.49,5.27-.8a11.21,11.21,0,0,0,1,2.42c8.36-1.44,9.94,4.72,15.72,1.49,0-.16,0-.48,0-.82l8.32,0c2.85-.48,5.49-1,8.35-1.44a26.43,26.43,0,0,0,1.2-3.9l14.66,0c1.48,2.12,2.74,4.06,4.22,6.17-2.27,2.91-9.4-.66-9.74,3.88,1.51.81,2.8,1.62,4.32,2.43,2.19-.16,4.8.33,6.16-1.61,10.53-.79,18.22-1.6,27.42-2.23l12.7,0c1.74.17,3.48.49,5.23.65,3.07-.15,6.36-.47,9.43-.63,2.17.49,4.13,1,6.3,1.47h2c1.75.16,2.45-1.29,7.42.82C234.06,19.58,234.46,20.56,231.12,23Z" transform="translate(-0.18)"/><path class="cls-3" d="M227.12,16.81h-6.34c-3.07.16-6.36.48-9.43.63l-3.18-3.89c-.69,1.13-1.37,2.1-2,3.24l-12.7,0c-1-1.62-1.88-3.24-2.93-4.7a36.49,36.49,0,0,1,4.17-.81c4.17-.31,8.33-.47,12.72-.79h.87c3.94-.16,7.68-.47,11.62-.79,3.27.65,6.32,1.14,9.37,1.63C228.54,13.09,227.84,14.87,227.12,16.81Z" transform="translate(-0.18)"/><path class="cls-3" d="M210.73,40.78c-12.64-2.12-19.23-.83-25.22,1.59C191.5,40,198.09,38.66,210.73,40.78Z" transform="translate(-0.18)"/><path class="cls-3" d="M155.52,18.18c.34-4.54,7.47-1,9.74-3.88-1.48-2.11-2.74-4.05-4.22-6.17,1.77-.32,3.52-.64,5.28-.8A9.27,9.27,0,0,1,168.46,9c0,1.3-.07,2.44-.1,3.89,5.23.82,6-2.9,9.45-1.6,4.15.17,8.52.5,12.68.83,1,1.46,1.88,3.08,2.93,4.7-9.2.63-16.89,1.44-27.42,2.23-1.36,1.94-4,1.45-6.16,1.61C158.32,19.8,157,19,155.52,18.18Z" transform="translate(-0.18)"/><path class="cls-3" d="M177.81,11.24c-3.47-1.3-4.22,2.42-9.45,1.6,0-1.45.07-2.59.1-3.89l9.41,0C177.85,9.62,177.83,10.43,177.81,11.24Z" transform="translate(-0.18)"/><path class="cls-3" d="M167.47,46.24c-2.4-.33-5-.5-7.42-.83,0-.48,0-1,0-1.46,2.21-.64,2.9-1.93,8.54,0A7.85,7.85,0,0,0,167.47,46.24Z" transform="translate(-0.18)"/><path class="cls-3" d="M152.54,56.26c-2.81-1.29-5.62-2.6-8.43-3.9h-.88c-2.63.32-5,.64-7.46.79a36,36,0,0,1-2.29,3.9c-6.16,1.12-10,5-17.85,4.67,1,3.41-7-.49-5.36,3.89-12.83,5.16-25.07-3.77-37.9,1.56-2.41.16-5.68-.65-7.46.64,1.47,2.11,5,1.79,5.15,3.9L70,74.14c-2.86.48-5.5,1-8.36,1.45a17.8,17.8,0,0,1-3-2.28c.26-1.78.75-3.72,1-5.51,7.14-5.33,11.14-7.6,17.06-7.75,2.42-.65,5.07-1.46,7.5-2.26-2.4-.49-5-1-7.4-1.63,0-1.46.08-3.08.12-4.54,1.33-.65,2.87-1.13,4.2-1.62h6.35c2.18.16,4.14.49,6.32.82,5.28-1,9.26-2.58,14.75-3.06,0-.32,0-.65,0-.81h2.19l12.47,0c2.2-.32,4.39-.64,6.37-.8a38.33,38.33,0,0,1,4.14.82c2.41-.32,5-.64,7.46-.8a20.78,20.78,0,0,1,2.21-.81c2,.33,4.14.49,6.11.82,0,.81-.05,1.62-.06,2.27,2.16.81,4.32,1.62,6.28,2.43C154.61,52.7,153.68,54.48,152.54,56.26Z" transform="translate(-0.18)"/><path class="cls-3" d="M107.29,21.19C97.4,23,92.08,25.38,85.05,26.67c-4,.15-7.68.47-11.62.79.15,2.6-5.08,1.78-7.55,3.88,3.28.17,6.33.5,9.61.83.62,1.45,1.23,3.08,1.85,4.53-4.2,1.46-8.78.64-12.5.8-2.17-.81-4.34-1.46-6.28-2.28H54.4c-2-.17-2.89,1.45-4.44,2.26H43.83c.7-1.46,1.4-3.08,2.1-4.7-2,0-4.16,0-6.35,0H38.7c0-.65,0-1.46.06-2.27.05-1.62.08-3.08.13-4.7-1.21-4.05-2.72-4.7-2-6.16C38.2,19,39.74,18.5,41.07,18l3.18,3.9c4.59,0,9.39.66,12.53-2.25,0-1.3.07-2.59.1-3.89h11.6c4-.64,7.69-1.12,11.64-1.6,3.11-1.45,6.39-1.45,9.45-1.44,3.52-.65,7-1.13,10.55-1.61h6.35c0,1.78-.1,3.56-.15,5.51-2.17-.65-4.13-1.14-6.3-1.63a13.06,13.06,0,0,1-2.25,2.27C99.48,18.74,99.19,21.5,107.29,21.19Z" transform="translate(-0.18)"/><path class="cls-3" d="M56.88,15.77c0,1.3-.06,2.59-.1,3.89-3.14,2.91-7.94,2.25-12.53,2.25L41.07,18c2.42-.48,5.06-1,7.47-1.45C49.68,15.11,54,15.93,56.88,15.77Z" transform="translate(-0.18)"/><path class="cls-3" d="M43.83,37.47H41.64c-3.49-.16-7-.49-10.48-.82,2.44-1.29,4.88-2.59,7.54-3.88h.88c2.19,0,4.38,0,6.35,0C45.23,34.39,44.53,36,43.83,37.47Z" transform="translate(-0.18)"/><path class="cls-3" d="M38.89,25.79c0,1.62-.08,3.08-.13,4.7-2.6-.82-5-1.62-7.37-2.27a11.46,11.46,0,0,1,1.15-2.44c1.37-2.1,3-4,4.32-6.15C36.17,21.09,37.68,21.74,38.89,25.79Z" transform="translate(-0.18)"/><path class="cls-3" d="M27,37.45c-6.37.8-10.37,3.06-13.83,1.59,0-.64,0-1.13.06-2.42a25.27,25.27,0,0,0,2.27-3.08c3.92,1,7.61,2.12,11.52,3.1C27,37,27,37.28,27,37.45Z" transform="translate(-0.18)"/><path class="cls-3" d="M650.31,19.68c-2.86.82-5.52,1.62-8.37,2.26h-3.29c0-.64,0-1.45.08-3.08,2.23-1.45,4.24-3.07,6.48-4.68h4.15A46,46,0,0,1,650.31,19.68Z" transform="translate(-0.18)"/><path class="cls-3" d="M474.44,32.72c-2.4-.16-3.36,3.08-9.42.64,1.11-.65,2.22-1.45,3.34-2.26C470.31,31.58,472.49,32.08,474.44,32.72Z" transform="translate(-0.18)"/><path class="cls-3" d="M73.09,81.11c-4.62.8-8.62,3.23-10.67,6.14-.05,1.79-.1,3.73-.14,5.52H59c-1.7-1.62-2.29-4.05-5.17-3.09-2.86.81-5.51,1.46-8.37,2.26-.41-1.29-.59-2.59-1-3.89-4.12-9.41,12.32-2.25,10.75-9.22-1.75.16-3.51.48-5.26.64,1.15-2.1-1.68-2.92-1.85-4.55A14.41,14.41,0,0,1,49,73.3h9.63a17.8,17.8,0,0,0,3,2.28C63,80.77,68.12,79,71,79.49A9.27,9.27,0,0,0,73.09,81.11Z" transform="translate(-0.18)"/><path class="cls-3" d="M38.7,32.76c-2.66,1.29-5.1,2.59-7.54,3.88h-1.1c.52-2.76.82-5.67,1.33-8.42,2.38.65,4.77,1.45,7.37,2.27C38.74,31.3,38.72,32.11,38.7,32.76Z" transform="translate(-0.18)"/><path class="cls-3" d="M29.83,86.56c0,.17,0,.49,0,.65H25.66c-1.06-1.45-2.11-3.07-3.17-4.54h7.45C29.9,84,29.87,85.1,29.83,86.56Z" transform="translate(-0.18)"/><path class="cls-3" d="M211.35,17.44c-1.75-.16-3.49-.48-5.23-.65.68-1.14,1.36-2.11,2-3.24Z" transform="translate(-0.18)"/><path class="cls-3" d="M145.18,12c-2.86.47-5.5,1-8.35,1.44l-8.32,0c0,.34,0,.66,0,.82-5.78,3.23-7.36-2.93-15.72-1.49a11.21,11.21,0,0,1-1-2.42c6.82-1.45,10.8-2.91,15.82-2.25l18.82,0A26.43,26.43,0,0,1,145.18,12Z" transform="translate(-0.18)"/><path class="cls-3" d="M128,34.51h-6.34c-1.51-1-2.79-2.11-4.08-3.09-10.67-2.12-16.3,4-25.41.78,0-.65,0-1.13,0-1.62,4-.48,7.69-1,11.64-1.6,6.6-1.29,16.21-.47,24.29,0C128.05,30.78,128,32.73,128,34.51Z" transform="translate(-0.18)"/><path class="cls-3" d="M108.56,47.77c-5.49.48-9.47,2.09-14.75,3.06-2.18-.33-4.14-.66-6.32-.82H81.14c0-.81,0-1.62.06-2.27,2.2-.32,4.4-.64,6.37-.79,2.22-1.14,4.22-2.11,6.43-3.08,4-.64,7.69-1.12,11.64-1.6,1,1.62,1.89,3.08,2.94,4.7C108.57,47.12,108.57,47.45,108.56,47.77Z" transform="translate(-0.18)"/><path class="cls-3" d="M84.22,57.79c-4,3.07-5.77,3.07-7.5,2.26-5.92.15-9.92,2.42-17.06,7.75-2.84-.49-5.45-1-8.28-1.47-.41-.81-.61-1.62-1-2.43,0-1.3.07-2.59.11-3.89-.92,1.46,1.29.65,2.2-.65.26-1.61-.78-3.72,1.22-4.7,1.09,0,2.41-.16,3,3.9h3.07c2.46-2.43,5.15-4.69,7.62-7l9.41,0c0,1.46-.08,3.08-.12,4.54C79.21,56.81,81.82,57.3,84.22,57.79Z" transform="translate(-0.18)"/><path class="cls-3" d="M40.84,67.78H38.65c-2.46,1.78-4.92,3.72-7.37,5.5H30.19c-3.51.16-7,.48-10.53.8-3-.82-6.3-1.63-9.35-2.45,0-.48,0-1,0-1.46C8.89,67.57,7.64,65,6.4,62.38c2-2.43,4.29-4.7,6.32-7a18.37,18.37,0,0,0-1.93-1.63H7.51c-4.76-1.95-2.26-5.68-2.84-8.59l4.24-3.08c2,.49,3.09-.81,4.24-3.08,3.46,1.47,7.46-.79,13.83-1.59.12,3.72.47,7.29.81,10.86-1.56.64-2.88,1.13-4.42,1.61-.05,1.62-.09,3.08-.13,4.7h7.44a17.86,17.86,0,0,1,7.4,1.47c0,.33,0,.65,0,.81.18,1.62.58,3.08.75,4.7A38.19,38.19,0,0,0,42,63.89,24.84,24.84,0,0,0,40.84,67.78Z" transform="translate(-0.18)"/><path class="cls-3" d="M30.76,92.72c-1.76.48-3.53,1-5.3,1.62.07-2.43.13-4.71.2-7.14h4.15A47.73,47.73,0,0,0,30.76,92.72Z" transform="translate(-0.18)"/><path class="cls-3" d="M293.28,14.48c-3.54,1.62-7.09,3.07-10.63,4.68-.22,0-.66,0-1.1,0a16.2,16.2,0,0,1-1.92-1.62c0-1.46.08-3.08.12-4.54l12.47,0A6.31,6.31,0,0,1,293.28,14.48Z" transform="translate(-0.18)"/><path class="cls-3" d="M58.64,73.31H49c-.2-1-.61-2.11-.8-3.08a49.23,49.23,0,0,1,3.17-3.89c2.83.49,5.44,1,8.28,1.47C59.39,69.59,58.9,71.53,58.64,73.31Z" transform="translate(-0.18)"/><path class="cls-3" d="M36.39,78.79H34.2a27.9,27.9,0,0,0-3-1.63c0-1.29.07-2.59.1-3.89,2.45-1.78,4.91-3.72,7.37-5.5h2.19c0,.32,0,.64,0,.81a66.13,66.13,0,0,0,2,7C40.6,76.69,38.39,77.66,36.39,78.79Z" transform="translate(-0.18)"/><path class="cls-3" d="M81.41,81.13c-1.78.8-3.55,1.61-5.32,2.25.4,1.79.56,3.73,1,5.52l-7.44,0C67.83,89.69,68,91,66.46,92c-1.11.33-2.21.49-3.09.81H62.28c0-1.79.09-3.73.14-5.52,2-2.91,6-5.34,10.67-6.14A9.27,9.27,0,0,1,71,79.49H65.69c-4,1.29-4.54-1.79-4-3.89,2.86-.49,5.5-1,8.36-1.45l.06-2.43c1.54-.16,2.86-.48,4.39-.65,6.39-1.61,7.78,3.9,15.68,3.11,1,1.78-2.25,2.26-2.27,3.07-2.2.48-4.19,1-6.39,1.61C81.45,79.5,81.43,80.32,81.41,81.13Z" transform="translate(-0.18)"/><path class="cls-3" d="M77,88.9c0,1.29-.07,2.59-.1,3.89-3.49-.33-7-.49-10.48-.83,1.55-1,1.37-2.27,3.14-3.08Z" transform="translate(-0.18)"/><path class="cls-3" d="M492.45,71.65H486.1C488.06,71.81,486.62,68.72,492.45,71.65Z" transform="translate(-0.18)"/><path class="cls-3" d="M94.92,91.19c-4.22,2.59-11.68,3.39-18,1.6,0-1.3.07-2.6.1-3.89,3.94.16,7.65.49,11.58.82C90.58,90.21,92.75,90.7,94.92,91.19Z" transform="translate(-0.18)"/><path class="cls-3" d="M145.88,67.92c-4.66,2.43-7.07,2.43-9.48,2.43C133.08,63.7,141.8,65.16,145.88,67.92Z" transform="translate(-0.18)"/><path class="cls-3" d="M531,46.74c-1.51-.81-2.8-1.62-4.32-2.27,1.36-1.62,1.87-4.21,5.35-3.24,2,.33,3.48.66,5.22.83C537.14,45.3,532.17,43,531,46.74Z" transform="translate(-0.18)"/><path class="cls-3" d="M348.61,32.55c-2-.17-2.89,1.45-4.44,2.26-1.74-.32-3.49-.49-5.23-.81l-7.29,2.42-2.14-1.63c-3.54,1.46-8.33.48-12.49.8-2.18-.66-4.36-1.14-6.31-1.63,1.75,0,2.88-1.46,4.22-2.27l14.66,0c1.75,0,3.5,0,9.37,1.48C341.37,33,342.52,30.92,348.61,32.55Z" transform="translate(-0.18)"/></g></g><g class="cls-2"><g class="cls-2"><path class="cls-3" d="M719.11,72.8c-.32-1.78-2.41-2.61-1.68-4.71l6.86,0C724.42,70.74,723,74.29,719.11,72.8Z" transform="translate(-0.18)"/><path class="cls-3" d="M686.39,121.47c-3.17.14-6.17.44-9.34.73-1.93-.33-4-.67-6-.85l-1.59,0c-2.81-.35-5.62-.53-8.42-.88l-6,0-.86-.82c-1.94.31-3.88.61-5.82.76a15.76,15.76,0,0,1-1.73-1.47c-1.07.64-2.31,1.44-3.38,2.24-1.93,0-4,0-6-.06,0,.17,0,.5,0,.82-4.76.12-9.51.41-14.26.69-7.91-.38-15.82-.77-23.73-1,0-.81,0-1.62,0-2.43l-5.1,0c0,.81,0,1.62,0,2.43-4.39.12-9,.41-13.38.7l-5.09,0c-4.7-3-3.52.13-5.1,0-1.92-.82-3.85-1.65-5.94-2.47l-2.46,0c-1.76-.5-3.33-1-5.08-1.5-10.56.23-17-1-26.19-1-5.64.6-17.09,2.3-20.89-2.6-3.72,2.24-7.58,1.4-11.1,1.53.21-2.43-2.62-1.32-4.19-2.3l-3.34,0-5.09,0-5.11,0-16.87-.14c-1.94-.34-3.86-.68-5.79-.86-1.95.15-4.06.46-6,.76-1.94.15-3.87.46-5.81.6-2.12.64-4.06,1.11-6,1.58h-.89c-2.45.14-5.1.44-7.57.75-2.81.13-5.63.44-8.45.74-1.75-.34-3.33-.68-5.09-.85-2.15,2.89-5.83,2.06-8.46,1.38-4.75.29-9.5.58-14.25.7-1.77,1-3.55,2.08-5.14,3a19.42,19.42,0,0,1-.84-3.09c-4.58.29-9,.41-13.56.7,0,1.62,0,3.08-.06,4.7-3.36,1.27-4.28,3.86-5.17,4.66-1.94.14-3.88.45-5.81.6-6.31-1.19-9.81-2.52-11.78-.1-4.05.62-7.93,1.07-12,1.52-5.77-1.83-9.29-1.53-9.15.74l-3.52,0-8.44-.07c-5.07-1.82-6,.77-6.7,1.41l-6.69-.06-8.43-.07c-4.74-.68-3.89,1.27-6.89,1.57-1.57-.5-3.32-1-5.07-1.66l-1.58,0c-1.63,3.07-4.95,2.07-6.88,1.57l-1.59,0c-1.09,2.92-3.72,2.08-5.12,1.58-.54,1-1.08,1.94-1.81,3.07-2.27-.67-4.37-1.17-6.65-1.68l-5.1,0c-.54,1-1.09,2.1-1.63,3.07-1.75-.51-3.5-1-5.08-1.5-3.16-.35-6.14-.7-9.31-.89-.32-1.79-.46-3.73-.79-5.52,1.42-.63,2.83-1.43,4.25-2.23h.88c.51,1.62,1,3.08,1.69,4.71l4.93,0c2.31-1.76,5.11-.93,6.89-2.37a43.62,43.62,0,0,0,5.07,1.65c1.94-.3,3.88-.45,5.82-.76,1.06-.47,2.29-.95,3.36-1.43,1.64-3.87,4.09-2.88,6-3.19,0-.65,0-1.45,0-2.27l1.76,0c2.46.18,4.91.52,7.55.87,3.51.68,4.78-2.23,5.86-3.84,1.76-.31,3.53-.62,5.11-.77a23.88,23.88,0,0,1,3.33.84l1.78-1.61c5.09.53,10.19,1,15.1,1.75,1.25-1.13,2.31-2.09,3.56-3,2.11.5,4.38,1,6.66,1.51,2.29-.15,4.41-.45,6.7-.76l2.63,0c0-.48,0-1,0-1.46,2.46.19,5.1.53,7.55.88,0,.49,0,1,0,1.45,4.91,1,4.77-1.57,7.59-2.2,1.95-.31,4.06-.61,6-.76-1.51-4.07-5.72-4.91-7.52-2.33l-1.76,0c-1.74-1.15-3.31-2.13-5-3.27,6.07-5.63,11.1-1.22,16.06-3.77,5.44.37,6.26-6.75,12-3,4.73,1.66,7.72,1.2,8.46-1.39,4.93-.28,10-.56,15.14-.68,1.19,2.76,3,.35,5.09.85,9.4-5.92,18.43,2.09,27.84-3.67,4.18,2.31,6.32.22,10.21-.72,2.81.18,5.61.53,8.43.88,4.47-5,9.1,3,15.11.77,2.63.34,5.09.69,7.55.87,3.52-.46,8.66-3.65,9.33-.73,3.17-.3,4,3.92,8.4,2.49,4.78-2.06,11.43-.23,14.46-3,5.94,2.8,17.1-2.46,23.55,1.65,5-2.88,13.55-.86,20.24-1.3l4.22,0c-.2,1.78,2.09,1.47,3.32,1.49,1.23-.16,2.8.66,3.53-.79-.16-1.3,2.29-.46,4.88,2.47,0,.17,0,.49,0,.81-1.42,1-2.67,1.93-4.26,3,2.25,2.28,4,2.3,5.92,3.94.36-.81.55-1.62.91-2.43,1.42-.63,2.84-1.43,4.26-2.23,1,1,2.25,2.13,3.3,3.1,4.36,1.82,2.15-3.06,5.15-3.85,2.44,1.32,5.06,2.64,7.5,3.95,5.64-1.08,10.16,2.52,15.12.13a35.48,35.48,0,0,1,1.7,3.9,50.66,50.66,0,0,0,5.12-.77c2.81.35,5.61.7,8.42.88,1.62-2.41,6.56-3.34,6.68.06l8.45.07c1.77-1.28,3.38-2.57,5.15-3.85-1.19-2.92,2.54-4.68,5.16-3.85.51,1,1,2.12,1.54,3.09,1.23-.47,2.29-1,3.53-1.43,1.05.82,2.27,1.48,3.31,2.3l3.34,0,5.1,0a18.56,18.56,0,0,0,6.72-2.21c0-1.14,0-2.11,0-3.09,1.25-1.12,2.32-2.08,3.39-3.21,4.59-.6,7.9,1.2,11.93,1.72,5.61,1.67,3.44,5.54,4.11,7.82l4.22,0c.68,1.62,1.53,3.09,2.39,4.72C693.59,121.53,689.72,121.66,686.39,121.47Z" transform="translate(-0.18)"/><path class="cls-3" d="M662.66,61.32c-3.37,1.92-5.12,1.26-6.67-.7C658.83,58.7,662.73,57,662.66,61.32Z" transform="translate(-0.18)"/><path class="cls-3" d="M645.51,79.17A33.14,33.14,0,0,1,643,81.42c-6.67-1.19-12.35,2.32-19.34-.16-2.72,5.48,2.19,6.33.56,9.4-.92,2.42-3.18.62-5,2.23,0,.32,0,.48,0,.81-1.82,4.36-1.84,5.66-1.86,7-1.95.47-3.89.94-6,1.57-1.56-1.63-3.29-3.1-4.85-4.74.94-3.72,4.94-1.41,5-4.65,1.24-.48,2.3-1,3.54-1.43-5.57-3.94-10.68-3-15.25-3.37l-3.29-3.1a25.55,25.55,0,0,1,1.8-3.07c1.06-.31,2.3-.47,3.35-.78,3.35-.14,6.7-.43,10-.73,1.58-.15,2.83-.46,4.23-.62.72-1.61,1.28-3.23,1.83-4.68,1.77-.79,3.36-1.59,5.13-2.39,1.93.66,3.86,1.16,5.78,1.67,2.81.67,4.59-.94,6.88-1.56h1.59c2.8.67,5.78,1.18,8.42,1.69C645.56,76.09,645.54,77.55,645.51,79.17Z" transform="translate(-0.18)"/><path class="cls-3" d="M693,70.15c-3.88.78-7.76,1.57-11.81,2.34l-9.35,1.38h-1.57c-.86-1.47-1.72-3.09-2.58-4.72-3.85-.69-2,3.55-4.29,4.66-3,.3-6.15.44-9.33.73-1.4-.33-2.63-.5-4.21-.84-.67-1.46-1.53-3.09-2.39-4.72-4-.19-8.79-.39-10.25,3.81h-1.59c-2.29.62-4.07,2.23-6.88,1.56-1.92-.51-3.85-1-5.78-1.67-1.77.8-3.36,1.6-5.13,2.39l-6,0a4.34,4.34,0,0,0-.08,5.35c-3.34.3-6.69.59-10,.73l.12-7.78c-6.42-5.4-14.25.69-22.82-2.46-9.11-2.66-16.74,1.81-24.42-1.81,13.23-2.81,26.56-.76,36.28-3.6,0,.33,0,.49,0,.81,6-.92,12.46,1.73,19.51,1,3.88-1.1,7.25-2.86,8.42.88l4.22,0a8.31,8.31,0,0,1,1.6-.81c2.1.19,4,.53,6,.87,0-1.46,0-2.59.06-3.9,4.77-1.41,6.19-2.54,7.62-3.82l17.76.15c1.55,2,3.3,2.62,6.67.7,11.94,1.39,23.7,2.79,35.46,4.18C696.34,67.1,694.73,68.71,693,70.15Z" transform="translate(-0.18)"/><path class="cls-3" d="M638.23,60.47c-1.43,1.28-2.85,2.41-7.62,3.82,0,1.31,0,2.44-.06,3.9-1.93-.34-3.86-.68-6-.87a8.31,8.31,0,0,0-1.6.81l-4.22,0c-1.17-3.74-4.54-2-8.42-.88-7.05.76-13.52-1.89-19.51-1,0-.32,0-.48,0-.81-9.72,2.84-23.05.79-36.28,3.6,7.68,3.62,15.31-.85,24.42,1.81,8.57,3.15,16.4-2.94,22.82,2.46l-.12,7.78c-1.05.31-2.29.47-3.35.78-1.39-.82-2.79-1.64-4.19-2.3-2.63-.35-.91,2.26-2.68,3.06l-6.68-.06-14.42-.12c-2.48,1.28-6.16.44-9.33.73-1.57-.65-3.33-1.16-4.9-1.65-4.36-2.31-6.29-2.65-7.71-1.69-1.57-.66-3.32-1.48-4.89-2.31a34.52,34.52,0,0,0-3.54,1.6c-1.92-.67-3.86-1.17-5.78-1.68-2.3.8-4.6,1.59-6.89,2.22-2.11-.18-4.39-.53-6.67-.7l-4.22,0c-2.4-4.73-3.21,2.24-8.44-.07a6.65,6.65,0,0,1-.91,1.45c-3.21,2.89-7.57.9-10,1.53-1.75-.82-3.32-1.65-5.06-2.47-1.76-.17-3.34-.51-5.1-.69-2.46.47-5.11.94-7.58,1.4h-.87c-3.17-.18-6.15-.54-9.31-.89-5.63-.37-6,1.9-9.19,3.17-4.9-1.66-5.82.44-7.75.59-4.73-1.5-6.13-1.51-7.54-1.52l-11.78-.1c-1.07.8-2,2.25-3.38,2.24l-1.75,0c-1.58-.17-3.34-.51-5.1-.84-2.09-.67-6.11-2.65-9.12-.73-3.52-.35-6.85-.7-10.19-.89-3.71,1.1-6.36,1.24-10.23,2.18-2.48.47-4.94.93-7.59,1.56-8.07-1.36-9.87,1.38-15.14,1.34l-8.48,2.36c-2.65.46-5.11.93-7.58,1.39-1.05-.81-3.17.47-5.1,0C339,87.68,333.75,88.94,329,91.33c-2.82.46-5.82.92-8.46,1.55l-5.1,0c-4.54-2-5.09-.69-6.86-.06,0,.49,0,1,0,1.46L301,94.18c-.18.32-.54.48-.89.8-1.58-.34-3.34-.51-4.91-.85a16.07,16.07,0,0,0-1.78.8c-1.93.14-4.05.45-6,.76a25.91,25.91,0,0,0-3.34-.84c-1.58.15-3.34.46-5.11.76l-10-.07c4.43-1.91,7.12-5.45,10.06-2.35,1.76-.15,3.53-.46,5.11-.6a14.82,14.82,0,0,1,10.21-.73L296,88l3.51,0c.59-3.72,3-2.89,5-3a22.11,22.11,0,0,0,1.79-2.42c1.95-.47,3.88-.93,6-1.4,1.57,1,2.58,3.74,4.88,3.12.58-3.57-1.42-10.88,5.25-10.17,6.67.86,13.74-1.35,21.1.17,2.14-1.77,3.58-3.86,7.61-3-.2,2,2.08,1.64,3.49,1.65,4.05-.13,4.79-2.39,9.17-1.55a17.12,17.12,0,0,1,1.75.83c2.67-2.41,2.33-3.38,4.27-3.85-4-2.14-4.56-.69-6-.86l-1.59,0c-1.75-.49-3.32-1-5.07-1.5l5.09,0c.57-1.94,1.12-3.71,1.67-5.49l2.64,0a48.36,48.36,0,0,1,10,4.78l1.76,0c1.78-1.12,3.37-2.08,5.14-3,.53.16,1.05.5,1.58.66l4.24-1.42,5.1,0c.35-.32.53-.64.89-.81l5.1,0c1.4.5,2.8,1,4.2,1.65,0,1.46-.05,3.08-.07,4.54A15.29,15.29,0,0,0,406,68.62h.89c2.83-1.6,5.67-3,8.5-4.63a6.39,6.39,0,0,0-.85-1.47c3.51.2,6.85.55,10.19.73,1.76-.63,3.35-1.42,5.13-2.22,3,.51,6.14,1,9.29,1.7,6.37-2.06,10.95-3,14.26-.7,3.16.19,6.14.54,9.31.89l2.46,0a26.27,26.27,0,0,1,3.53-.78c1.4.5,2.62,1,4.2,1.49a12.36,12.36,0,0,0,3.39-3.87c2.46.36,5.09.7,7.56.88,8.61-.42,17.42-.83,26.21-1.24,2.82-.3,4.62-2.88,7.62-3.18h1.75c1.57.82,3.32,1.65,4.89,2.47l11.78.09c2.64-.3,5.11-.6,7.75-.74l3.34,0c21.1.33,42.19.83,63.29,1.32,4.51,4.09,3.68.85,5.1,0l15.1,1.58C633.12,60.91,635.76,60.61,638.23,60.47Z" transform="translate(-0.18)"/><path class="cls-3" d="M616,79.73c-1.4.16-2.65.47-4.23.62a4.34,4.34,0,0,1,.08-5.35l6,0C617.24,76.5,616.68,78.12,616,79.73Z" transform="translate(-0.18)"/><path class="cls-3" d="M667,110.46a18.56,18.56,0,0,1-6.72,2.21l-5.1,0-3.34,0a14.49,14.49,0,0,0-.9,1.61c-.86-1.3-1.72-2.6-2.41-3.91-1.24.48-2.3,1-3.53,1.43-.52-1-1-2.11-1.54-3.09-2.62-.83-6.35.93-5.16,3.85-1.77,1.28-3.38,2.57-5.15,3.85l-8.45-.07c-.12-3.4-5.06-2.47-6.68-.06-2.81-.18-5.61-.53-8.42-.88a50.66,50.66,0,0,1-5.12.77,35.48,35.48,0,0,0-1.7-3.9c-5,2.39-9.48-1.21-15.12-.13-2.44-1.31-5.06-2.63-7.5-3.95-3,.79-.79,5.67-5.15,3.85-1-1-2.27-2.12-3.3-3.1-1.42.8-2.84,1.6-4.26,2.23-.36.81-.55,1.62-.91,2.43a15.19,15.19,0,0,0-1.77.79,56.61,56.61,0,0,0-4.15-4.73c1.6-1.29,2.85-2.57,4.27-3.86-2.59-2.93-5-3.77-4.88-2.47-.73,1.45-2.3.63-3.53.79-1.23,0-3.52.29-3.32-1.49l-4.22,0c-6.69.44-15.27-1.58-20.24,1.3-6.45-4.11-17.61,1.15-23.55-1.65-3,2.72-9.68.89-14.46,3-4.42,1.43-5.23-2.79-8.4-2.49-.67-2.92-5.81.27-9.33.73-2.46-.18-4.92-.53-7.55-.87-6,2.22-10.64-5.76-15.11-.77-2.82-.35-5.62-.7-8.43-.88-3.89.94-6,3-10.21.72-9.41,5.76-18.44-2.25-27.84,3.67-2.11-.5-3.9,1.91-5.09-.85-5.11.12-10.21.4-15.14.68-.74,2.59-3.73,3-8.46,1.39-5.74-3.77-6.56,3.35-12,3-5,2.55-10-1.86-16.06,3.77,1.74,1.14,3.31,2.12,5,3.27l1.76,0c1.8-2.58,6-1.74,7.52,2.33-1.93.15-4,.45-6,.76-2.47.79-5.11,1.41-7.59,2.2,0-.48,0-1,0-1.45-2.45-.35-5.09-.69-7.55-.88,0,.49,0,1,0,1.46l-2.63,0c-1.59.31-3.35.62-4.94.77H331c-2.28-.51-4.55-1-6.66-1.51a18.09,18.09,0,0,0-1.8,3.06h-1.76c-4.91-.7-10-1.22-15.1-1.75l-1.78,1.61a23.88,23.88,0,0,0-3.33-.84c0-.81,0-1.62,0-2.27-1-1.14-2.25-2.12-3.29-3.27.89-1,1.79-2.09,2.51-3,5.12-1.58,10.29-5.92,15.4-6.85,1.89,2.94,4.56,1,9.3,1.7,0-.65,0-1.14,0-1.62,4.4-.45,9-.9,13.39-1.51,3,1.16,2.14-2.09,3.56-3l4.22,0c3.54-1.43,8-3,11-4.61,19.68,1,35.54-1,54-3.44,4.76-.29,4.87,3.93,11.79.09,1.93-.15,4-.45,6-.6,7,1.84,11.24.9,14.37,3.2,4.77-1.1,3.41-4,5-3.85l3.51,0c4.73,1.5,5.81-.44,7.58-.75,4.72,1.82,5.28-.28,6.68,0h.88l10.19.08,2.46,0c2.46.83,5.08,1.67,7.54,2.34,3.34-.14,6.86-.43,10.2-.57l4.22,0c0,.15,0,.48,0,.64,8.77,1.85,20.75,0,27.76,1.85,4.43-2.07,9.85-.25,13.55-.7,1.19,2.93,4.38,1,6.65,2.48,1.76.19,3.33.52,5.09.7,5.61.69,13-1.2,16.84,2.56,2.83-1.11,5.66-2.06,8.49-3,.52.65,1,1.46,1.72,2.28l4.22,0c.16,1-.74,2.59.66,3.09,4.23-.29,5.65-1.74,8.51-4.64,1.75.67,3.5,1.17,5.07,1.67,1.42-.31,2.83-.47,4.23-.78.9-1,1.8-2.09,2.69-3.06,1.56,1.64,3.29,3.11,4.85,4.74,2.12-.63,4.06-1.1,6-1.57,1.93-.15,4.05-.45,6-.76l1.58,0,6.86,0c1,.82,2.26,1.64,3.3,2.46,4.23-.29,8.48-2.85,12.66.1,3.87.19,7.91.55,11.77.91,3,.18,4.7,2.95,7.5,3.94C667.06,108.35,667,109.32,667,110.46Z" transform="translate(-0.18)"/><path class="cls-3" d="M611.54,92.83c-1.4-.18-2.63-.51-4.2-.85-2.8-1-3.19,1.59-4.27,3.2-1.58-.33-3.34-.67-4.92-.85-1.24,1-2.31,2.1-3.56,3.06,0,.81,0,1.62,0,2.26-2.86,2.9-4.28,4.35-8.51,4.64-1.4-.5-.5-2.12-.66-3.09l-4.22,0c-.69-.82-1.2-1.63-1.72-2.28-2.83.94-5.66,1.89-8.49,3-3.81-3.76-11.23-1.87-16.84-2.56-1.76-.18-3.33-.51-5.09-.7-2.27-1.48-5.46.45-6.65-2.48-3.7.45-9.12-1.37-13.55.7-7-1.84-19,0-27.76-1.85,0-.16,0-.49,0-.64l-4.22,0c-3.34.14-6.86.43-10.2.57-2.46-.67-5.08-1.51-7.54-2.34l-2.46,0-10.19-.08h-.88c-1.4-.33-2,1.77-6.68,0-1.77.31-2.85,2.25-7.58.75l-3.51,0c-1.58-.17-.22,2.75-5,3.85-3.13-2.3-7.36-1.36-14.37-3.2-1.93.15-4,.45-6,.6-6.92,3.84-7-.38-11.79-.09-18.5,2.44-34.36,4.41-54,3.44-3,1.59-7.43,3.18-11,4.61l-4.22,0c-1.42,1-.59,4.21-3.56,3-4.41.61-9,1.06-13.39,1.51,0,.48,0,1,0,1.62-4.74-.69-7.41,1.24-9.3-1.7-5.11.93-10.28,5.27-15.4,6.85-.72,1-1.62,2.08-2.51,3,1,1.15,2.26,2.13,3.29,3.27,0,.65,0,1.46,0,2.27-1.58.15-3.35.46-5.11.77-1.08,1.61-2.35,4.52-5.86,3.84-2.64-.35-5.09-.69-7.55-.87l-1.76,0c-1.4-.33-2.81-.51-4.21-.84-5.29,1.25-9.55,3.65-16.06,3.75-4.57.3-9.15.42-13.55.71h-.88c0-.81,0-1.62,0-2.27,1.77-.63,3.35-1.11,5.12-1.58,0-.81,2.66-1.27,1.81-3.06-6.35.76-7.5-4.76-12.62-3.18-1.23.15-2.29.46-3.53.62q-4.19-2-8.38-4l11.1-1.37c7.58-.9,16.56-1.65,23.55,1,4.39.69,5-4.33,8.5-3.82,5-2.39,9.92-4.78,15.39-6.19.72-1.29,1.62-2.58,2.52-3.88,1.94-.13,3.88-.44,6-.75h.71l6.8,3.94c.9-1.78,1.63-3.55,2.54-5.33-1.58-.82-3.32-1.65-5.07-2.47,0-.65,0-1.46,0-2.27.35-.32.71-.48.89-.8l7.56.06c1.93.34,4,.52,6,.86a8.62,8.62,0,0,1,.91-2.26l5.1,0c2.64-.63,5.64-1.09,8.46-1.55,4.79-2.39,10.08-3.65,20.25-1.46,1.93.51,4.05-.77,5.1,0,2.47-.46,4.93-.93,7.58-1.39,2.81.19,5.62.53,8.43.88,5.11-.77,10-1.54,15.16-2.31,1.4.34,2.8.51,4.2.84,2.28.83,3.37-1.26,5.13-1.57,6.15-.12,12.31-.39,18.65-.5,4.75-.61,9.51-1,14.27-1.5,0-.33,0-.49,0-.82l1.75,0c1.58.5,3.33,1,5.08,1.66,3.34-.29,7.2.71,10-.72l1.74,1.63,5.84-2.38c1.4.33,2.8.51,4.2.84,1.25-.8,2-2.42,3.56-2.24,1.39.5,2.62,1,4.19,1.49,1.58.34,2.82-.3,4.23-.77,2.64.34,5.62.69,8.44.88l4.92,0c0-.49,0-1,0-1.46,1.76-.31,3.53-.62,5.11-.77,0,.16,0,.49,0,.81,1.76-.31,3.35-.62,5.11-.77l5.1,0c2.47-.63,6.83,1.36,10-1.53,1.93.83,4,1.65,5.94,2.48,2.14-1.45,5.46,0,7.59-1.57l3.3,3.11c1.24-.8,2.3-1.43,3.37-2.24,2.64.18,5.1.53,7.73.87,0-.32,0-.64,0-.81l4.92,0,8.44.07c0,.49,0,1,0,1.46-4.8,3.2-8.66,3.17-13.41,3.14,0,.48,0,1,0,1.45,7.52,2.33,13.89.12,16.85,2.57,6.83.87,17.9,1.93,25.33-.61l3.29,3.11c.88-.31,1.59-.47,2.48-.79,1.75.34,3.33.51,5.08.85,0-1,0-2.1,0-3.08l6.06-5.45c-.87-.82-1.74-1.48-2.61-2.29,1.77-.8,0-3.41,2.68-3.06,1.4.66,2.8,1.48,4.19,2.3a25.55,25.55,0,0,0-1.8,3.07l3.29,3.1c4.57.36,9.68-.57,15.25,3.37C613.84,91.87,612.78,92.35,611.54,92.83Z" transform="translate(-0.18)"/><path class="cls-3" d="M603.86,100.54c-1.4.31-2.81.47-4.23.78-1.57-.5-3.32-1-5.07-1.67,0-.64,0-1.45,0-2.26,1.25-1,2.32-2.09,3.56-3.06,1.58.18,3.34.52,4.92.85,1.22.67,2.26,1.48,3.48,2.3C605.66,98.45,604.76,99.58,603.86,100.54Z" transform="translate(-0.18)"/><path class="cls-3" d="M336.11,60.27a25.38,25.38,0,0,0-3.35.79c-3.34-.35-6.85-.7-10.19-.9,0-.81,0-1.62,0-2.27L315,57.83a8.13,8.13,0,0,0-1.73-1.63c1.8-3.07,6.73-3,9.33-.74.36-.8.55-1.45.91-2.26,4.22.2,8.43.56,12.65.91,3.16.2,6.15.54,9.31.73a39.48,39.48,0,0,0,.81,4.71C342.8,59.84,339.46,60,336.11,60.27Z" transform="translate(-0.18)"/><path class="cls-3" d="M224.49,127.1c1.31,7-12-.26-8.57,9.17.33,1.29.49,2.59.82,3.89,0,1,0,2.11-.05,3.08l-5.1,0c-.54,1.13-1.08,2.09-1.63,3.22-2.3,1-4.6,1.92-6.9,3-2.41-3.91-2.38-5.53-2.36-7,1.42-.64,2.83-1.11,4.25-1.59a54.57,54.57,0,0,1-.8-5.51c0-.16,0-.49,0-.65,0-1.46,0-2.59.06-3.89l-6,0c-.16-.81-.5-1.62-.67-2.43-.67-2.12-1.17-4.06-1.66-6.17,2.81-.3,5.63-.61,8.45-.74h.88l-.06,3.89a20.43,20.43,0,0,1,2.44,1.64c2.3-1.11,4.6-2.07,6.9-3.18-.67-2.28-1.16-4.55-1.65-7,0-.17,0-.49,0-.81a31.73,31.73,0,0,1,.94-3.88,33.61,33.61,0,0,1-2.61-2.3c-.15-1.62-.48-3.08-.63-4.7,0-.17,0-.49,0-.81,1.59-.48,3.35-1,4.95-1.42,3.17-.13,4.34,3.28,5,5.39l-.06,3.89c.34.81.5,1.62.84,2.44-.9,1.28-1.79,2.57-2.52,3.86.16,1,.5,2.12.66,3.09a14.79,14.79,0,0,0-.73,1.61C220.67,124.47,222.58,125.62,224.49,127.1Z" transform="translate(-0.18)"/><path class="cls-3" d="M214.12,150.35,210,146.42c.55-1.13,1.09-2.09,1.63-3.22l5.1,0a29.21,29.21,0,0,0,1.71,3.26A46.06,46.06,0,0,0,214.12,150.35Z" transform="translate(-0.18)"/><path class="cls-3" d="M185.17,110.41c1,2.6,2,5.21,3.23,7.8,0,.49,0,1,0,1.46a14.18,14.18,0,0,0-.92,2.43c.13,3.24.43,6.64.74,10.05,1,2.44,2.9,5.53-.08,5.51l-2.65,0c0-1.62.05-3.08.08-4.7-1.88-3.58-6.42-6.21-1.44-10.06-4-4.08-6-10.42-.69-12.49.92-2.9,1.84-5.65,2.59-8.56l2.64,0a16.4,16.4,0,0,1,1.56,1.63C188.59,105.74,186.8,108,185.17,110.41Z" transform="translate(-0.18)"/><path class="cls-3" d="M686.5,113.7c-.67-2.28,1.5-6.15-4.11-7.82,2.82-.3,5.64-.44,8.46-.74,2.78,2,3.93,7.65-.13,8.59Z" transform="translate(-0.18)"/><path class="cls-3" d="M692.91,73.23c-.55,1.62-1.11,3.24-1.66,4.69-8.87,5.11-4-3.6-10.17-1.55l-4.22,0c-1.75-.82-3.32-1.64-5.07-2.47l9.35-1.38c4.05-.77,7.93-1.56,11.81-2.34C692.93,71.78,692.92,72.59,692.91,73.23Z" transform="translate(-0.18)"/><path class="cls-3" d="M663.35,73.8c-2.5,2.9,0,8.43-5.89,6.28-2.45-1.48-2.23-3.75-3.44-5.55C657.2,74.24,660.36,74.1,663.35,73.8Z" transform="translate(-0.18)"/><path class="cls-3" d="M652.56,125.09a4.72,4.72,0,0,1-4.19-1.66l-5.1,0c-1.76.31-3.35.62-5.11.77a12.84,12.84,0,0,0-.84-2.28c0-.32,0-.65,0-.82,1.93,0,4,0,6,.06,1.07-.8,2.31-1.6,3.38-2.24a15.76,15.76,0,0,0,1.73,1.47c1.94-.15,3.88-.45,5.82-.76l.86.82C654.2,122,653.29,123.47,652.56,125.09Z" transform="translate(-0.18)"/><path class="cls-3" d="M649.56,90.87c-5.49,2.54-9,2.2-10-.08C644.85,88.56,647.84,88.1,649.56,90.87Z" transform="translate(-0.18)"/><path class="cls-3" d="M630.66,61.06l-15.1-1.58-1.73-1.63a29.22,29.22,0,0,0-3.37,1.58c-21.1-.49-42.19-1-63.29-1.32.55-1.62,1.1-3.07,1.65-4.69,6.15.7,12.11,2,16.9-.67,5.77,1.67,10.76-2.51,16.91-2.14.33,1.31-.58,3.08.82,3.9,6,.54,11.37-7.68,16-1.49,2.65-.62,5.13-1.41,7.78-2.2,1.92.5,3.85,1,5.78,1.67A15.6,15.6,0,0,1,614.76,54c1.93.34,3.86.52,5.79.86,3.17.19,8.16-4.15,9.31.89,1.59-.8,3.19-1.76,5.12-1.59-.73,2.27,2.24,3.1,3.25,6.35C635.76,60.61,633.12,60.91,630.66,61.06Z" transform="translate(-0.18)"/><path class="cls-3" d="M599.33,121.57l-5.1,0c0-.81,0-1.62,0-2.43l5.1,0C599.35,120,599.34,120.76,599.33,121.57Z" transform="translate(-0.18)"/><path class="cls-3" d="M580.85,122.23c-2.66,2.09-4.78,2.88-5.09,0Z" transform="translate(-0.18)"/><path class="cls-3" d="M562.26,119.65c-11.15,4.6-19.54,1.14-28.69,1.38-10.94,2.51-26.58,1.4-38,.5-.85-1.46-2.79-.66-4.2-.84-.35.16-.53.48-.89.8-17.79,2-33.92-1.73-50.69,2.66-1.38-1.46-3.86-.67-5.79-.85-6.2,2.87-15.84.84-23.76,1.43-2.51,3-9,.24-12.7,2.16-9.13-.72-17,4.4-26.22,1.41.89-.8,1.81-3.39,5.17-4.66,0-1.62,0-3.08.06-4.7,4.59-.29,9-.41,13.56-.7a19.42,19.42,0,0,0,.84,3.09c1.59-1,3.37-2.08,5.14-3,4.75-.12,9.5-.41,14.25-.7,2.63.68,6.31,1.51,8.46-1.38,1.76.17,3.34.51,5.09.85,2.82-.3,5.64-.61,8.45-.74,2.47-.31,5.12-.61,7.57-.75h.89c1.94-.47,3.88-.94,6-1.58,1.94-.14,3.87-.45,5.81-.6,1.94-.3,4.05-.61,6-.76,1.93.18,3.85.52,5.79.86l16.87.14,5.11,0,5.09,0,3.34,0c1.57,1,4.4-.13,4.19,2.3,3.52-.13,7.38.71,11.1-1.53,3.8,4.9,15.25,3.2,20.89,2.6,9.14.08,15.63,1.26,26.19,1C558.93,118.65,560.5,119.15,562.26,119.65Z" transform="translate(-0.18)"/><path class="cls-3" d="M536.08,58.82l-11.78-.09c-1.57-.82-3.32-1.65-4.89-2.47,1.64-4,6.69-.43,8.33-3.82,2.14-2.09,5.79.69,8.41,1.69l6,0c-.37,1.14,1,1.63,1.7,3.91C541.19,58.22,538.72,58.52,536.08,58.82Z" transform="translate(-0.18)"/><path class="cls-3" d="M483.83,60.67c-2.47-.18-5.1-.52-7.56-.88-.87-.48-1.74-1-2.61-1.47-4.24,1.42-2.53,4.19-5,3.85a26.27,26.27,0,0,0-3.53.78l-2.46,0c-3.17-.35-6.15-.7-9.31-.89-3.31-2.29-7.89-1.36-14.26.7-3.15-.68-6.31-1.19-9.29-1.7-1.78.8-3.37,1.59-5.13,2.22-3.34-.18-6.68-.53-10.19-.73l-10-.08c-1.4-.65-2.8-1.15-4.2-1.65l-5.1,0c-.36.17-.54.49-.89.81l-5.1,0c-1.56-1.64-3.3-3.11-4.86-4.74-2.09-.67-3,1.6-5.11.77l-6.85-.06-4.93,0a21.05,21.05,0,0,0-.92,3.07l-2.64,0c-2.46-.5-4.91-1-7.54-1.68-3.17.3-6.16.59-9.33.73h-.7a39.48,39.48,0,0,1-.81-4.71c1.59-.63,3.36-1.43,5.13-2.23a10.66,10.66,0,0,1,4.92.85c1.94-.63,4.06-1.1,6-1.57,1.78-1.44,4.4-.45,6.69-.75l5.1,0c7,.71,14,1.25,21.08,1.79a17,17,0,0,1,1.77-.79c2.81.5,5.61,1,8.42,1.68,1.05,0,2.28,0,3.34,0,4.36,2.31,6.12,2.48,7.53,1.52,1.41-.15,2.82-.46,4.23-.61,3.68,1.16,1.11-3.56,4.27-3.21,1,1.14,2.26,2.13,3.29,3.27,2.64,0,7.33,3.63,7.75-.75a10.88,10.88,0,0,0,8.44.07c3.16,1,3.69.36,7.59-1.56.47,4.06,1.52,3.9,4.21.84,6.29,2.65,13.34,1.74,18.44,1,2.46.51,6.14,1.68,6.87-.74,6.87-.27,11.25.73,17.78-.67-1.87-4.07,4.43-2.07,5.82-1.41,2.92,4.72,10,.24,13.48,4.65-3,.3-4.8,2.88-7.62,3.18C501.25,59.84,492.44,60.25,483.83,60.67Z" transform="translate(-0.18)"/><path class="cls-3" d="M365.51,128.9c-3.55,1.75-9.71,2.51-11.78-.1C355.7,126.38,359.2,127.71,365.51,128.9Z" transform="translate(-0.18)"/><path class="cls-3" d="M341.74,130.32c-2.49,1.93-7.41,1.89-9.15.74C332.45,128.79,336,128.49,341.74,130.32Z" transform="translate(-0.18)"/><path class="cls-3" d="M329.07,131c-3.37,2.24-5.83,2.22-8.46,1.39l-6.68,0c.71-.64,1.63-3.23,6.7-1.41Z" transform="translate(-0.18)"/><path class="cls-3" d="M307.24,132.31c-3.55,2.4-6,2.38-8.46,1.55-2.29.47-4.58.94-6.88,1.57l-7.59,1.39c-5.09-.2-7.78,3.19-14.46,3-2.47.63-4.94,1.1-7.58,1.56-2.11.15-3.5-1.32-5.78-1.66.54-1,1.09-2.1,1.63-3.07l5.1,0c2.28.51,4.38,1,6.65,1.68.73-1.13,1.27-2.1,1.81-3.07,1.4.5,4,1.34,5.12-1.58l1.59,0c1.93.5,5.25,1.5,6.88-1.57l1.58,0c1.75.66,3.5,1.16,5.07,1.66,3-.3,2.15-2.25,6.89-1.57Z" transform="translate(-0.18)"/><path class="cls-3" d="M242.05,141.18c-.09,6-6,3-9.37,3-2.86,3.06-9.16,1.38-9.4,5.43-3,.47-3-.83-4.88-3.11a29.21,29.21,0,0,1-1.71-3.26c3.71-.62,7.41-1.4,10.94-2.18q1.32,0,2.64,0h.88c.7-.32,1.59-.47,2.47-.79C236.43,140.65,239.24,140.83,242.05,141.18Z" transform="translate(-0.18)"/><path class="cls-3" d="M214.12,150.35c.51,1.79,1.35,3.9-.05,3.89-.74,2.26-2,3.22-3.59,4.5-2.79-1.64-3.44-4.88-7.43-8.48-.55,1.45-1.1,3.07-1.65,4.52-.63-5.19-8.06-2.5-8.36-5.41,0-.65,0-1.14,0-1.62-1.55-2-3.81-4.09-5-5.39,0-1.62.05-3.24.08-4.7,3,0,1.09-3.07.08-5.51-.31-3.41-.61-6.81-.74-10.05a14.18,14.18,0,0,1,.92-2.43c2.45.84,5.08,1.67,7.53,2.5.49,2.11,1,4,1.66,6.17.17.81.51,1.62.67,2.43.86,1.47,1.71,3.1,2.57,4.56,0,2.43-.07,4.7-.11,7.13,0,1.46,0,3.08,2.36,7,2.3-1.11,4.6-2.07,6.9-3Z" transform="translate(-0.18)"/><path class="cls-3" d="M190.45,87.12c-.91,2.26-1.81,3.55-3.39,3-3.31-1.49-3.46-3.76-3.25-6.18,2-1.61,4.94-.61,6.68.7C190.46,86,190.46,86.47,190.45,87.12Z" transform="translate(-0.18)"/><path class="cls-3" d="M670.22,73.86c-1.62,1.77-6.73,2.54-6.87-.06,2.31-1.11.44-5.35,4.29-4.66C668.5,70.77,669.36,72.39,670.22,73.86Z" transform="translate(-0.18)"/><path class="cls-3" d="M649.81,73.69c-.56,2.27-3,1.27-4.22.78-2.64-.51-5.62-1-8.42-1.69,1.46-4.2,6.21-4,10.25-3.81C648.28,70.6,649.14,72.23,649.81,73.69Z" transform="translate(-0.18)"/><path class="cls-3" d="M282,126c2.46.18,4.91.52,7.55.87,3.51.68,4.78-2.23,5.86-3.84-1.08,1.61-2.35,4.52-5.86,3.84C286.93,126.47,284.48,126.13,282,126Z" transform="translate(-0.18)"/><path class="cls-3" d="M280.23,128.2c-1.94.31-4.39-.68-6,3.19-1.07.48-2.3,1-3.36,1.43-1.94.31-3.88.46-5.82.76a43.62,43.62,0,0,1-5.07-1.65c-1.78,1.44-4.58.61-6.89,2.37l-5.81-.05a5.33,5.33,0,0,0-1.69-4.71h.88c4.4-.29,9-.41,13.55-.71,6.51-.1,10.77-2.5,16.06-3.75,1.4.33,2.81.51,4.21.84C280.25,126.75,280.24,127.55,280.23,128.2Z" transform="translate(-0.18)"/><path class="cls-3" d="M216.69,143.24c0-1,0-2.11.05-3.08,2.3-.79,4.42-1.42,6.71-2.21,2.31-.95,2.8,1.48,4.18,3.11C224.1,141.84,220.4,142.62,216.69,143.24Z" transform="translate(-0.18)"/><path class="cls-3" d="M715.85,68.07c-3.07,5-9,2.2-13.59,3-.15-1.78-.47-3.73-.8-5.52C706.38,66.37,711.11,67.23,715.85,68.07Z" transform="translate(-0.18)"/><path class="cls-3" d="M615.56,59.48c-1.42.8-.59,4-5.1,0a29.22,29.22,0,0,1,3.37-1.58Z" transform="translate(-0.18)"/><path class="cls-3" d="M594.08,84.91,588,90.36c0,1,0,2.11,0,3.08-1.75-.34-3.33-.51-5.08-.85-.89.32-1.6.48-2.48.79l-3.29-3.11c-7.43,2.54-18.5,1.48-25.33.61-3-2.45-9.33-.24-16.85-2.57,0-.49,0-1,0-1.45,4.75,0,8.61.06,13.41-3.14,0-.49,0-1,0-1.46L540,82.19l-4.92,0c0,.17,0,.49,0,.81-2.63-.34-5.09-.69-7.73-.87-1.07.81-2.13,1.44-3.37,2.24l-3.3-3.11c-2.13,1.61-5.45.12-7.59,1.57-1.92-.83-4-1.65-5.94-2.48a6.65,6.65,0,0,0,.91-1.45c5.23,2.31,6-4.66,8.44.07l4.22,0c2.28.17,4.56.52,6.67.7,2.29-.63,4.59-1.42,6.89-2.22,1.92.51,3.86,1,5.78,1.68a34.52,34.52,0,0,1,3.54-1.6c1.57.83,3.32,1.65,4.89,2.31,1.42-1,3.35-.62,7.71,1.69a33,33,0,0,1-2.67,2.24c4.89,2.47,5.64-.76,7.57-.59,3.17-.29,6.85.55,9.33-.73l14.42.12,6.68.06C592.34,83.43,593.21,84.09,594.08,84.91Z" transform="translate(-0.18)"/><path class="cls-3" d="M492,81.8c-1.76.15-3.35.46-5.11.77,0-.32,0-.65,0-.81-1.58.15-3.35.46-5.11.77,0,.49,0,1,0,1.46l-4.92,0c-2.82-.19-5.8-.54-8.44-.88-1.41.47-2.65,1.11-4.23.77-1.57-.5-2.8-1-4.19-1.49,3.18-1.27,3.56-3.54,9.19-3.17,3.16.35,6.14.71,9.31.89h.87c2.47-.46,5.12-.93,7.58-1.4,1.76.18,3.34.52,5.1.69,1.74.82,3.31,1.65,5.06,2.47Z" transform="translate(-0.18)"/><path class="cls-3" d="M476.27,59.79a12.36,12.36,0,0,1-3.39,3.87c-1.58-.5-2.8-1-4.2-1.49,2.45.34.74-2.43,5-3.85C474.53,58.81,475.4,59.31,476.27,59.79Z" transform="translate(-0.18)"/><path class="cls-3" d="M427.73,84.36c-4.76.45-9.52.89-14.27,1.5-6.34.11-12.5.38-18.65.5-1.76.31-2.85,2.4-5.13,1.57-1.4-.33-2.8-.5-4.2-.84-5.12.77-10.05,1.54-15.16,2.31-2.81-.35-5.62-.69-8.43-.88l8.48-2.36c5.27,0,7.07-2.7,15.14-1.34,2.65-.63,5.11-1.09,7.59-1.56,3.87-.94,6.52-1.08,10.23-2.18,3.34.19,6.67.54,10.19.89,3-1.92,7,.06,9.12.73,1.76.33,3.52.67,5.1.84C427.73,83.87,427.73,84,427.73,84.36Z" transform="translate(-0.18)"/><path class="cls-3" d="M385,62.94c-.53-.16-1-.5-1.58-.66-1.77,1-3.36,1.92-5.14,3l-1.76,0a48.36,48.36,0,0,0-10-4.78,21.05,21.05,0,0,1,.92-3.07l4.93,0,6.85.06c2.1.83,3-1.44,5.11-.77,1.56,1.63,3.3,3.1,4.86,4.74Z" transform="translate(-0.18)"/><path class="cls-3" d="M365.48,72.18h-1.77c0-.33,0-.49,0-.82-4.38-.84-5.12,1.42-9.17,1.55-1.41,0-3.69.3-3.49-1.65-4-.84-5.47,1.25-7.61,3-7.36-1.52-14.43.69-21.1-.17-6.67-.71-4.67,6.6-5.25,10.17-2.3.62-3.31-2.14-4.88-3.12-2.12.47-4.05.93-6,1.4A22.11,22.11,0,0,1,304.44,85c-1.94.15-4.39-.68-5,3L296,88l-1.64,3.88a14.82,14.82,0,0,0-10.21.73c-1.58.14-3.35.45-5.11.6-2.94-3.1-5.63.44-10.06,2.35l-1.76,0c-.85-1.63-1.53-3.09-2.39-4.72-3.17.46-6.17.93-9.34,1.55-1.77,1-3.37,1.91-5.15,3-1.58.14-3.34.46-5.11.77,0,.64,0,1.45,0,2.26a36.57,36.57,0,0,0-3.37,1.59l-7.56-.06c-2,2.26-4.11,4.5-6.08,6.92l-2.46,0c-.47-4-1.53-3.9-2.41-3.91-1.59,1-.75,3.08-.94,4.7-.73,1.29-2.5,2.08-1.77.63-.68-2.11-1.85-5.52-5-5.39-1.6.47-3.36.94-4.95,1.42a12,12,0,0,0-6-1.51l-6-.05c0-1.62,0-3.08.08-4.7a33.27,33.27,0,0,0,3.54-1.59c-.3-3.56-.6-7.14-.72-10.86,0-.16,0-.49,0-.81l2.46,0h.88c2.81.34,5.62.69,8.43.87l1.76,0,4.92,0c1.25-.8,2-2.41,3.56-2.24l3.34,0c1.57.82,3.31,1.48,5.06,2.31,3-.14,6.67.7,10-.73-.51-1.46-1-3.09-1.52-4.55-2.63-.35-5.09-.69-7.73-.88,2-2.08,6.18-1.24,6-3.83,3.17-.3,6.16-.61,9.34-.74,5.64-1.25,9.89-3.64,17.84-5.36-6.51.27-6.3-2.49-7.68-4a11.65,11.65,0,0,0,1.79-2.26c1.75.51,3.32,1,5.08,1.67,0-1.95.05-3.73.08-5.52,1.41-.31,2.82-.46,4.23-.77a13,13,0,0,0,.84,2.43c6.71-1.4,8,4.77,12.64,1.57,0-.16,0-.48,0-.82l6.68.07c2.3-.47,4.41-1,6.71-1.41a30.35,30.35,0,0,0,.93-3.88l11.78.09c1.21,2.12,2.23,4.07,3.43,6.19-1.8,2.9-7.55-.71-7.8,3.82,1.22.83,2.27,1.64,3.49,2.46,1.76-.14,3.86.36,4.94-1.57,8.46-.75,14.63-1.51,22-2.09l10.2.08c1.4.17,2.8.51,4.21.68,2.46-.14,5.1-.44,7.57-.59,1.75.51,3.32,1,5.07,1.5l1.59,0c1.4.17,1.95-1.28,6,.86C367.81,68.8,368.15,69.77,365.48,72.18Z" transform="translate(-0.18)"/><path class="cls-3" d="M362.22,66l-5.09,0c-2.47.15-5.11.45-7.57.59-.86-1.3-1.73-2.6-2.59-3.91-.54,1.13-1.08,2.1-1.62,3.23l-10.2-.08c-.86-1.63-1.53-3.26-2.39-4.72a25.38,25.38,0,0,1,3.35-.79c3.35-.29,6.69-.43,10.21-.72h.7c3.17-.14,6.16-.43,9.33-.73,2.63.66,5.08,1.18,7.54,1.68C363.34,62.28,362.79,64.05,362.22,66Z" transform="translate(-0.18)"/><path class="cls-3" d="M349.21,89.87C339,87.68,333.75,88.94,329,91.33,333.75,88.94,339,87.68,349.21,89.87Z" transform="translate(-0.18)"/><path class="cls-3" d="M304.7,67c.25-4.53,6-.92,7.8-3.82-1.2-2.12-2.22-4.07-3.43-6.19a39.8,39.8,0,0,1,4.24-.77A8.13,8.13,0,0,1,315,57.83c0,1.3,0,2.44-.05,3.89,4.2.85,4.79-2.88,7.58-1.56,3.34.2,6.85.55,10.19.9.86,1.46,1.53,3.09,2.39,4.72-7.39.58-13.56,1.34-22,2.09-1.08,1.93-3.18,1.43-4.94,1.57C307,68.62,305.92,67.81,304.7,67Z" transform="translate(-0.18)"/><path class="cls-3" d="M322.57,60.16c-2.79-1.32-3.38,2.41-7.58,1.56,0-1.45,0-2.59.05-3.89l7.56.06C322.59,58.54,322.58,59.35,322.57,60.16Z" transform="translate(-0.18)"/><path class="cls-3" d="M314.49,95.1c-1.93-.34-4-.52-6-.86,0-.49,0-1,0-1.46,1.77-.63,2.32-1.92,6.86.06A8.62,8.62,0,0,0,314.49,95.1Z" transform="translate(-0.18)"/><path class="cls-3" d="M302.56,105.05l-6.8-3.94h-.71c-2.11.31-4.05.62-6,.75a36.78,36.78,0,0,1-1.82,3.89c-4.94,1.09-8,5-14.31,4.58.83,3.41-5.62-.53-4.27,3.86-10.28,5.1-20.17-3.9-30.45,1.37-1.94.14-4.56-.69-6,.59,1.2,2.12,4,1.82,4.16,3.93l0,2.42c-2.29.48-4.41.94-6.71,1.41a15.47,15.47,0,0,1-2.42-2.29c.2-1.78.58-3.72.78-5.5,5.71-5.3,8.9-7.55,13.66-7.67,1.94-.63,4.06-1.43,6-2.22-1.93-.5-4-1-5.95-1.66,0-1.47,0-3.09.06-4.55a36.57,36.57,0,0,1,3.37-1.59l5.1,0c1.75.18,3.33.52,5.08.86,4.24-.94,7.43-2.53,11.83-3,0-.32,0-.64,0-.81l1.76,0,10,.07c1.77-.3,3.53-.61,5.11-.76a25.91,25.91,0,0,1,3.34.84c1.93-.31,4.05-.62,6-.76a16.07,16.07,0,0,1,1.78-.8c1.57.34,3.33.51,4.91.85,0,.81,0,1.62,0,2.27,1.75.82,3.49,1.65,5.07,2.47C304.19,101.5,303.46,103.27,302.56,105.05Z" transform="translate(-0.18)"/><path class="cls-3" d="M266,69.75c-8,1.72-12.2,4.11-17.84,5.36-3.18.13-6.17.44-9.34.74.14,2.59-4.07,1.75-6,3.83,2.64.19,5.1.53,7.73.88.51,1.46,1,3.09,1.52,4.55-3.37,1.43-7,.59-10,.73-1.75-.83-3.49-1.49-5.06-2.31l-3.34,0c-1.59-.17-2.31,1.44-3.56,2.24l-4.92,0c.55-1.45,1.1-3.07,1.65-4.69-1.58,0-3.34,0-5.1,0h-.7c0-.64,0-1.46,0-2.26,0-1.62.05-3.08.07-4.7-1-4.06-2.21-4.72-1.66-6.17a34.11,34.11,0,0,1,3.36-1.6l2.58,3.91c3.7,0,7.55.71,10.06-2.18l.06-3.89,9.32.07c3.17-.62,6.17-1.08,9.34-1.54,2.49-1.43,5.12-1.42,7.58-1.39,2.83-.63,5.65-1.09,8.47-1.56l5.1,0c0,1.79-.06,3.57-.08,5.52-1.76-.67-3.33-1.16-5.08-1.67a11.65,11.65,0,0,1-1.79,2.26C259.68,67.26,259.47,70,266,69.75Z" transform="translate(-0.18)"/><path class="cls-3" d="M225.44,64.07,225.38,68c-2.51,2.89-6.36,2.21-10.06,2.18l-2.58-3.91c1.94-.47,4.06-.93,6-1.41C219.64,63.37,223.15,64.22,225.44,64.07Z" transform="translate(-0.18)"/><path class="cls-3" d="M215.09,85.7l-1.76,0c-2.81-.18-5.62-.53-8.43-.87,2-1.28,3.91-2.57,6-3.85h.7c1.76,0,3.52,0,5.1,0C216.19,82.63,215.64,84.25,215.09,85.7Z" transform="translate(-0.18)"/><path class="cls-3" d="M211,74c0,1.62,0,3.08-.07,4.7-2.1-.83-4-1.66-5.94-2.32a13.73,13.73,0,0,1,.91-2.42c1.09-2.1,2.35-4,3.44-6.13C208.83,69.28,210.05,69.94,211,74Z" transform="translate(-0.18)"/><path class="cls-3" d="M201.55,85.59c-5.11.77-8.31,3-11.1,1.53,0-.65,0-1.14,0-2.43a27.85,27.85,0,0,0,1.8-3.07c3.15,1,6.12,2.16,9.27,3.16C201.56,85.1,201.55,85.43,201.55,85.59Z" transform="translate(-0.18)"/><path class="cls-3" d="M702.26,71c-2.3.8-4.42,1.59-6.71,2.22l-2.64,0c0-.64,0-1.45,0-3.08,1.78-1.44,3.39-3.05,5.17-4.65l3.34,0C701.79,67.31,702.11,69.26,702.26,71Z" transform="translate(-0.18)"/><path class="cls-3" d="M561,83.17c-1.93-.17-2.68,3.06-7.57.59a33,33,0,0,0,2.67-2.24C557.71,82,559.47,82.52,561,83.17Z" transform="translate(-0.18)"/><path class="cls-3" d="M238.88,129.48a13,13,0,0,0-8.53,6.09c0,1.78-.06,3.73-.08,5.52q-1.32,0-2.64,0c-1.38-1.63-1.87-4.06-4.18-3.11-2.29.79-4.41,1.42-6.71,2.21-.33-1.3-.49-2.6-.82-3.89-3.38-9.43,9.88-2.19,8.57-9.17-1.4.15-2.82.46-4.22.61.91-2.09-1.37-2.92-1.52-4.55a14.79,14.79,0,0,1,.73-1.61l6.86,0h.88a15.47,15.47,0,0,0,2.42,2.29c1.15,5.2,5.23,3.45,7.51,3.95A7.9,7.9,0,0,0,238.88,129.48Z" transform="translate(-0.18)"/><path class="cls-3" d="M210.94,81c-2.13,1.28-4.08,2.57-6,3.85H204c.4-2.75.62-5.67,1-8.42,1.92.66,3.84,1.49,5.94,2.32C211,79.5,211,80.32,210.94,81Z" transform="translate(-0.18)"/><path class="cls-3" d="M204.16,134.71c0,.16,0,.49,0,.65l-3.34,0c-.86-1.46-1.71-3.09-2.57-4.56l6,0C204.2,132.12,204.18,133.25,204.16,134.71Z" transform="translate(-0.18)"/><path class="cls-3" d="M349.56,66.54c-1.41-.17-2.81-.51-4.21-.68.54-1.13,1.08-2.1,1.62-3.23C347.83,63.94,348.7,65.24,349.56,66.54Z" transform="translate(-0.18)"/><path class="cls-3" d="M296.36,60.76c-2.3.46-4.41.94-6.71,1.41L283,62.1c0,.34,0,.66,0,.82-4.62,3.2-5.93-3-12.64-1.57a13,13,0,0,1-.84-2.43c5.47-1.42,8.66-2.85,12.69-2.16l15.12.12A30.35,30.35,0,0,1,296.36,60.76Z" transform="translate(-0.18)"/><path class="cls-3" d="M282.66,83.17l-5.1,0c-1.22-1-2.26-2.12-3.3-3.11-8.58-2.17-13.07,3.94-20.41.65,0-.65,0-1.13,0-1.62,3.17-.46,6.17-.92,9.34-1.54,5.3-1.26,13-.39,19.52.15C282.71,79.45,282.68,81.39,282.66,83.17Z" transform="translate(-0.18)"/><path class="cls-3" d="M267.16,96.33c-4.4.46-7.59,2-11.83,3-1.75-.34-3.33-.68-5.08-.86l-5.1,0c0-.81,0-1.62,0-2.26,1.77-.31,3.53-.63,5.11-.77,1.78-1.13,3.38-2.08,5.15-3,3.17-.62,6.17-1.09,9.34-1.55.86,1.63,1.54,3.09,2.39,4.72C267.17,95.69,267.17,96,267.16,96.33Z" transform="translate(-0.18)"/><path class="cls-3" d="M247.67,106.22c-3.21,3-4.62,3-6,2.22-4.76.12-7.95,2.37-13.66,7.67-2.28-.51-4.38-1-6.66-1.51-.34-.82-.5-1.63-.84-2.44l.06-3.89c-.73,1.45,1,.66,1.77-.63.19-1.62-.65-3.74.94-4.7.88,0,1.94-.14,2.41,3.91l2.46,0c2-2.42,4.11-4.66,6.08-6.92l7.56.06c0,1.46,0,3.08-.06,4.55C243.64,105.22,245.74,105.72,247.67,106.22Z" transform="translate(-0.18)"/><path class="cls-3" d="M212.88,116l-1.76,0c-2,1.77-3.92,3.7-5.88,5.46h-.88c-2.82.13-5.64.44-8.45.74-2.45-.83-5.08-1.66-7.53-2.5,0-.48,0-1,0-1.46-1.19-2.59-2.21-5.2-3.23-7.8,1.63-2.42,3.42-4.67,5-6.93a16.4,16.4,0,0,0-1.56-1.63l-2.64,0c-3.84-2-1.85-5.69-2.34-8.61l3.39-3c1.58.5,2.48-.79,3.39-3,2.79,1.48,6-.76,11.1-1.53.12,3.72.42,7.3.72,10.86A33.27,33.27,0,0,1,198.73,98c0,1.62,0,3.08-.08,4.7l6,.05a12,12,0,0,1,6,1.51c0,.32,0,.64,0,.81.15,1.62.48,3.08.63,4.7a33.61,33.61,0,0,0,2.61,2.3A31.73,31.73,0,0,0,212.88,116Z" transform="translate(-0.18)"/><path class="cls-3" d="M205,140.87c-1.42.48-2.83.95-4.25,1.59,0-2.43.07-4.7.11-7.13l3.34,0A54.57,54.57,0,0,0,205,140.87Z" transform="translate(-0.18)"/><path class="cls-3" d="M415.36,64c-2.83,1.6-5.67,3-8.5,4.63H406A15.29,15.29,0,0,1,404.42,67c0-1.46,0-3.08.07-4.54l10,.08A6.39,6.39,0,0,1,415.36,64Z" transform="translate(-0.18)"/><path class="cls-3" d="M227.22,121.61h-.88l-6.86,0c-.16-1-.5-2.11-.66-3.09.73-1.29,1.62-2.58,2.52-3.86,2.28.5,4.38,1,6.66,1.51C227.8,117.89,227.42,119.83,227.22,121.61Z" transform="translate(-0.18)"/><path class="cls-3" d="M209.38,127h-1.76a20.43,20.43,0,0,0-2.44-1.64l.06-3.89c2-1.76,3.92-3.69,5.88-5.46l1.76,0c0,.32,0,.64,0,.81.49,2.43,1,4.7,1.65,7C212.74,124.89,211,125.86,209.38,127Z" transform="translate(-0.18)"/><path class="cls-3" d="M245.56,129.54c-1.42.8-2.83,1.6-4.25,2.23.33,1.79.47,3.73.79,5.52l-6,0c-1.42.8-1.27,2.1-2.51,3.06-.88.32-1.77.47-2.47.79h-.88c0-1.79,0-3.74.08-5.52a13,13,0,0,1,8.53-6.09,7.9,7.9,0,0,1-1.73-1.63l-4.22,0c-3.19,1.28-3.67-1.81-3.29-3.91,2.3-.47,4.42-.93,6.71-1.41l0-2.42c1.24-.16,2.3-.47,3.53-.62,5.12-1.58,6.27,3.94,12.62,3.18.85,1.79-1.8,2.25-1.81,3.06-1.77.47-3.35,1-5.12,1.58C245.59,127.92,245.58,128.73,245.56,129.54Z" transform="translate(-0.18)"/><path class="cls-3" d="M242.1,137.29c0,1.29,0,2.59,0,3.89-2.81-.35-5.62-.53-8.43-.88,1.24-1,1.09-2.26,2.51-3.06Z" transform="translate(-0.18)"/><path class="cls-3" d="M575.76,122.19l-5.1,0C572.24,122.32,571.06,119.23,575.76,122.19Z" transform="translate(-0.18)"/><path class="cls-3" d="M256.49,139.68c-3.38,2.56-9.37,3.32-14.44,1.5,0-1.3,0-2.6,0-3.89,3.17.19,6.15.54,9.31.89C253,138.67,254.74,139.17,256.49,139.68Z" transform="translate(-0.18)"/><path class="cls-3" d="M297.28,116.67c-3.73,2.4-5.66,2.39-7.6,2.38C287,112.38,294,113.89,297.28,116.67Z" transform="translate(-0.18)"/><path class="cls-3" d="M606.55,97.48c-1.22-.82-2.26-1.63-3.48-2.3,1.08-1.61,1.47-4.2,4.27-3.2,1.57.34,2.8.67,4.2.85C611.49,96.07,607.49,93.76,606.55,97.48Z" transform="translate(-0.18)"/><path class="cls-3" d="M459.94,82.35c-1.58-.18-2.31,1.44-3.56,2.24-1.4-.33-2.8-.51-4.2-.84l-5.84,2.38L444.6,84.5c-2.83,1.43-6.69.43-10,.72-1.75-.66-3.5-1.16-5.08-1.66,1.41,0,2.31-1.44,3.38-2.24l11.78.1c1.41,0,2.81,0,7.54,1.52C454.12,82.79,455,80.69,459.94,82.35Z" transform="translate(-0.18)"/></g></g></g></g></g></svg>