<svg xmlns="http://www.w3.org/2000/svg" viewBox="0 0 261.42 77.18"><defs><style>.cls-1{fill:#a0987e;}.cls-2{font-size:52.49px;font-family:FuturaPT-Book, Futura PT;letter-spacing:0.15em;}.cls-2,.cls-3{fill:#0a122d;}.cls-3{font-size:16.8px;font-family:Verdana;letter-spacing:0.15em;}</style></defs><g id="レイヤー_2" data-name="レイヤー 2"><g id="レイヤー_1-2" data-name="レイヤー 1"><g id="meguru"><path class="cls-1" d="M0,45.36C-.27,31.49,10.29,19.49,23.86,16.8a35.4,35.4,0,0,1,5.23-.54,5.47,5.47,0,0,1,1.21.08,2.48,2.48,0,0,1-.25,4.95,35.48,35.48,0,0,0-5.54.54A24.31,24.31,0,0,0,5.27,42C4,51.63,8.14,60.75,16.25,65.07c12.29,6.54,25.87-.2,28.52-12.59A15.82,15.82,0,0,0,31.36,33.1c-7-1-14.59,4-16,10.67A10.13,10.13,0,0,0,18.85,54,10.17,10.17,0,0,0,29.66,55.9a7.24,7.24,0,0,0,4.62-8.32c-.69-3.56-3.47-4.46-6.55-3.53a1.3,1.3,0,0,0-.92,1.2A2.5,2.5,0,0,1,24,47.62a2.57,2.57,0,0,1-2.18-3,5.77,5.77,0,0,1,4-5.24c8-2.81,13.54,2.77,13.64,9.13A12.79,12.79,0,0,1,27.19,61.66a15.75,15.75,0,0,1-16.87-13c-1-6.29,1.22-11.5,5.93-15.56,6.19-5.34,13.31-6.69,20.9-3.62s12,8.91,12.93,17c1.45,12.4-7.89,24.19-20.28,25.9A26,26,0,0,1,.46,50.68,29.54,29.54,0,0,1,0,45.36Z"/><text class="cls-2" transform="translate(60.92 43.75)">meguru</text><text class="cls-3" transform="translate(111.73 73.11) scale(1 0.8)">Hair&amp;Spa</text></g></g></g></svg>