<svg xmlns="http://www.w3.org/2000/svg" viewBox="0 0 1052.42 203.77"><defs><style>.cls-1{opacity:0.7;}.cls-2{opacity:0.9;}.cls-3{fill:#fff;}</style></defs><g id="レイヤー_2" data-name="レイヤー 2"><g id="レイヤー_1-2" data-name="レイヤー 1"><g class="cls-1"><g class="cls-2"><g class="cls-2"><path class="cls-3" d="M975.38,21.34c-.52-1.78-4.28-2.6-2.89-4.71l12.4,0C985.05,19.24,982.29,22.81,975.38,21.34Z" transform="translate(-0.08)"/><path class="cls-3" d="M914.59,70.24c-5.73.16-11.16.48-16.9.79-3.47-.32-7.26-.65-10.75-.81h-2.86c-5.06-.33-10.13-.49-15.2-.83h-10.8l-1.54-.81c-3.51.32-7,.63-10.54.79a27.23,27.23,0,0,1-3.08-1.46c-1.95.65-4.22,1.46-6.18,2.26-3.49,0-7.3,0-10.8,0,0,.17,0,.49,0,.82-8.59.15-17.2.47-25.79.78-14.28-.33-28.56-.68-42.84-.85.05-.81.09-1.62.14-2.43H748.2l-.15,2.43c-7.94.15-16.23.47-24.2.78h-9.2c-8.4-2.93-6.37.15-9.22,0-3.44-.81-6.89-1.63-10.65-2.44h-4.45c-3.15-.49-6-1-9.12-1.47-19.1.31-30.78-.83-47.29-.85-10.22.64-31,2.4-37.67-2.47-6.8,2.26-13.75,1.45-20.11,1.6.47-2.43-4.68-1.3-7.49-2.28H544.19q-15.24,0-30.5,0c-3.48-.33-7-.66-10.43-.82-3.52.16-7.34.48-10.86.8-3.51.16-7,.48-10.52.64-3.86.64-7.37,1.13-10.9,1.61h-1.6c-4.45.16-9.23.47-13.7.79-5.1.16-10.2.48-15.3.8-3.16-.33-6-.66-9.17-.82-4,2.91-10.61,2.1-15.34,1.44-8.59.32-17.19.64-25.78.79-3.23,1-6.48,2.1-9.4,3.07a13.61,13.61,0,0,1-1.41-3.08c-8.27.32-16.22.47-24.51.78-.09,1.63-.18,3.09-.29,4.71-6.1,1.29-7.85,3.89-9.49,4.69-3.5.16-7,.48-10.52.64-11.37-1.15-17.65-2.45-21.29,0-7.34.64-14.37,1.12-21.7,1.6-10.38-1.8-16.76-1.48-16.58.79h-6.35l-15.25,0c-9.1-1.79-10.85.81-12.16,1.45H229.06l-15.24,0c-8.54-.65-7.07,1.29-12.49,1.61-2.83-.49-6-1-9.12-1.63h-2.86c-3,3.08-9,2.1-12.49,1.61H174c-2.08,2.92-6.8,2.11-9.31,1.62-1,1-2,1.94-3.37,3.08-4.08-.66-7.87-1.15-12-1.64h-9.21c-1,1-2,2.11-3,3.08-3.14-.49-6.29-1-9.12-1.47-5.7-.33-11.08-.66-16.8-.83-.52-1.78-.71-3.73-1.25-5.51,2.59-.64,5.17-1.45,7.77-2.26h1.58a37.36,37.36,0,0,0,2.9,4.7h8.9c4.23-1.78,9.27-1,12.53-2.42,2.82.66,6,1.14,9.12,1.63,3.51-.32,7-.47,10.54-.8,1.93-.48,4.18-1,6.12-1.45,3.09-3.89,7.48-2.91,11-3.23,0-.65.08-1.46.13-2.27h3.17c4.45.16,8.88.5,13.62.83,6.32.65,8.71-2.27,10.72-3.88,3.2-.32,6.4-.65,9.27-.81,1.89.17,4.1.49,6,.82l3.28-1.62c9.18.5,18.37,1,27.22,1.65,2.3-1.13,4.26-2.1,6.54-3.07,3.79.49,7.89,1,12,1.47,4.14-.16,8-.48,12.12-.8h4.77l.09-1.46c4.43.17,9.18.5,13.6.83,0,.49-.06,1-.07,1.45,8.83,1,8.66-1.61,13.79-2.25,3.52-.32,7.35-.64,10.85-.8-2.61-4.06-10.19-4.87-13.52-2.28h-3.18c-3.11-1.14-5.9-2.11-9-3.24,11.16-5.67,20.1-1.29,29.16-3.87,9.82.33,11.53-6.8,21.78-3.06,8.49,1.63,13.92,1.15,15.34-1.44,8.91-.31,18.15-.63,27.38-.79,2.06,2.76,5.38.34,9.16.82,17.2-6,33.24,2,50.44-3.84,7.49,2.28,11.42.17,18.48-.8,5.06.17,10.12.5,15.2.83,8.24-5,16.34,2.94,27.28.68,4.74.32,9.17.66,13.61.82,6.38-.48,15.79-3.71,16.89-.79,5.74-.32,7.06,3.9,15.1,2.44,8.71-2.1,20.66-.3,26.23-3,10.64,2.77,31-2.56,42.5,1.5,9.07-2.91,24.52-1,36.62-1.42h7.62c-.42,1.78,3.74,1.47,6,1.47,2.22-.16,5,.65,6.39-.8-.23-1.31,4.17-.49,8.75,2.43,0,.17,0,.49,0,.81-2.6,1-4.89,2-7.81,3.08,4,2.27,7.16,2.28,10.56,3.9.68-.81,1-1.62,1.73-2.43,2.59-.64,5.17-1.45,7.78-2.26l5.84,3.08c7.83,1.79,4-3.07,9.44-3.88,4.38,1.3,9.06,2.6,13.43,3.9,10.24-1.12,18.28,2.46,27.32,0a29.45,29.45,0,0,1,2.94,3.89c3.19-.16,6.07-.48,9.27-.81,5.07.33,10.13.66,15.2.83,3-2.43,12-3.39,12.07,0l15.26,0c3.25-1.29,6.19-2.59,9.45-3.88-2.06-2.92,4.73-4.7,9.44-3.89.9,1,1.78,2.11,2.68,3.09,2.25-.49,4.18-1,6.44-1.46,1.85.81,4,1.47,5.89,2.28h15.25A55.4,55.4,0,0,0,880,59.35c.06-1.14.12-2.11.18-3.09,2.3-1.13,4.26-2.1,6.24-3.23,8.3-.64,14.23,1.15,21.5,1.64,10.08,1.63,6,5.52,7.16,7.8h7.63a53.15,53.15,0,0,0,4.16,4.7C927.61,70.26,920.61,70.41,914.59,70.24Z" transform="translate(-0.08)"/><path class="cls-3" d="M873.75,10.22c-6.15,1.94-9.3,1.29-12-.66C866.92,7.62,874,5.84,873.75,10.22Z" transform="translate(-0.08)"/><path class="cls-3" d="M842.16,28.18c-1.32.81-2.95,1.46-4.59,2.27-12-1.15-22.39,2.41-34.94,0-5.1,5.51,3.75,6.33.69,9.41-1.73,2.43-5.76.64-9,2.26l0,.81c-3.44,4.38-3.52,5.67-3.6,7-3.53.49-7,1-10.9,1.61-2.76-1.62-5.85-3.08-8.61-4.71,1.82-3.72,9-1.44,9.18-4.69,2.26-.48,4.19-1,6.45-1.45-9.94-3.9-19.21-2.93-27.45-3.27l-5.85-3.08a31,31,0,0,1,3.36-3.08c1.93-.32,4.17-.49,6.09-.8,6.05-.16,12.11-.48,18.16-.8,2.87-.16,5.12-.48,7.67-.64,1.35-1.62,2.42-3.24,3.46-4.7,3.23-.81,6.13-1.61,9.35-2.42,3.47.65,6.93,1.14,10.39,1.63,5,.65,8.33-1,12.49-1.61h2.86c5,.64,10.42,1.14,15.16,1.63Z" transform="translate(-0.08)"/><path class="cls-3" d="M928.2,18.86c-7,.8-14.08,1.62-21.44,2.41l-16.93,1.45H887c-1.5-1.46-3-3.08-4.48-4.71-7-.65-3.72,3.57-7.92,4.7-5.42.31-11.14.48-16.89.79-2.52-.32-4.73-.49-7.57-.81-1.18-1.46-2.67-3.08-4.16-4.71-7.3-.17-15.87-.34-18.67,3.88h-2.86c-4.16.64-7.44,2.26-12.49,1.61-3.46-.49-6.92-1-10.39-1.63-3.22.81-6.12,1.61-9.35,2.42H781.4c-2.31,1.3-2.47,4.05-.33,5.35-6.05.32-12.11.64-18.16.8.15-2.6.32-5.19.47-7.79-11.43-5.36-25.78.79-41.16-2.31-16.36-2.61-30.3,1.91-44.06-1.66,24-2.89,48-.93,65.68-3.83l-.05.81c10.87-1,22.46,1.64,35.22.85,7.06-1.13,13.2-2.91,15.2.82h7.62a20.47,20.47,0,0,1,2.91-.81c3.81.17,7.28.5,10.76.82.08-1.46.16-2.59.24-3.89C824.4,12,827,10.82,829.64,9.53c10.8,0,21.28,0,32.08,0,2.73,1.95,5.88,2.6,12,.66,21.53,1.31,42.74,2.63,64,3.95C934.42,15.79,931.46,17.41,928.2,18.86Z" transform="translate(-0.08)"/><path class="cls-3" d="M829.64,9.53C827,10.82,824.4,12,815.74,13.4c-.08,1.3-.16,2.43-.24,3.89-3.48-.32-7-.65-10.76-.82a20.47,20.47,0,0,0-2.91.81h-7.62c-2-3.73-8.14-1.95-15.2-.82-12.76.79-24.35-1.81-35.22-.85l.05-.81c-17.65,2.9-41.68.94-65.68,3.83,13.76,3.57,27.7-.95,44.06,1.66,15.38,3.1,29.73-3.05,41.16,2.31-.15,2.6-.32,5.19-.47,7.79-1.92.31-4.16.48-6.09.8-2.49-.81-5-1.63-7.49-2.28-4.75-.33-1.72,2.27-4.94,3.08l-12.07,0-26.06,0c-4.53,1.3-11.15.48-16.89.79-2.82-.65-6-1.14-8.79-1.63-7.81-2.27-11.29-2.6-13.88-1.63-2.82-.65-6-1.46-8.76-2.28-2.26.49-4.19,1-6.46,1.62-3.45-.66-6.92-1.14-10.39-1.64-4.17.81-8.35,1.62-12.52,2.26-3.81-.17-7.91-.5-12-.66h-7.63c-4.16-4.71-5.87,2.26-15.25,0A7.62,7.62,0,0,1,592,30.21c-5.9,2.91-13.72.95-18.21,1.6-3.13-.81-5.94-1.63-9.06-2.44-3.16-.16-6-.49-9.18-.66-4.48.49-9.27,1-13.75,1.45-.63,0-.95,0-1.58,0-5.71-.17-11.09-.5-16.79-.83-10.16-.34-10.93,1.93-16.72,3.22-8.8-1.62-10.52.49-14,.64-8.49-1.47-11-1.47-13.58-1.47l-21.28,0c-1.95.81-3.63,2.27-6.18,2.26h-3.17c-2.85-.17-6-.49-9.17-.82-3.77-.65-11-2.6-16.48-.67-6.33-.33-12.35-.66-18.38-.82-6.74,1.12-11.52,1.28-18.56,2.25-4.48.48-8.95,1-13.76,1.61-14.54-1.32-17.88,1.44-27.41,1.43l-15.4,2.42c-4.8.47-9.28,1-13.75,1.44-1.86-.81-5.75.48-9.22,0-18.3-2.12-27.9-.83-36.64,1.59-5.1.48-10.54,1-15.34,1.6h-9.21C237,42,236,43.32,232.75,44c0,.49-.07,1-.09,1.46H219a8,8,0,0,1-1.63.8c-2.84-.32-6-.48-8.85-.81-1.29.32-2.25.48-3.23.8-3.5.16-7.34.49-10.84.8-1.89-.32-4.11-.65-6-.81-2.87.16-6.06.48-9.26.79h-18.1c8.06-1.94,13-5.5,18.25-2.41,3.19-.16,6.38-.48,9.25-.64a47.36,47.36,0,0,1,18.48-.79l3.1-3.89h6.34c1.19-3.73,5.59-2.92,9.1-3.08a33.33,33.33,0,0,0,3.32-2.42c3.53-.49,7.05-1,10.89-1.45,2.8,1,4.54,3.73,8.71,3.09,1.17-3.57-2.2-10.87,9.84-10.21,12,.82,24.86-1.43,38.12,0,3.92-1.78,6.59-3.89,13.85-3.07-.43,2,3.71,1.62,6.25,1.63,7.32-.16,8.73-2.42,16.62-1.61,1.25.33,2.2.49,3.14.82,4.9-2.43,4.33-3.4,7.85-3.89C337,17,336,18.45,333.44,18.28h-2.86c-3.15-.49-6-1-9.13-1.47h9.22c1.08-2,2.13-3.73,3.2-5.51h4.76A124.29,124.29,0,0,1,356.46,16h3.17c3.25-1.13,6.16-2.1,9.4-3.08,1,.17,1.87.5,2.82.66l7.71-1.45h9.22a7.85,7.85,0,0,1,1.64-.82l9.21,0c2.51.49,5,1,7.53,1.62l-.28,4.54a23.89,23.89,0,0,0,2.75,1.63h1.6c5.18-1.62,10.36-3.07,15.53-4.68a6.36,6.36,0,0,0-1.5-1.47c6.35.17,12.37.5,18.39.67,3.22-.65,6.12-1.45,9.36-2.27,5.37.5,11.06,1,16.73,1.65,11.57-2.1,19.89-3.07,25.79-.79,5.71.17,11.09.5,16.8.83h4.43c2.25-.32,4.18-.65,6.42-.8,2.5.49,4.7,1,7.53,1.46,2.29-1.13,4.9-2.26,6.26-3.89,4.44.34,9.18.67,13.63.83L598,9.3c5.1-.32,8.44-2.91,13.86-3.23h3.18c2.81.82,5.93,1.63,8.74,2.44l21.29,0c4.78-.32,9.26-.64,14-.79h6q57.17.3,114.32.92c8,4.06,6.63.82,9.22,0,8.87.5,18,1,27.23,1.49C820.39,10,825.17,9.68,829.64,9.53Z" transform="translate(-0.08)"/><path class="cls-3" d="M788.74,28.94c-2.55.16-4.8.48-7.67.64-2.14-1.3-2-4,.33-5.35h10.8C791.16,25.7,790.09,27.32,788.74,28.94Z" transform="translate(-0.08)"/><path class="cls-3" d="M880,59.35a55.4,55.4,0,0,1-12.22,2.26H852.51a15.72,15.72,0,0,0-1.68,1.62,50.47,50.47,0,0,1-4.21-3.9c-2.26.49-4.19,1-6.44,1.46-.9-1-1.78-2.12-2.68-3.09-4.71-.81-11.5,1-9.44,3.89-3.26,1.29-6.2,2.59-9.45,3.88l-15.26,0c-.11-3.4-9.06-2.44-12.07,0-5.07-.17-10.13-.5-15.2-.83-3.2.33-6.08.65-9.27.81a29.45,29.45,0,0,0-2.94-3.89c-9,2.42-17.08-1.16-27.32,0-4.37-1.3-9-2.6-13.43-3.9-5.44.81-1.61,5.67-9.44,3.88l-5.84-3.08c-2.61.81-5.19,1.62-7.78,2.26-.68.81-1,1.62-1.73,2.43-1,.16-1.93.49-3.23.81a83.78,83.78,0,0,0-7.33-4.71c2.93-1.3,5.23-2.59,7.85-3.89-4.58-2.92-9-3.74-8.75-2.43-1.35,1.45-4.17.64-6.39.8-2.22,0-6.38.31-6-1.47H666.9c-12.1.47-27.55-1.49-36.62,1.42-11.51-4.06-31.86,1.27-42.5-1.5-5.57,2.75-17.52.95-26.23,3-8,1.46-9.36-2.76-15.1-2.44-1.1-2.92-10.51.31-16.89.79-4.44-.16-8.87-.5-13.61-.82-10.94,2.26-19-5.7-27.28-.68-5.08-.33-10.14-.66-15.2-.83-7.06,1-11,3.08-18.48.8-17.2,5.82-33.24-2.14-50.44,3.84-3.78-.48-7.1,1.94-9.16-.82-9.23.16-18.47.48-27.38.79-1.42,2.59-6.85,3.07-15.34,1.44-10.25-3.74-12,3.39-21.78,3.06-9.06,2.58-18-1.8-29.16,3.87,3.12,1.13,5.91,2.1,9,3.24h3.18c3.33-2.59,10.91-1.78,13.52,2.28-3.5.16-7.33.48-10.85.8-4.5.81-9.29,1.45-13.79,2.25,0-.48.05-1,.07-1.45-4.42-.33-9.17-.66-13.6-.83l-.09,1.46h-4.77c-2.87.32-6.07.64-8.95.8-1.27,0-2.22,0-3.17,0-4.1-.5-8.2-1-12-1.47A22.06,22.06,0,0,0,257,74.3h-3.18c-8.85-.66-18-1.15-27.22-1.65l-3.28,1.62c-1.88-.33-4.09-.65-6-.82,0-.81.1-1.62.14-2.26-1.84-1.14-4-2.12-5.85-3.26,1.65-1,3.31-2.1,4.64-3.07,9.31-1.61,18.8-6,28.06-6.94,3.32,2.92,8.2,1,16.75,1.64l.1-1.63c8-.48,16.26-1,24.24-1.59,5.34,1.14,3.94-2.11,6.55-3.08h7.62c6.44-1.45,14.48-3.07,20-4.69,35.55.85,64.27-1.23,97.79-3.79,8.6-.32,8.65,3.9,21.29,0,3.49-.16,7.33-.48,10.83-.64,12.6,1.8,20.29.83,25.87,3.11,8.64-1.13,6.28-4.05,9.13-3.88h6.35c8.49,1.46,10.52-.49,13.72-.8,8.46,1.79,9.55-.32,12.08,0h1.58l18.42,0H541c4.4.82,9.12,1.63,13.53,2.29,6.05-.16,12.42-.48,18.46-.63h7.63l0,.65c15.78,1.8,37.5-.13,50.1,1.67,8.07-2.1,17.81-.31,24.51-.78,2,2.91,7.89,1,11.93,2.43,3.17.18,6,.5,9.17.66,10.13.66,23.59-1.27,30.35,2.46,5.16-1.12,10.3-2.09,15.44-3.06.92.65,1.82,1.46,3,2.27h7.63c.25,1-1.43,2.59,1.08,3.08,7.65-.31,10.28-1.77,15.53-4.69,3.14.66,6.29,1.14,9.12,1.64,2.57-.32,5.11-.49,7.67-.81,1.65-1,3.31-2.1,5-3.08,2.76,1.63,5.85,3.09,8.61,4.71,3.85-.64,7.37-1.12,10.9-1.61,3.5-.16,7.34-.47,10.85-.8h15.25c1.86.81,4,1.62,5.89,2.44,7.64-.32,15.43-2.9,22.87,0,7,.17,14.27.5,21.24.83,5.39.17,8.4,2.93,13.42,3.9C880.1,57.24,880,58.21,880,59.35Z" transform="translate(-0.08)"/><path class="cls-3" d="M780.31,42.06c-2.53-.16-4.74-.49-7.57-.82-5-1-5.83,1.62-7.83,3.24-2.84-.33-6-.66-8.85-.82-2.28,1-4.25,2.11-6.54,3.08L749.38,49c-5.25,2.92-7.88,4.38-15.53,4.69-2.51-.49-.83-2.11-1.08-3.08h-7.63c-1.22-.81-2.12-1.62-3-2.27-5.14,1-10.28,1.94-15.44,3.06-6.76-3.73-20.22-1.8-30.35-2.46-3.17-.16-6-.48-9.17-.66-4-1.46-9.88.48-11.93-2.43-6.7.47-16.44-1.32-24.51.78-12.6-1.8-34.32.13-50.1-1.67l0-.65H573c-6,.15-12.41.47-18.46.63-4.41-.66-9.13-1.47-13.53-2.29h-4.45l-18.42,0h-1.58c-2.53-.33-3.62,1.78-12.08,0-3.2.31-5.23,2.26-13.72.8h-6.35c-2.85-.17-.49,2.75-9.13,3.88C469.71,45,462,46,449.42,44.17c-3.5.16-7.34.48-10.83.64-12.64,3.88-12.69-.34-21.29,0-33.52,2.56-62.24,4.64-97.79,3.79-5.49,1.62-13.53,3.24-20,4.69h-7.62c-2.61,1-1.21,4.22-6.55,3.08-8,.64-16.27,1.11-24.24,1.59l-.1,1.63c-8.55-.67-13.43,1.28-16.75-1.64-9.26,1-18.75,5.33-28.06,6.94-1.33,1-3,2.1-4.64,3.07,1.85,1.14,4,2.12,5.85,3.26,0,.64-.1,1.45-.14,2.26-2.87.16-6.07.49-9.27.81-2,1.61-4.4,4.53-10.72,3.88-4.74-.33-9.17-.67-13.62-.83h-3.17c-2.52-.33-5-.49-7.57-.82-9.62,1.29-17.38,3.72-29.15,3.86-8.28.32-16.55.48-24.52.79h-1.58l.14-2.27c3.21-.65,6.1-1.13,9.31-1.61,0-.81,4.84-1.29,3.36-3.08-11.48.8-13.37-4.71-22.68-3.1-2.24.16-4.16.48-6.4.64l-15-3.91,20.1-1.44c13.73-1,30-1.75,42.53.85,7.9.66,9.16-4.36,15.48-3.87,9-2.42,18.09-4.85,28-6.29,1.35-1.3,3-2.59,4.68-3.9,3.51-.15,7-.47,10.86-.79h1.27l12.15,3.9c1.69-1.78,3.08-3.56,4.78-5.35-2.82-.81-5.94-1.62-9.07-2.43,0-.65.09-1.46.14-2.28a8,8,0,0,0,1.63-.8h13.67c3.47.33,7.28.49,10.76.82A7.58,7.58,0,0,1,245.14,44h9.21c4.8-.64,10.24-1.12,15.34-1.6,8.74-2.42,18.34-3.71,36.64-1.59,3.47.49,7.36-.8,9.22,0,4.47-.48,8.95-1,13.75-1.44,5.07.16,10.13.49,15.2.82,9.26-.8,18.2-1.6,27.47-2.41,2.52.33,5.06.5,7.57.82,4.09.82,6.12-1.29,9.32-1.61,11.12-.15,22.27-.46,33.71-.62,8.62-.63,17.23-1.11,25.84-1.59l0-.81h3.17c2.83.5,6,1,9.13,1.63,6.05-.32,13,.66,18.15-.79L482,36.43c3.54-.82,7.09-1.62,10.63-2.43,2.52.33,5.05.49,7.57.82,2.28-.81,3.65-2.43,6.5-2.27,2.5.49,4.7,1,7.53,1.47,2.84.33,5.11-.32,7.67-.8,4.76.33,10.13.66,15.21.82l8.9,0c0-.5,0-1,.09-1.47,3.18-.32,6.39-.64,9.26-.8l-.05.81c3.19-.32,6.07-.64,9.27-.8h9.2c4.49-.65,12.31,1.31,18.21-1.6,3.45.82,7.2,1.62,10.65,2.44,3.91-1.46,9.85,0,13.77-1.61l5.84,3.09c2.28-.81,4.22-1.45,6.18-2.27,4.76.17,9.19.5,13.93.83l0-.81h8.9l15.25,0c0,.49-.06,1-.1,1.46-8.77,3.23-15.75,3.22-24.33,3.22L642,38c13.52,2.28,25.1,0,30.35,2.46,12.33.82,32.3,1.82,45.8-.77L724,42.82c1.6-.32,2.88-.49,4.5-.81,3.15.33,6,.49,9.15.82.06-1,.14-2.1.2-3.08L749,34.25c-1.54-.81-3.09-1.46-4.62-2.27,3.22-.81.19-3.41,4.94-3.08,2.51.65,5,1.47,7.49,2.28a31,31,0,0,0-3.36,3.08l5.85,3.08c8.24.34,17.51-.63,27.45,3.27C784.5,41.1,782.57,41.58,780.31,42.06Z" transform="translate(-0.08)"/><path class="cls-3" d="M766.17,49.83c-2.56.32-5.1.49-7.67.81-2.83-.5-6-1-9.12-1.64l.14-2.26c2.29-1,4.26-2.11,6.54-3.08,2.85.16,6,.49,8.85.82,2.19.65,4,1.46,6.22,2.27C769.48,47.73,767.82,48.86,766.17,49.83Z" transform="translate(-0.08)"/><path class="cls-3" d="M283.67,11.26c-1.92.16-4.16.48-6.09.81-6-.33-12.35-.66-18.38-.83L259.34,9,245.68,9a13.92,13.92,0,0,0-3.08-1.62c3.36-3.08,12.27-3.07,16.88-.79.69-.81,1-1.46,1.73-2.27,7.62.17,15.22.5,22.83.83,5.71.17,11.09.5,16.79.67a24,24,0,0,0,1.31,4.7C295.77,10.79,289.73,11,283.67,11.26Z" transform="translate(-0.08)"/><path class="cls-3" d="M79.69,78.83c2.12,7-21.58-.18-15.8,9.23.55,1.29.79,2.59,1.35,3.89L65.05,95c-3.18,0-6,0-9.21,0-1,1.13-2,2.1-3.06,3.23-4.19,1-8.38,1.94-12.58,3.07-4.21-3.89-4.11-5.52-4-7,2.58-.66,5.16-1.14,7.73-1.62a33.16,33.16,0,0,1-1.26-5.51l0-.65c.08-1.46.15-2.59.24-3.89H32.12c-.26-.81-.85-1.63-1.12-2.44a52.43,52.43,0,0,1-2.8-6.16c5.1-.32,10.21-.64,15.3-.79h1.59l-.24,3.89c1.56.49,2.8,1,4.35,1.63,4.2-1.13,8.39-2.1,12.58-3.23a52.53,52.53,0,0,1-2.74-7c0-.17,0-.49.05-.81a21,21,0,0,1,1.82-3.89c-1.55-.65-3.09-1.47-4.63-2.27-.21-1.63-.76-3.09-1-4.71l.05-.81c2.88-.48,6.09-1,9-1.45,5.73-.15,7.75,3.25,8.89,5.36L73,63.91c.59.81.86,1.62,1.44,2.43-1.66,1.3-3.33,2.6-4.68,3.89.26,1,.82,2.11,1.08,3.08a14.68,14.68,0,0,0-1.37,1.62C72.87,76.23,76.3,77.37,79.69,78.83Z" transform="translate(-0.08)"/><path class="cls-3" d="M60.17,102.16l-7.39-3.9c1-1.13,2-2.1,3.06-3.23,3.18,0,6,0,9.21,0a28.24,28.24,0,0,0,3,3.24C65.09,99.57,62.8,100.7,60.17,102.16Z" transform="translate(-0.08)"/><path class="cls-3" d="M9.21,62.39c1.75,2.6,3.5,5.19,5.56,7.78,0,.49-.06,1-.09,1.46A11.82,11.82,0,0,0,13,74.07c.12,3.24.55,6.64,1,10.05,1.76,2.43,5.06,5.51-.33,5.51H8.82l.29-4.69C5.84,81.35-2.27,78.75,6.87,74.87-.2,70.81-3.62,64.48,6,62.38c1.76-2.91,3.52-5.66,5-8.58h4.76a24.88,24.88,0,0,1,2.76,1.63C15.54,57.69,12.22,60,9.21,62.39Z" transform="translate(-0.08)"/><path class="cls-3" d="M915.06,62.47c-1.13-2.28,2.92-6.17-7.16-7.8,5.1-.32,10.2-.47,15.3-.79,5,1.95,6.85,7.62-.51,8.59Z" transform="translate(-0.08)"/><path class="cls-3" d="M928,21.94c-1,1.62-2.11,3.24-3.15,4.7-16.2,5.17-7.09-3.57-18.33-1.48H898.9c-3.13-.81-5.94-1.62-9.07-2.43l16.93-1.45c7.36-.79,14.4-1.61,21.44-2.41Z" transform="translate(-0.08)"/><path class="cls-3" d="M874.58,22.7c-4.62,2.91-.2,8.43-10.86,6.32-4.37-1.47-3.91-3.74-6-5.53C863.44,23.18,869.16,23,874.58,22.7Z" transform="translate(-0.08)"/><path class="cls-3" d="M853.35,74.07c-2.54,0-5.09,0-7.53-1.63H836.6c-3.19.33-6.07.65-9.25.81A9.71,9.71,0,0,0,825.9,71c0-.33,0-.65,0-.82,3.5,0,7.31,0,10.8,0,2-.8,4.23-1.61,6.18-2.26A27.23,27.23,0,0,0,846,69.36c3.52-.16,7-.47,10.54-.79l1.54.81A65.63,65.63,0,0,0,853.35,74.07Z" transform="translate(-0.08)"/><path class="cls-3" d="M849.08,39.86c-10,2.58-16.34,2.26-18.12,0C840.63,37.58,846.06,37.1,849.08,39.86Z" transform="translate(-0.08)"/><path class="cls-3" d="M815.93,10.16c-9.18-.5-18.36-1-27.23-1.49l-3.08-1.61c-1.94.47-4.19,1-6.14,1.6q-57.16-.54-114.32-.92c1.05-1.62,2.09-3.08,3.14-4.7,11.08.67,21.81,2,30.56-.77C709.23,3.9,718.39-.31,729.49,0c.56,1.3-1.15,3.08,1.36,3.89,10.76.5,20.8-7.76,29-1.59,4.8-.64,9.31-1.45,14.12-2.25,3.46.49,6.93,1,10.39,1.63a31.34,31.34,0,0,1,3.09,1.46c3.47.33,6.95.49,10.43.82,5.71.17,14.87-4.2,16.79.83C817.57,4,820.49,3,824,3.19c-1.4,2.28,3.95,3.09,5.67,6.34C825.17,9.68,820.39,10,815.93,10.16Z" transform="translate(-0.08)"/><path class="cls-3" d="M757.27,70.9h-9.22l.15-2.43h9.21C757.36,69.28,757.32,70.09,757.27,70.9Z" transform="translate(-0.08)"/><path class="cls-3" d="M723.85,71.67c-4.89,2.11-8.75,2.92-9.2,0Z" transform="translate(-0.08)"/><path class="cls-3" d="M690.33,69.21C670,73.89,655,70.48,638.45,70.78c-19.86,2.58-48.08,1.58-68.69.75-1.49-1.46-5-.65-7.57-.82a7.72,7.72,0,0,0-1.63.81c-32.22,2.07-61.24-1.52-91.69,3-2.45-1.46-6.95-.65-10.44-.82-11.3,2.91-28.65,1-43,1.58-4.64,3.07-16.22.3-23,2.25C376,76.85,361.65,82,345,79.09c1.64-.8,3.39-3.4,9.49-4.69.11-1.62.2-3.08.29-4.71,8.29-.31,16.24-.46,24.51-.78A13.61,13.61,0,0,0,380.69,72c2.92-1,6.17-2.1,9.4-3.07,8.59-.15,17.19-.47,25.78-.79,4.73.66,11.35,1.47,15.34-1.44,3.17.16,6,.49,9.17.82,5.1-.32,10.2-.64,15.3-.8,4.47-.32,9.25-.63,13.7-.79H471c3.53-.48,7-1,10.9-1.61,3.5-.16,7-.48,10.52-.64,3.52-.32,7.34-.64,10.86-.8,3.48.16,6.95.49,10.43.82q15.24,0,30.5,0h24.46c2.81,1,8-.15,7.49,2.28,6.36-.15,13.31.66,20.11-1.6,6.7,4.87,27.45,3.11,37.67,2.47,16.51,0,28.19,1.16,47.29.85C684.36,68.24,687.18,68.72,690.33,69.21Z" transform="translate(-0.08)"/><path class="cls-3" d="M645.09,8.53l-21.29,0c-2.81-.81-5.93-1.62-8.74-2.44,3.1-4.05,12.09-.47,15.17-3.87,3.94-2.1,10.44.65,15.15,1.63h10.8c-.71,1.14,1.8,1.62,2.94,3.9C654.35,7.89,649.87,8.21,645.09,8.53Z" transform="translate(-0.08)"/><path class="cls-3" d="M550.6,10.71c-4.45-.16-9.19-.49-13.63-.83L532.3,8.42c-7.71,1.46-4.7,4.22-9.12,3.89-2.24.15-4.17.48-6.42.8h-4.43c-5.71-.33-11.09-.66-16.8-.83-5.9-2.28-14.22-1.31-25.79.79-5.67-.66-11.36-1.15-16.73-1.65-3.24.82-6.14,1.62-9.36,2.27-6-.17-12-.5-18.39-.67l-18.1,0c-2.51-.64-5-1.13-7.53-1.62l-9.21,0a7.85,7.85,0,0,0-1.64.82h-9.22c-2.76-1.63-5.85-3.09-8.61-4.71-3.77-.66-5.5,1.62-9.26.8H340.4a15.62,15.62,0,0,0-1.77,3.07h-4.76c-4.43-.49-8.84-1-13.57-1.63-5.74.32-11.16.63-16.89.79h-1.27a24,24,0,0,1-1.31-4.7c2.91-.65,6.14-1.46,9.36-2.27a33,33,0,0,1,8.85.82c3.53-.64,7.37-1.12,10.9-1.61,3.27-1.45,8-.47,12.13-.8h9.2c12.68.67,25.35,1.16,38,1.66,1-.32,1.93-.48,3.23-.8,5.05.49,10.1,1,15.15,1.63h6c7.81,2.27,11,2.44,13.57,1.47,2.55-.16,5.11-.48,7.66-.64,6.6,1.14,2.13-3.57,7.83-3.24,1.83,1.14,4,2.12,5.83,3.25,4.77,0,13.13,3.58,14-.79,3.75,1.13,11.06,1.14,15.26,0,5.66,1,6.64.33,13.75-1.61.71,4.06,2.62,3.9,7.58.82,11.28,2.6,24,1.64,33.31.84,4.41.49,11,1.64,12.44-.79,12.41-.32,20.29.66,32.14-.78-3.25-4.07,8.07-2.1,10.57-1.45,5.12,4.7,18.1.17,24.19,4.56C606.46,6.39,603.12,9,598,9.3Z" transform="translate(-0.08)"/><path class="cls-3" d="M334.47,79.73c-6.47,1.78-17.64,2.58-21.29,0C316.82,77.28,323.1,78.58,334.47,79.73Z" transform="translate(-0.08)"/><path class="cls-3" d="M291.48,81.31c-4.57,1.94-13.47,1.93-16.58.79C274.72,79.83,281.1,79.51,291.48,81.31Z" transform="translate(-0.08)"/><path class="cls-3" d="M268.55,82.1a27.46,27.46,0,0,1-15.34,1.44H241.14c1.31-.64,3.06-3.24,12.16-1.45Z" transform="translate(-0.08)"/><path class="cls-3" d="M229.06,83.52c-6.5,2.42-10.94,2.42-15.34,1.61-4.16.47-8.32,1-12.49,1.6l-13.76,1.45c-9.19-.17-14.17,3.23-26.23,3-4.49.65-9,1.13-13.76,1.61-3.82.16-6.28-1.3-10.39-1.63,1-1,2-2.11,3-3.08h9.21c4.1.49,7.89,1,12,1.64,1.35-1.14,2.36-2.11,3.37-3.08,2.51.49,7.23,1.3,9.31-1.62h2.86c3.47.49,9.45,1.47,12.49-1.61h2.86c3.14.66,6.29,1.14,9.12,1.63,5.42-.32,3.95-2.26,12.49-1.61Z" transform="translate(-0.08)"/><path class="cls-3" d="M110.94,92.81c-.36,6-11,3.07-17,3.06-5.28,3.08-16.62,1.44-17.18,5.5-5.43.48-5.35-.82-8.71-3.09a28.24,28.24,0,0,1-3-3.24c6.71-.65,13.44-1.46,19.84-2.26h4.77c.31,0,1,0,1.58,0,1.29-.33,2.89-.49,4.5-.81C100.81,92.31,105.88,92.48,110.94,92.81Z" transform="translate(-0.08)"/><path class="cls-3" d="M60.17,102.16c.84,1.78,2.3,3.89-.23,3.89-1.42,2.27-3.69,3.24-6.64,4.53-5-1.62-6.06-4.87-13.15-8.44-1,1.46-2.09,3.08-3.13,4.54-1-5.19-14.47-2.45-14.93-5.36l.1-1.63c-2.74-2-6.74-4.06-8.89-5.36.1-1.62.2-3.24.3-4.7,5.39,0,2.09-3.08.33-5.51-.43-3.41-.86-6.81-1-10.05a11.82,11.82,0,0,1,1.73-2.44c4.41.82,9.12,1.64,13.52,2.45A52.43,52.43,0,0,0,31,80.24c.27.81.86,1.63,1.12,2.44,1.51,1.46,3,3.08,4.49,4.54-.15,2.43-.28,4.7-.43,7.14-.09,1.45-.19,3.08,4,7,4.2-1.13,8.39-2.1,12.58-3.07Z" transform="translate(-0.08)"/><path class="cls-3" d="M19.52,39.05c-1.72,2.27-3.39,3.57-6.21,3.08C7.36,40.66,7.18,38.39,7.64,36c3.59-1.62,8.94-.64,12,.66C19.59,37.92,19.57,38.41,19.52,39.05Z" transform="translate(-0.08)"/><path class="cls-3" d="M887,22.71c-3,1.78-12.24,2.58-12.4,0,4.2-1.13,1-5.35,7.92-4.7C884,19.63,885.48,21.25,887,22.71Z" transform="translate(-0.08)"/><path class="cls-3" d="M850.12,22.68c-1.09,2.26-5.48,1.29-7.67.8-4.74-.49-10.12-1-15.16-1.63,2.8-4.22,11.37-4.05,18.67-3.88C847.45,19.6,848.94,21.22,850.12,22.68Z" transform="translate(-0.08)"/><path class="cls-3" d="M183.68,77.31c4.45.16,8.88.5,13.62.83,6.32.65,8.71-2.27,10.72-3.88-2,1.61-4.4,4.53-10.72,3.88C192.56,77.81,188.13,77.47,183.68,77.31Z" transform="translate(-0.08)"/><path class="cls-3" d="M180.38,79.58c-3.52.32-7.91-.66-11,3.23-1.94.48-4.19,1-6.12,1.45-3.52.33-7,.48-10.54.8-3.15-.49-6.3-1-9.12-1.63-3.26,1.46-8.3.64-12.53,2.42H120.58c.41-1.62-.13-3.07-2.89-4.7h1.58c8-.31,16.24-.47,24.52-.79,11.77-.14,19.53-2.57,29.15-3.86,2.52.33,5.05.49,7.57.82C180.46,78.12,180.42,78.93,180.38,79.58Z" transform="translate(-0.08)"/><path class="cls-3" d="M65.05,95,65.24,92c4.18-.8,8-1.45,12.21-2.26s5,1.46,7.44,3.09C78.49,93.58,71.76,94.39,65.05,95Z" transform="translate(-0.08)"/><path class="cls-3" d="M969.64,16.63c-5.71,5-16.35,2.26-24.65,3.06a34.55,34.55,0,0,0-1.26-5.52C952.58,15,961.1,15.81,969.64,16.63Z" transform="translate(-0.08)"/><path class="cls-3" d="M788.7,8.67c-2.59.81-1.2,4.05-9.22,0,1.95-.64,4.2-1.13,6.14-1.6Z" transform="translate(-0.08)"/><path class="cls-3" d="M749,34.25l-11.13,5.5c-.06,1-.14,2.11-.2,3.08-3.15-.33-6-.49-9.15-.82-1.62.32-2.9.49-4.5.81l-5.85-3.09c-13.5,2.59-33.47,1.59-45.8.77-5.25-2.44-16.83-.18-30.35-2.46l.09-1.46c8.58,0,15.56,0,24.33-3.22,0-.49.06-1,.1-1.46l-15.25,0h-8.9l0,.81c-4.74-.33-9.17-.66-13.93-.83-2,.82-3.9,1.46-6.18,2.27L616.4,31c-3.92,1.62-9.86.15-13.77,1.61-3.45-.82-7.2-1.62-10.65-2.44a7.62,7.62,0,0,0,1.68-1.46c9.38,2.28,11.09-4.69,15.25,0h7.63c4.12.16,8.22.49,12,.66,4.17-.64,8.35-1.45,12.52-2.26,3.47.5,6.94,1,10.39,1.64,2.27-.65,4.2-1.13,6.46-1.62,2.8.82,5.94,1.63,8.76,2.28,2.59-1,6.07-.64,13.88,1.63-1.65.82-3.28,1.62-4.91,2.27,8.75,2.44,10.21-.8,13.7-.64,5.74-.31,12.36.51,16.89-.79l26.06,0,12.07,0C745.92,32.79,747.47,33.44,749,34.25Z" transform="translate(-0.08)"/><path class="cls-3" d="M564.57,31.8c-3.2.16-6.08.48-9.27.8l.05-.81c-2.87.16-6.08.48-9.26.8,0,.49-.06,1-.09,1.47l-8.9,0c-5.08-.16-10.45-.49-15.21-.82-2.56.48-4.83,1.13-7.67.8-2.83-.49-5-1-7.53-1.47,5.79-1.29,6.56-3.56,16.72-3.22,5.7.33,11.08.66,16.79.83.63,0,.95,0,1.58,0,4.48-.48,9.27-1,13.75-1.45,3.17.17,6,.5,9.18.66,3.12.81,5.93,1.63,9.06,2.44Z" transform="translate(-0.08)"/><path class="cls-3" d="M537,9.88c-1.36,1.63-4,2.76-6.26,3.89-2.83-.49-5-1-7.53-1.46,4.42.33,1.41-2.43,9.12-3.89Z" transform="translate(-0.08)"/><path class="cls-3" d="M448.41,34.77c-8.61.48-17.22,1-25.84,1.59-11.44.16-22.59.47-33.71.62-3.2.32-5.23,2.43-9.32,1.61-2.51-.32-5.05-.49-7.57-.82-9.27.81-18.21,1.61-27.47,2.41-5.07-.33-10.13-.66-15.2-.82l15.4-2.42c9.53,0,12.87-2.75,27.41-1.43,4.81-.65,9.28-1.13,13.76-1.61,7-1,11.82-1.13,18.56-2.25,6,.16,12.05.49,18.38.82,5.52-1.93,12.71,0,16.48.67,3.16.33,6.32.65,9.17.82Z" transform="translate(-0.08)"/><path class="cls-3" d="M371.85,13.62c-1-.16-1.87-.49-2.82-.66-3.24,1-6.15,1.95-9.4,3.08h-3.17a124.29,124.29,0,0,0-17.83-4.73,15.62,15.62,0,0,1,1.77-3.07h21.29c3.76.82,5.49-1.46,9.26-.8,2.76,1.62,5.85,3.08,8.61,4.71Z" transform="translate(-0.08)"/><path class="cls-3" d="M336.34,23h-3.19c0-.33,0-.49.05-.82-7.89-.81-9.3,1.45-16.62,1.61-2.54,0-6.68.32-6.25-1.63-7.26-.82-9.93,1.29-13.85,3.07-13.26-1.47-26.11.78-38.12,0-12-.66-8.67,6.64-9.84,10.21-4.17.64-5.91-2.12-8.71-3.09-3.84.48-7.36,1-10.89,1.45a33.33,33.33,0,0,1-3.32,2.42c-3.51.16-7.91-.65-9.1,3.08h-6.34l-3.1,3.89a47.36,47.36,0,0,0-18.48.79c-2.87.16-6.06.48-9.25.64-5.22-3.09-10.19.47-18.25,2.41H157.9c-1.49-1.62-2.68-3.08-4.17-4.71-5.75.48-11.17,1-16.94,1.61-3.23,1-6.15,1.93-9.39,3.07-2.87.16-6.07.48-9.26.8,0,.65-.09,1.46-.14,2.27-2,.49-4.2,1-6.14,1.62l-13.66,0c-3.64,2.27-7.59,4.53-11.23,7H82.52c-.71-4.06-2.62-3.89-4.21-3.9-2.92,1-1.46,3.09-1.87,4.71-1.35,1.29-4.58,2.1-3.22.64-1.14-2.11-3.16-5.51-8.89-5.36-2.89.48-6.1,1-9,1.45a36.25,36.25,0,0,0-10.72-1.47H33.83l.29-4.7c2.25-.49,4.18-1,6.45-1.62-.41-3.56-.84-7.13-.93-10.86l0-.81h6c5.06.32,10.13.65,15.2.82H73c2.28-.8,3.64-2.42,6.5-2.25h6c2.81.82,6,1.47,9.07,2.29,5.42-.16,12,.65,18.17-.8-.87-1.46-1.72-3.08-2.59-4.54-4.74-.33-9.17-.66-13.93-.83,3.63-2.1,11.2-1.28,11-3.87,5.73-.32,11.15-.65,16.88-.8,10.24-1.29,18-3.71,32.42-5.48-11.77.31-11.29-2.45-13.74-3.9A17.52,17.52,0,0,0,146.17,15c3.15.49,6,1,9.12,1.63l.34-5.51c2.56-.33,5.11-.49,7.67-.8a9.47,9.47,0,0,0,1.44,2.42c12.17-1.44,14.33,4.72,22.79,1.49,0-.16,0-.48.05-.82l12.07,0c4.16-.48,8-1,12.16-1.44a21.4,21.4,0,0,0,1.83-3.9l21.28,0c2.1,2.12,3.88,4.06,6,6.17-3.36,2.91-13.63-.66-14.23,3.88,2.18.81,4,1.62,6.22,2.44,3.18-.16,7,.32,9-1.62,15.31-.79,26.48-1.59,39.86-2.23l18.43,0c2.53.17,5.05.49,7.58.66,4.46-.16,9.25-.48,13.7-.64,3.16.5,6,1,9.13,1.47h2.86c2.53.17,3.57-1.29,10.75.82C340.67,19.59,341.24,20.56,336.34,23Z" transform="translate(-0.08)"/><path class="cls-3" d="M330.67,16.82h-9.22c-4.45.16-9.24.48-13.7.64l-4.53-3.9c-1,1.13-2,2.1-3.05,3.24l-18.43,0c-1.49-1.62-2.66-3.24-4.16-4.7,1.93-.33,4.17-.65,6.09-.81,6.06-.31,12.1-.47,18.47-.79h1.27c5.73-.16,11.15-.47,16.89-.79,4.73.65,9.14,1.14,13.57,1.63C332.8,13.09,331.75,14.87,330.67,16.82Z" transform="translate(-0.08)"/><path class="cls-3" d="M306.33,40.79c-18.3-2.12-27.9-.83-36.64,1.59C278.43,40,288,38.67,306.33,40.79Z" transform="translate(-0.08)"/><path class="cls-3" d="M226.68,18.18c.6-4.54,10.87-1,14.23-3.88-2.11-2.11-3.89-4.05-6-6.17,2.57-.32,5.13-.64,7.68-.8A13.92,13.92,0,0,1,245.68,9c-.08,1.3-.16,2.44-.23,3.89,7.57.82,8.75-2.9,13.75-1.6,6,.17,12.36.5,18.38.83,1.5,1.46,2.67,3.08,4.16,4.7-13.38.64-24.55,1.44-39.86,2.23-2,1.94-5.8,1.46-9,1.62C230.72,19.8,228.86,19,226.68,18.18Z" transform="translate(-0.08)"/><path class="cls-3" d="M259.2,11.24c-5-1.3-6.18,2.42-13.75,1.6.07-1.45.15-2.59.23-3.89l13.66,0Z" transform="translate(-0.08)"/><path class="cls-3" d="M243.42,46.24c-3.48-.33-7.29-.49-10.76-.82,0-.48.06-1,.09-1.46C236,43.32,237,42,245.14,44A7.58,7.58,0,0,0,243.42,46.24Z" transform="translate(-0.08)"/><path class="cls-3" d="M221.51,56.27l-12.15-3.9h-1.27c-3.84.32-7.35.64-10.86.79a37.15,37.15,0,0,1-3.41,3.9c-9,1.12-14.61,5-26,4.67,1.38,3.41-10.14-.49-7.86,3.89-18.74,5.17-36.31-3.77-55.06,1.57-3.51.15-8.23-.66-10.84.63,2.09,2.11,7.19,1.8,7.38,3.9,0,.81-.09,1.62-.14,2.43L89.11,75.6a26.27,26.27,0,0,1-4.3-2.27c.42-1.79,1.17-3.73,1.6-5.52,10.49-5.33,16.34-7.6,24.93-7.75,3.54-.65,7.4-1.46,11-2.26-3.47-.49-7.25-1-10.71-1.63l.28-4.54C113.8,51,116.05,50.5,118,50h9.2c3.18.16,6,.49,9.17.82,7.69-1,13.5-2.58,21.48-3.06,0-.32,0-.65.05-.81h21.28c3.2-.31,6.39-.63,9.26-.79,1.89.16,4.11.49,6,.81,3.5-.31,7.34-.64,10.84-.8,1-.32,1.94-.48,3.23-.8,2.83.33,6,.49,8.85.81-.05.82-.11,1.63-.14,2.28,3.13.81,6.25,1.62,9.07,2.43C224.59,52.71,223.2,54.49,221.51,56.27Z" transform="translate(-0.08)"/><path class="cls-3" d="M156.6,21.19c-14.41,1.77-22.18,4.19-32.42,5.48-5.73.15-11.15.48-16.88.8.15,2.59-7.42,1.77-11,3.87,4.76.17,9.19.5,13.93.83.87,1.46,1.72,3.08,2.59,4.54-6.13,1.45-12.75.64-18.17.8-3.12-.82-6.26-1.47-9.07-2.29h-6c-2.86-.17-4.22,1.45-6.5,2.25H64.11c1-1.46,2.09-3.08,3.14-4.7H56.77c0-.64.09-1.46.13-2.26.11-1.62.19-3.09.29-4.71-1.66-4.05-3.84-4.7-2.8-6.16,2-.65,4.2-1.12,6.14-1.61l4.53,3.89c6.67,0,13.62.66,18.24-2.25l.24-3.89h16.84c5.75-.64,11.19-1.12,16.93-1.6,4.54-1.45,9.3-1.45,13.75-1.44,5.13-.65,10.24-1.13,15.35-1.61h9.22l-.34,5.51c-3.14-.65-6-1.14-9.12-1.63a17.52,17.52,0,0,1-3.31,2.27C145.31,18.74,144.83,21.5,156.6,21.19Z" transform="translate(-0.08)"/><path class="cls-3" d="M83.54,15.77l-.24,3.89c-4.62,2.91-11.57,2.26-18.24,2.25L60.53,18c3.52-.49,7.36-1,10.88-1.46C73.09,15.11,79.4,15.93,83.54,15.77Z" transform="translate(-0.08)"/><path class="cls-3" d="M64.11,37.48H60.93c-5.07-.17-10.14-.5-15.2-.82,3.57-1.3,7.15-2.59,11-3.89H67.25C66.2,34.4,65.15,36,64.11,37.48Z" transform="translate(-0.08)"/><path class="cls-3" d="M57.19,25.79c-.1,1.62-.18,3.09-.29,4.71-3.76-.82-7.2-1.63-10.66-2.28A11.47,11.47,0,0,1,48,25.79c2-2.11,4.38-4.05,6.41-6.16C53.35,21.09,55.53,21.74,57.19,25.79Z" transform="translate(-0.08)"/><path class="cls-3" d="M39.64,37.45c-9.26.8-15.12,3.07-20.12,1.6.05-.64.07-1.13.16-2.43A30,30,0,0,0,23,33.54c5.66,1,11,2.12,16.65,3.1Z" transform="translate(-0.08)"/><path class="cls-3" d="M945,19.69c-4.18.81-8,1.61-12.21,2.26H928l.19-3.08c3.26-1.45,6.22-3.07,9.5-4.69h6A34.55,34.55,0,0,1,945,19.69Z" transform="translate(-0.08)"/><path class="cls-3" d="M689.37,32.73c-3.49-.16-5,3.08-13.7.64,1.63-.65,3.26-1.45,4.91-2.27C683.4,31.59,686.55,32.08,689.37,32.73Z" transform="translate(-0.08)"/><path class="cls-3" d="M105.62,81.12C98.89,81.93,93,84.36,90,87.27c-.11,1.78-.23,3.73-.33,5.52H84.89c-2.45-1.63-3.25-4-7.44-3.09s-8,1.46-12.21,2.26c-.56-1.3-.8-2.6-1.35-3.89-5.78-9.41,17.92-2.25,15.8-9.23-2.54.17-5.1.48-7.65.64,1.71-2.1-2.37-2.92-2.59-4.54a14.68,14.68,0,0,1,1.37-1.62h14a26.27,26.27,0,0,0,4.3,2.27c1.9,5.19,9.33,3.41,13.43,3.91A13.48,13.48,0,0,0,105.62,81.12Z" transform="translate(-0.08)"/><path class="cls-3" d="M56.77,32.76c-3.89,1.3-7.47,2.59-11,3.89H44.14c.8-2.76,1.3-5.68,2.1-8.43,3.46.65,6.9,1.46,10.66,2.28C56.86,31.3,56.81,32.12,56.77,32.76Z" transform="translate(-0.08)"/><path class="cls-3" d="M42.69,86.58l0,.65h-6c-1.5-1.46-3-3.08-4.49-4.54H42.93C42.84,84,42.77,85.12,42.69,86.58Z" transform="translate(-0.08)"/><path class="cls-3" d="M307.75,17.45c-2.53-.17-5.05-.49-7.58-.66,1-1.14,2-2.11,3.05-3.24Z" transform="translate(-0.08)"/><path class="cls-3" d="M211.81,12c-4.16.47-8,1-12.16,1.44l-12.07,0c0,.34,0,.66-.05.82-8.46,3.23-10.62-2.93-22.79-1.49a9.47,9.47,0,0,1-1.44-2.42c9.94-1.46,15.75-2.91,23-2.25l27.33,0A21.4,21.4,0,0,1,211.81,12Z" transform="translate(-0.08)"/><path class="cls-3" d="M186.29,34.51h-9.21c-2.17-1-4-2.11-5.85-3.08-15.43-2.12-23.75,4-36.9.77l.1-1.62c5.75-.48,11.18-1,16.93-1.6,9.62-1.29,23.55-.47,35.27,0Z" transform="translate(-0.08)"/><path class="cls-3" d="M157.85,47.78c-8,.48-13.79,2.09-21.48,3.06-3.16-.33-6-.66-9.17-.82H118c0-.81.09-1.62.14-2.27,3.19-.32,6.39-.64,9.26-.8,3.24-1.14,6.16-2.1,9.39-3.07,5.77-.64,11.19-1.13,16.94-1.61,1.49,1.63,2.68,3.09,4.17,4.71C157.88,47.13,157.87,47.46,157.85,47.78Z" transform="translate(-0.08)"/><path class="cls-3" d="M122.29,57.8c-5.91,3.07-8.45,3.07-11,2.26-8.59.15-14.44,2.42-24.93,7.75-4.1-.49-7.89-1-12-1.47-.58-.81-.85-1.62-1.44-2.43L73.22,60c-1.36,1.46,1.87.65,3.22-.64.41-1.62-1-3.73,1.87-4.71,1.59,0,3.5-.16,4.21,3.9H87c3.64-2.43,7.59-4.69,11.23-7l13.66,0-.28,4.54C115,56.82,118.82,57.31,122.29,57.8Z" transform="translate(-0.08)"/><path class="cls-3" d="M59.09,67.79H55.91c-3.6,1.78-7.22,3.73-10.82,5.5H43.5c-5.09.15-10.2.47-15.3.79-4.4-.81-9.11-1.63-13.52-2.45,0-.48.07-1,.09-1.46C12.71,67.58,11,65,9.21,62.39c3-2.43,6.33-4.7,9.32-7a24.88,24.88,0,0,0-2.76-1.63H11c-6.87-1.95-3.16-5.68-3.93-8.6l6.23-3.07c2.82.49,4.49-.81,6.21-3.08,5,1.47,10.86-.8,20.12-1.6.09,3.73.52,7.3.93,10.86-2.27.65-4.2,1.13-6.45,1.62l-.29,4.7h10.8a36.25,36.25,0,0,1,10.72,1.47l-.05.81c.22,1.62.77,3.08,1,4.71,1.54.8,3.08,1.62,4.63,2.27A21,21,0,0,0,59.09,67.79Z" transform="translate(-0.08)"/><path class="cls-3" d="M43.91,92.74c-2.57.48-5.15,1-7.73,1.62.15-2.44.28-4.71.43-7.14h6A33.16,33.16,0,0,0,43.91,92.74Z" transform="translate(-0.08)"/><path class="cls-3" d="M426.76,14.49c-5.17,1.61-10.35,3.06-15.53,4.68h-1.6a23.89,23.89,0,0,1-2.75-1.63l.28-4.54,18.1,0A6.36,6.36,0,0,1,426.76,14.49Z" transform="translate(-0.08)"/><path class="cls-3" d="M84.81,73.33h-14c-.26-1-.82-2.11-1.08-3.08,1.35-1.29,3-2.59,4.68-3.89,4.1.49,7.89,1,12,1.47C86,69.6,85.23,71.54,84.81,73.33Z" transform="translate(-0.08)"/><path class="cls-3" d="M52.38,78.81H49.2c-1.55-.65-2.79-1.14-4.35-1.63l.24-3.89c3.6-1.77,7.22-3.72,10.82-5.5h3.18c0,.32,0,.64-.05.81a52.53,52.53,0,0,0,2.74,7C58.54,76.7,55.31,77.68,52.38,78.81Z" transform="translate(-0.08)"/><path class="cls-3" d="M117.69,81.14c-2.6.81-5.18,1.62-7.77,2.26.54,1.78.73,3.73,1.25,5.51h-10.8C97.78,89.71,98,91,95.74,92c-1.61.32-3.21.48-4.5.81-.63,0-1.27,0-1.58,0,.1-1.79.22-3.74.33-5.52,3-2.91,8.9-5.34,15.63-6.15a13.48,13.48,0,0,1-3.08-1.61l-7.63,0c-5.8,1.3-6.56-1.78-5.8-3.89l12.17-1.45c0-.81.1-1.62.14-2.43,2.24-.16,4.16-.48,6.4-.64,9.31-1.61,11.2,3.9,22.68,3.1,1.48,1.79-3.31,2.27-3.36,3.08-3.21.48-6.1,1-9.31,1.61Z" transform="translate(-0.08)"/><path class="cls-3" d="M111.17,88.91c-.07,1.3-.15,2.6-.23,3.9-5.06-.33-10.13-.5-15.2-.83,2.28-1,2-2.27,4.63-3.08Z" transform="translate(-0.08)"/><path class="cls-3" d="M714.65,71.67h-9.22C708.28,71.82,706.25,68.74,714.65,71.67Z" transform="translate(-0.08)"/><path class="cls-3" d="M137.09,91.21c-6.19,2.59-17,3.39-26.15,1.6.08-1.3.16-2.6.23-3.9,5.72.17,11.1.5,16.8.83C130.8,90.23,134,90.72,137.09,91.21Z" transform="translate(-0.08)"/><path class="cls-3" d="M211.58,67.93a35,35,0,0,1-13.81,2.43C193.09,63.71,205.72,65.17,211.58,67.93Z" transform="translate(-0.08)"/><path class="cls-3" d="M771.13,46.75c-2.18-.81-4-1.62-6.22-2.27,2-1.62,2.8-4.21,7.83-3.24,2.83.33,5,.66,7.57.82C780.11,45.31,773,43,771.13,46.75Z" transform="translate(-0.08)"/><path class="cls-3" d="M506.69,32.55c-2.85-.16-4.22,1.46-6.5,2.27-2.52-.33-5.05-.49-7.57-.82-3.54.81-7.09,1.61-10.63,2.43l-3.08-1.63c-5.17,1.45-12.1.47-18.15.79-3.15-.65-6.3-1.13-9.13-1.63,2.55,0,4.23-1.45,6.18-2.26l21.28,0c2.55,0,5.09,0,13.58,1.47C496.17,33,497.89,30.93,506.69,32.55Z" transform="translate(-0.08)"/></g></g><g class="cls-2"><g class="cls-2"><path class="cls-3" d="M1044.88,117.81c-.43-1.79-3.45-2.62-2.34-4.72l10,.06C1052.63,115.74,1050.44,119.3,1044.88,117.81Z" transform="translate(-0.08)"/><path class="cls-3" d="M996.26,166.49c-4.61.14-9,.44-13.57.73-2.79-.34-5.84-.68-8.64-.85l-2.3,0c-4.07-.35-8.15-.53-12.21-.88l-8.69-.05-1.24-.81c-2.81.31-5.63.61-8.46.76a21.66,21.66,0,0,1-2.48-1.48c-1.57.64-3.38,1.44-4.95,2.24l-8.68,0c0,.17,0,.5,0,.82-6.9.12-13.81.41-20.72.69-11.46-.39-22.94-.78-34.42-1,0-.81.07-1.62.11-2.43l-7.4,0c0,.81-.08,1.63-.11,2.43-6.38.13-13,.42-19.44.7l-7.39,0c-6.76-2.95-5.12.14-7.4,0-2.77-.82-5.55-1.65-8.58-2.48l-3.57,0c-2.53-.5-4.8-1-7.34-1.5-15.33.24-24.72-.95-38-1-8.2.6-24.87,2.29-30.27-2.6-5.46,2.24-11,1.39-16.15,1.52.36-2.42-3.77-1.31-6-2.3l-4.85,0-7.39,0-7.41,0-24.5-.15c-2.8-.34-5.59-.68-8.39-.85-2.82.14-5.89.45-8.72.75s-5.63.46-8.44.61c-3.1.63-5.92,1.1-8.76,1.57h-1.28c-3.57.15-7.41.45-11,.75-4.1.14-8.19.44-12.29.74-2.54-.33-4.82-.67-7.37-.85-3.2,2.9-8.51,2.06-12.32,1.39-6.9.29-13.8.57-20.7.69-2.6,1-5.2,2.08-7.54,3a14.78,14.78,0,0,1-1.14-3.08c-6.65.28-13,.41-19.7.69-.06,1.63-.13,3.09-.2,4.71-4.91,1.26-6.3,3.85-7.61,4.66-2.81.14-5.64.45-8.45.6-9.14-1.19-14.19-2.52-17.1-.1-5.9.62-11.54,1.07-17.43,1.52-8.35-1.83-13.47-1.53-13.31.74l-5.1,0L465.05,176c-7.32-1.83-8.71.76-9.76,1.41l-9.7-.06-12.25-.07c-6.86-.69-5.67,1.26-10,1.57-2.27-.51-4.8-1-7.33-1.67h-2.3c-2.43,3.06-7.23,2.07-10,1.56h-2.3c-1.66,2.91-5.45,2.08-7.47,1.58-.81,1-1.62,1.94-2.69,3.07-3.29-.67-6.33-1.18-9.63-1.68l-7.4,0c-.81,1-1.62,2.1-2.44,3.07-2.52-.51-5.05-1-7.33-1.51-4.58-.35-8.9-.7-13.5-.88-.42-1.79-.59-3.74-1-5.52,2.08-.64,4.15-1.43,6.23-2.23h1.28a40.4,40.4,0,0,0,2.34,4.71l7.15,0c3.4-1.76,7.44-.93,10.06-2.37,2.27.67,4.8,1.16,7.33,1.66,2.82-.3,5.64-.45,8.46-.76,1.56-.48,3.36-1,4.92-1.43,2.46-3.88,6-2.88,8.82-3.19,0-.65.06-1.46.1-2.28l2.54,0c3.58.17,7.13.52,10.95.87,5.08.67,7-2.23,8.59-3.85,2.57-.31,5.14-.62,7.44-.77,1.53.17,3.3.51,4.81.84l2.63-1.61c7.38.54,14.76,1.06,21.87,1.75,1.85-1.12,3.42-2.09,5.25-3,3,.5,6.34,1,9.63,1.51,3.33-.14,6.41-.44,9.74-.75l3.83,0,.06-1.46c3.57.18,7.38.53,10.94.87,0,.49,0,1-.06,1.46,7.1,1,7-1.58,11.07-2.21,2.83-.31,5.9-.61,8.71-.76-2.11-4.06-8.2-4.91-10.87-2.33h-2.55c-2.5-1.15-4.75-2.14-7.26-3.28,8.94-5.63,16.14-1.21,23.41-3.77,7.89.37,9.23-6.75,17.48-3,6.83,1.65,11.19,1.19,12.32-1.4,7.16-.28,14.58-.56,22-.68,1.67,2.77,4.32.35,7.36.85,13.8-5.92,26.72,2.09,40.51-3.66,6,2.3,9.17.21,14.84-.73,4.07.18,8.14.53,12.22.88,6.6-5,13.14,3,21.91.77,3.82.34,7.38.69,11,.87,5.11-.45,12.66-3.65,13.55-.73,4.62-.3,5.7,3.92,12.15,2.5,7-2.07,16.6-.24,21.06-3,8.56,2.8,24.89-2.46,34.14,1.65,7.28-2.87,19.7-.86,29.42-1.3l6.13,0c-.34,1.78,3,1.48,4.78,1.49,1.79-.16,4.06.67,5.14-.78-.19-1.31,3.35-.47,7,2.46,0,.17,0,.49,0,.81-2.09,1-3.92,1.93-6.27,3,3.22,2.28,5.77,2.3,8.51,3.94.54-.81.84-1.62,1.38-2.42,2.07-.64,4.15-1.44,6.24-2.24,1.47,1,3.21,2.13,4.71,3.1,6.29,1.83,3.19-3,7.56-3.84,3.52,1.32,7.29,2.63,10.81,4,8.22-1.08,14.69,2.52,21.95.13a31.38,31.38,0,0,1,2.38,3.9c2.56-.15,4.87-.46,7.44-.77,4.07.34,8.14.69,12.21.88,2.41-2.42,9.59-3.35,9.7.05l12.26.07c2.6-1.28,5-2.56,7.57-3.84-1.66-2.93,3.78-4.68,7.57-3.85.73,1,1.44,2.11,2.16,3.09,1.81-.48,3.36-1,5.17-1.43,1.5.82,3.25,1.48,4.75,2.3l4.85,0,7.4.05a36.05,36.05,0,0,0,9.8-2.22c.05-1.13.09-2.11.14-3.08,1.84-1.12,3.41-2.09,5-3.21,6.67-.61,11.44,1.2,17.28,1.72,8.11,1.66,4.87,5.53,5.79,7.81l6.13,0a50.89,50.89,0,0,0,3.36,4.72C1006.72,166.55,1001.1,166.68,996.26,166.49Z" transform="translate(-0.08)"/><path class="cls-3" d="M963.18,106.33c-4.93,1.91-7.46,1.25-9.67-.71C957.68,103.7,963.38,102,963.18,106.33Z" transform="translate(-0.08)"/><path class="cls-3" d="M937.88,124.17c-1.06.8-2.36,1.45-3.67,2.26-9.65-1.2-18,2.32-28.08-.17-4.07,5.49,3,6.34.6,9.41-1.38,2.42-4.62.62-7.24,2.23,0,.32,0,.48,0,.81-2.75,4.36-2.8,5.66-2.86,6.95-2.83.47-5.66.94-8.75,1.57-2.23-1.63-4.71-3.1-6.94-4.74,1.45-3.72,7.21-1.41,7.36-4.65,1.81-.48,3.36-1,5.17-1.43-8-3.94-15.44-3-22.07-3.37-1.49-1-3.22-2.13-4.71-3.1a26.62,26.62,0,0,1,2.69-3.07c1.54-.32,3.34-.47,4.88-.78,4.87-.14,9.73-.44,14.59-.73,2.3-.15,4.11-.46,6.16-.62,1.08-1.61,1.93-3.23,2.76-4.68,2.59-.8,4.92-1.6,7.5-2.39,2.79.66,5.57,1.16,8.36,1.66,4.06.68,6.68-.93,10-1.56l2.3,0c4.05.66,8.37,1.18,12.18,1.69C938,121.09,938,122.56,937.88,124.17Z" transform="translate(-0.08)"/><path class="cls-3" d="M1007,115.16c-5.65.78-11.3,1.56-17.21,2.33l-13.59,1.39-2.3,0c-1.21-1.46-2.41-3.09-3.62-4.72-5.59-.68-3,3.55-6.33,4.67-4.36.29-9,.44-13.57.73-2-.33-3.8-.51-6.09-.84-1-1.46-2.16-3.09-3.36-4.72-5.86-.2-12.75-.4-15,3.81l-2.3,0c-3.34.63-6,2.24-10,1.56-2.79-.5-5.57-1-8.36-1.66-2.58.79-4.91,1.59-7.5,2.39l-8.68,0a3.35,3.35,0,0,0-.24,5.35c-4.86.29-9.72.59-14.59.73.12-2.6.24-5.19.35-7.79-9.2-5.4-20.71.7-33.08-2.45-13.15-2.67-24.33,1.8-35.4-1.82,19.27-2.8,38.58-.76,52.74-3.6,0,.33,0,.49,0,.81,8.73-.92,18.05,1.73,28.3,1,5.66-1.1,10.59-2.85,12.21.88l6.13,0a13.68,13.68,0,0,1,2.33-.8c3.06.18,5.85.52,8.65.86.05-1.46.11-2.59.17-3.89,6.95-1.42,9-2.54,11.15-3.82l25.77.14c2.21,2,4.74,2.62,9.67.71,17.3,1.38,34.35,2.78,51.39,4.17C1011.94,112.11,1009.58,113.72,1007,115.16Z" transform="translate(-0.08)"/><path class="cls-3" d="M927.74,105.48c-2.11,1.28-4.2,2.4-11.15,3.82-.06,1.3-.12,2.43-.17,3.89-2.8-.34-5.59-.68-8.65-.86a13.68,13.68,0,0,0-2.33.8l-6.13,0c-1.62-3.73-6.55-2-12.21-.88-10.25.76-19.57-1.89-28.3-1,0-.32,0-.48,0-.81-14.16,2.84-33.47.8-52.74,3.6,11.07,3.62,22.25-.85,35.4,1.82,12.37,3.15,23.88-2.95,33.08,2.45-.11,2.6-.23,5.19-.35,7.79-1.54.31-3.34.46-4.88.78-2-.82-4-1.65-6-2.31-3.81-.34-1.37,2.27-4,3.06l-9.7-.06-20.93-.11c-3.63,1.28-9,.44-13.56.73-2.27-.66-4.8-1.16-7.08-1.66-6.28-2.3-9.07-2.64-11.15-1.68-2.27-.66-4.79-1.49-7-2.31-1.81.48-3.36,1-5.18,1.6-2.77-.67-5.57-1.17-8.35-1.68-3.35.8-6.71,1.59-10.06,2.22-3-.19-6.35-.53-9.66-.71l-6.13,0c-3.37-4.72-4.7,2.24-12.25-.07a6.41,6.41,0,0,1-1.35,1.45c-4.72,2.9-11,.91-14.61,1.54-2.53-.83-4.79-1.65-7.3-2.48-2.54-.17-4.83-.51-7.37-.68-3.6.47-7.45.93-11,1.39h-1.27c-4.59-.19-8.92-.54-13.5-.89-8.16-.37-8.76,1.9-13.41,3.17-7.08-1.66-8.45.44-11.26.58-6.83-1.5-8.87-1.51-10.92-1.52l-17.09-.1c-1.57.81-2.91,2.26-5,2.25l-2.55,0c-2.29-.17-4.83-.51-7.37-.85-3-.66-8.81-2.64-13.24-.72-5.09-.36-9.92-.71-14.77-.89-5.41,1.1-9.25,1.24-14.9,2.18-3.6.47-7.19.93-11.05,1.56-11.68-1.36-14.36,1.37-22,1.33l-12.37,2.37c-3.84.46-7.44.93-11,1.39-1.5-.81-4.62.46-7.41,0-14.71-2.19-22.42-.93-29.43,1.45-4.1.47-8.46.93-12.32,1.56l-7.39,0c-6.55-2-7.38-.69-10-.06,0,.48-.05,1-.06,1.46l-11-.06a6,6,0,0,1-1.31.8c-2.29-.34-4.83-.51-7.11-.85-1,.32-1.81.47-2.59.79-2.82.15-5.9.46-8.71.77a47.68,47.68,0,0,0-4.82-.84c-2.31.15-4.87.46-7.44.76l-14.54-.08c6.46-1.91,10.45-5.45,14.65-2.34,2.56-.15,5.13-.46,7.43-.61a30.71,30.71,0,0,1,14.84-.73L430.2,133l5.1,0c.94-3.72,4.47-2.9,7.29-3a25.71,25.71,0,0,0,2.66-2.42c2.83-.48,5.66-.94,8.74-1.41,2.26,1,3.66,3.75,7,3.12.92-3.56-1.82-10.87,7.85-10.17,9.66.87,20-1.34,30.63.17,3.14-1.76,5.27-3.86,11.11-3-.34,1.94,3,1.63,5,1.64,5.88-.12,7-2.38,13.35-1.54,1,.33,1.76.49,2.52.82,3.93-2.4,3.47-3.38,6.29-3.85-5.78-2.14-6.61-.69-8.64-.86l-2.3,0c-2.53-.49-4.8-1-7.34-1.5l7.41,0c.85-1.94,1.7-3.71,2.54-5.49l3.83,0a85.25,85.25,0,0,1,14.34,4.78l2.55,0c2.61-1.12,4.94-2.08,7.54-3,.76.17,1.51.5,2.27.66l6.18-1.42,7.41,0a6,6,0,0,1,1.32-.81l7.4,0c2,.5,4,1,6.05,1.65-.07,1.46-.14,3.08-.2,4.54a17.7,17.7,0,0,0,2.22,1.63h1.28c4.15-1.6,8.3-3,12.45-4.63a6.18,6.18,0,0,0-1.21-1.47c5.11.2,9.94.55,14.78.74,2.58-.64,4.91-1.43,7.51-2.23,4.31.51,8.89,1,13.45,1.7,9.28-2.06,16-3,20.71-.7,4.59.2,8.91.54,13.5.89l3.56,0c1.81-.31,3.35-.63,5.15-.78,2,.5,3.78,1,6.06,1.49,1.84-1.13,3.93-2.24,5-3.86,3.57.35,7.38.69,11,.87,12.52-.42,25.31-.83,38.09-1.24,4.1-.3,6.77-2.88,11.13-3.18h2.55c2.26.83,4.77,1.65,7,2.47l17.1.09c3.84-.3,7.44-.6,11.27-.74l4.86,0c30.61.33,61.23.83,91.84,1.33,6.46,4.08,5.33.84,7.4,0l21.89,1.58C920.31,105.92,924.15,105.61,927.74,105.48Z" transform="translate(-0.08)"/><path class="cls-3" d="M895,124.74c-2.05.16-3.86.47-6.16.62a3.35,3.35,0,0,1,.24-5.35l8.68,0C896.9,121.51,896.05,123.13,895,124.74Z" transform="translate(-0.08)"/><path class="cls-3" d="M968.4,155.47a36.05,36.05,0,0,1-9.8,2.22l-7.4-.05-4.85,0a14.47,14.47,0,0,0-1.35,1.61,47.45,47.45,0,0,1-3.4-3.91c-1.81.47-3.36,1-5.17,1.43-.72-1-1.43-2.12-2.16-3.09-3.79-.83-9.23.92-7.57,3.85-2.61,1.28-5,2.56-7.57,3.84l-12.26-.07c-.11-3.4-7.29-2.47-9.7-.05-4.07-.19-8.14-.54-12.21-.88-2.57.31-4.88.62-7.44.77a31.38,31.38,0,0,0-2.38-3.9c-7.26,2.39-13.73-1.21-21.95-.13-3.52-1.32-7.29-2.63-10.81-4-4.37.79-1.27,5.67-7.56,3.84-1.5-1-3.24-2.12-4.71-3.1-2.09.8-4.17,1.6-6.24,2.24-.54.8-.84,1.61-1.38,2.42-.77.16-1.55.48-2.59.79A66.67,66.67,0,0,0,814,154.6c2.36-1.29,4.2-2.57,6.3-3.86-3.69-2.93-7.23-3.77-7-2.46-1.08,1.45-3.35.62-5.14.78-1.78,0-5.12.29-4.78-1.49l-6.13,0c-9.72.44-22.14-1.57-29.42,1.3-9.25-4.11-25.58,1.15-34.14-1.65-4.46,2.72-14.07.89-21.06,3-6.45,1.42-7.53-2.8-12.15-2.5-.89-2.92-8.44.28-13.55.73-3.57-.18-7.13-.53-11-.87-8.77,2.22-15.31-5.76-21.91-.77-4.08-.35-8.15-.7-12.22-.88-5.67.94-8.82,3-14.84.73-13.79,5.75-26.71-2.26-40.51,3.66-3-.5-5.69,1.92-7.36-.85-7.41.12-14.83.4-22,.68-1.13,2.59-5.49,3.05-12.32,1.4-8.25-3.78-9.59,3.34-17.48,3-7.27,2.56-14.47-1.86-23.41,3.77,2.51,1.14,4.76,2.13,7.26,3.28h2.55c2.67-2.58,8.76-1.73,10.87,2.33-2.81.15-5.88.45-8.71.76-3.61.8-7.46,1.42-11.07,2.21,0-.48,0-1,.06-1.46-3.56-.34-7.37-.69-10.94-.87l-.06,1.46-3.83,0c-2.31.31-4.88.61-7.19.77l-2.55,0c-3.29-.51-6.59-1-9.63-1.51a19.86,19.86,0,0,0-2.69,3.06h-2.56c-7.11-.69-14.49-1.21-21.87-1.75l-2.63,1.61c-1.51-.33-3.28-.67-4.81-.84,0-.81.08-1.62.1-2.26-1.48-1.14-3.22-2.13-4.71-3.28a44.69,44.69,0,0,0,3.72-3.05c7.47-1.58,15.07-5.92,22.51-6.85,2.68,2.94,6.59,1,13.46,1.7,0-.65,0-1.14.07-1.62,6.41-.45,13.07-.9,19.47-1.51,4.3,1.16,3.16-2.09,5.25-3l6.12,0c5.17-1.43,11.62-3,16-4.61,28.55,1,51.62-1,78.54-3.45,6.9-.29,7,3.93,17.1.1,2.81-.15,5.89-.45,8.7-.6,10.13,1.84,16.3.9,20.8,3.2,6.94-1.1,5-4,7.32-3.85l5.1,0c6.82,1.5,8.44-.44,11-.75,6.81,1.82,7.67-.29,9.71,0h1.27l14.8.08,3.57,0c3.54.83,7.33,1.67,10.88,2.34,4.86-.14,10-.43,14.83-.57l6.13,0c0,.16,0,.49,0,.65,12.68,1.85,30.12,0,40.25,1.85,6.48-2.07,14.31-.25,19.69-.7,1.67,2.93,6.34,1,9.6,2.48,2.54.19,4.82.52,7.37.7,8.14.69,18.94-1.2,24.39,2.56,4.14-1.1,8.26-2.06,12.39-3,.74.65,1.47,1.46,2.45,2.28l6.13,0c.21,1-1.14,2.59.88,3.09,6.15-.29,8.25-1.74,12.46-4.64,2.52.67,5.06,1.17,7.33,1.67,2.06-.31,4.11-.46,6.16-.78,1.32-1,2.65-2.09,4-3.06,2.23,1.64,4.71,3.11,6.94,4.74,3.09-.63,5.92-1.1,8.75-1.57,2.81-.15,5.9-.45,8.71-.76l2.29,0,10,.05c1.49.82,3.24,1.64,4.74,2.46,6.14-.29,12.38-2.85,18.37.1,5.61.19,11.47.56,17.07.91,4.33.19,6.76,2.95,10.8,3.95C968.49,153.36,968.45,154.34,968.4,155.47Z" transform="translate(-0.08)"/><path class="cls-3" d="M888.26,137.84c-2-.18-3.81-.51-6.09-.85-4-1-4.67,1.59-6.28,3.2-2.28-.33-4.82-.67-7.11-.85-1.82,1-3.41,2.1-5.24,3.06,0,.81-.07,1.62-.1,2.26-4.21,2.9-6.31,4.35-12.46,4.64-2-.5-.67-2.11-.88-3.09l-6.13,0c-1-.82-1.71-1.63-2.45-2.28-4.13.94-8.25,1.9-12.39,3-5.45-3.76-16.25-1.87-24.39-2.56-2.55-.18-4.83-.51-7.37-.7-3.26-1.48-7.93.45-9.6-2.48-5.38.45-13.21-1.37-19.69.7-10.13-1.84-27.57,0-40.25-1.85,0-.16,0-.49,0-.65l-6.13,0c-4.86.14-10,.43-14.83.57-3.55-.67-7.34-1.51-10.88-2.34l-3.57,0-14.8-.08h-1.27c-2-.34-2.9,1.77-9.71,0-2.57.31-4.19,2.25-11,.75l-5.1,0c-2.29-.18-.38,2.75-7.32,3.85-4.5-2.3-10.67-1.36-20.8-3.2-2.81.15-5.89.45-8.7.6-10.13,3.83-10.2-.39-17.1-.1-26.92,2.44-50,4.42-78.54,3.45-4.41,1.59-10.86,3.18-16,4.61l-6.12,0c-2.09,1-.95,4.21-5.25,3-6.4.61-13.06,1.06-19.47,1.51,0,.48,0,1-.07,1.62-6.87-.69-10.78,1.24-13.46-1.7-7.44.93-15,5.27-22.51,6.85a44.69,44.69,0,0,1-3.72,3.05c1.49,1.15,3.23,2.14,4.71,3.28,0,.64-.06,1.45-.1,2.26-2.3.15-4.87.46-7.44.77-1.6,1.62-3.51,4.52-8.59,3.85-3.82-.35-7.37-.7-10.95-.87l-2.54,0c-2-.33-4.07-.5-6.09-.84-7.72,1.26-14,3.66-23.4,3.76-6.65.29-13.3.42-19.69.71H356.1c0-.81.07-1.63.1-2.28,2.58-.63,4.9-1.1,7.48-1.57,0-.81,3.88-1.28,2.69-3.07-9.23.76-10.77-4.76-18.24-3.18-1.8.15-3.34.47-5.14.62l-12.08-4,16.15-1.37c11-.9,24.07-1.64,34.16,1,6.36.69,7.35-4.33,12.43-3.81,7.25-2.39,14.51-4.79,22.49-6.2,1.08-1.29,2.41-2.58,3.74-3.88,2.82-.13,5.64-.44,8.72-.75h1l9.78,3.94c1.35-1.78,2.46-3.55,3.81-5.33-2.26-.82-4.78-1.65-7.29-2.47,0-.65.06-1.46.1-2.27a6,6,0,0,0,1.31-.8l11,.06c2.79.34,5.85.52,8.64.86a7.59,7.59,0,0,1,1.38-2.26l7.39,0c3.86-.63,8.22-1.09,12.32-1.56,7-2.38,14.72-3.64,29.43-1.45,2.79.5,5.91-.77,7.41,0,3.59-.46,7.19-.93,11-1.39,4.08.18,8.15.53,12.22.88l22.06-2.31c2,.33,4.06.51,6.09.84,3.28.83,4.91-1.27,7.47-1.57,8.94-.12,17.89-.39,27.09-.5,6.92-.61,13.83-1.05,20.75-1.51,0-.32,0-.48,0-.81l2.55,0c2.28.5,4.81,1,7.34,1.66,4.86-.3,10.43.71,14.58-.73l2.48,1.64,8.53-2.39c2,.34,4.06.51,6.09.84,1.82-.79,2.92-2.41,5.21-2.23,2,.49,3.78,1,6.05,1.49,2.29.34,4.11-.3,6.16-.78,3.83.35,8.15.7,12.23.88L700,129c0-.5,0-1,.07-1.46,2.56-.31,5.13-.63,7.43-.77,0,.16,0,.49,0,.81,2.56-.31,4.87-.62,7.44-.77l7.4,0c3.6-.63,9.89,1.36,14.61-1.54,2.78.83,5.8,1.65,8.57,2.48,3.13-1.44,7.92,0,11.06-1.56l4.71,3.11c1.82-.8,3.38-1.44,5-2.24,3.82.18,7.38.52,11.19.87,0-.32,0-.65,0-.81l7.15,0,12.25.07c0,.49,0,1-.07,1.46-7,3.2-12.65,3.17-19.54,3.13l-.06,1.46c10.87,2.33,20.16.11,24.4,2.57,9.9.86,26,1.93,36.78-.61l4.71,3.11c1.29-.31,2.32-.48,3.62-.79,2.53.34,4.82.51,7.35.85,0-1,.1-2.1.15-3.08l8.92-5.45c-1.25-.82-2.49-1.48-3.73-2.3,2.59-.79.15-3.4,4-3.06,2,.66,4,1.49,6,2.31a26.62,26.62,0,0,0-2.69,3.07c1.49,1,3.22,2.12,4.71,3.1,6.63.36,14.07-.57,22.07,3.37C891.62,136.88,890.07,137.36,888.26,137.84Z" transform="translate(-0.08)"/><path class="cls-3" d="M876.93,145.55c-2,.32-4.1.47-6.16.78-2.27-.5-4.81-1-7.33-1.67,0-.64.07-1.45.1-2.26,1.83-1,3.42-2.09,5.24-3.06,2.29.18,4.83.52,7.11.85,1.77.67,3.26,1.49,5,2.3C879.58,143.46,878.25,144.59,876.93,145.55Z" transform="translate(-0.08)"/><path class="cls-3" d="M489.13,105.27c-1.54.16-3.34.47-4.88.79-4.84-.35-9.93-.7-14.77-.9,0-.81.07-1.62.1-2.27l-11-.06a10.59,10.59,0,0,0-2.47-1.63c2.68-3.07,9.83-3,13.55-.74.55-.81.84-1.45,1.38-2.26,6.12.2,12.23.56,18.35.91,4.58.2,8.91.54,13.49.73a28.12,28.12,0,0,0,1.07,4.71C498.85,104.84,494,105,489.13,105.27Z" transform="translate(-0.08)"/><path class="cls-3" d="M325.57,172.11c1.73,7-17.35-.26-12.66,9.17.45,1.3.65,2.6,1.1,3.9,0,1-.09,2.1-.13,3.08l-7.41,0c-.81,1.13-1.62,2.09-2.43,3.22-3.37,1-6.73,1.92-10.1,3-3.4-3.91-3.33-5.53-3.26-7,2.07-.64,4.14-1.11,6.2-1.59a39.51,39.51,0,0,1-1-5.51c0-.17,0-.49,0-.65.07-1.46.12-2.59.18-3.89l-8.68-.05c-.22-.81-.69-1.63-.92-2.44a60.56,60.56,0,0,1-2.27-6.17c4.1-.3,8.2-.61,12.29-.74h1.27c-.05,1.3-.12,2.6-.17,3.89a34.51,34.51,0,0,1,3.5,1.65c3.37-1.12,6.73-2.07,10.1-3.19a60.48,60.48,0,0,1-2.24-7c0-.17,0-.49,0-.81a24.1,24.1,0,0,1,1.45-3.88c-1.24-.66-2.49-1.48-3.73-2.29-.18-1.63-.62-3.09-.81-4.71,0-.17,0-.49,0-.81,2.31-.48,4.89-.95,7.21-1.42,4.6-.14,6.23,3.28,7.16,5.39,0,1.3-.11,2.59-.17,3.89.47.81.7,1.62,1.17,2.44a51.84,51.84,0,0,0-3.75,3.87c.21,1,.68,2.11.89,3.08a14,14,0,0,0-1.1,1.61C320.07,169.49,322.83,170.64,325.57,172.11Z" transform="translate(-0.08)"/><path class="cls-3" d="M310,195.37,304,191.44c.81-1.13,1.62-2.09,2.43-3.22l7.41,0a26.86,26.86,0,0,0,2.4,3.26A67.29,67.29,0,0,0,310,195.37Z" transform="translate(-0.08)"/><path class="cls-3" d="M268.87,155.43c1.42,2.6,2.84,5.2,4.5,7.79,0,.5,0,1-.06,1.46a11.54,11.54,0,0,0-1.38,2.43c.11,3.24.46,6.65.83,10.06,1.42,2.43,4.09,5.53-.24,5.51l-3.84,0c.08-1.61.14-3.07.21-4.69-2.64-3.59-9.17-6.21-1.85-10.07-5.69-4.08-8.47-10.42-.72-12.49,1.4-2.9,2.81-5.65,4-8.56l3.83,0a19.62,19.62,0,0,1,2.22,1.63C273.93,150.75,271.28,153,268.87,155.43Z" transform="translate(-0.08)"/><path class="cls-3" d="M996.6,158.71c-.92-2.28,2.32-6.15-5.79-7.81,4.1-.31,8.2-.44,12.29-.75,4,2,5.54,7.65-.37,8.59Z" transform="translate(-0.08)"/><path class="cls-3" d="M1006.82,118.24c-.83,1.62-1.68,3.23-2.5,4.68-13,5.12-5.72-3.59-14.74-1.54l-6.13,0c-2.52-.83-4.77-1.65-7.29-2.47l13.59-1.39c5.91-.77,11.56-1.55,17.21-2.33C1006.89,116.78,1006.85,117.59,1006.82,118.24Z" transform="translate(-0.08)"/><path class="cls-3" d="M963.91,118.81c-3.7,2.89-.13,8.43-8.71,6.27-3.51-1.48-3.15-3.75-4.86-5.54C955,119.25,959.55,119.1,963.91,118.81Z" transform="translate(-0.08)"/><path class="cls-3" d="M947.07,170.1c-2,0-4.08,0-6.05-1.65l-7.4,0c-2.57.32-4.88.62-7.44.77A9.81,9.81,0,0,0,925,166.9c0-.32,0-.65,0-.82l8.68,0c1.57-.8,3.38-1.6,4.95-2.24a21.66,21.66,0,0,0,2.48,1.48c2.83-.15,5.65-.45,8.46-.76l1.24.81C949.51,167,948.17,168.49,947.07,170.1Z" transform="translate(-0.08)"/><path class="cls-3" d="M943.49,135.88c-8,2.54-13.11,2.2-14.55-.08C936.7,133.57,941.06,133.11,943.49,135.88Z" transform="translate(-0.08)"/><path class="cls-3" d="M916.73,106.06l-21.89-1.58c-1-.66-1.73-1.14-2.47-1.63-1.56.47-3.37.94-4.93,1.59-30.61-.5-61.23-1-91.84-1.33.83-1.62,1.66-3.07,2.5-4.69,8.9.7,17.53,2,24.54-.67,8.35,1.67,15.68-2.51,24.6-2.14.45,1.31-.91,3.08,1.11,3.9,8.65.54,16.68-7.68,23.29-1.49,3.86-.62,7.47-1.41,11.33-2.2,2.79.5,5.58,1,8.36,1.67A22.8,22.8,0,0,1,893.82,99c2.79.34,5.58.52,8.38.86,4.59.19,11.93-4.15,13.49.89,2.33-.8,4.67-1.76,7.47-1.59-1.11,2.27,3.19,3.1,4.58,6.36C924.15,105.61,920.31,105.92,916.73,106.06Z" transform="translate(-0.08)"/><path class="cls-3" d="M869.87,166.59l-7.4-.05c0-.8.07-1.62.11-2.43l7.4,0C869.94,165,869.91,165.78,869.87,166.59Z" transform="translate(-0.08)"/><path class="cls-3" d="M843,167.24c-3.92,2.09-7,2.88-7.39,0Z" transform="translate(-0.08)"/><path class="cls-3" d="M816.09,164.66c-16.29,4.61-28.39,1.14-41.67,1.39-15.95,2.51-38.62,1.4-55.18.5-1.21-1.47-4-.67-6.09-.84a5.26,5.26,0,0,0-1.3.8c-25.88,2-49.2-1.74-73.65,2.66-2-1.46-5.59-.68-8.39-.85-9.07,2.86-23,.84-34.53,1.42-3.72,3.06-13,.25-18.48,2.17-13.24-.72-24.7,4.4-38.1,1.41,1.31-.81,2.7-3.4,7.61-4.66.07-1.62.14-3.08.2-4.71,6.66-.28,13-.41,19.7-.69a14.78,14.78,0,0,0,1.14,3.08c2.34-1,4.94-2.08,7.54-3,6.9-.12,13.8-.4,20.7-.69,3.81.67,9.12,1.51,12.32-1.39,2.55.18,4.83.52,7.37.85,4.1-.3,8.19-.6,12.29-.74,3.59-.3,7.43-.6,11-.75h1.28c2.84-.47,5.66-.94,8.76-1.57,2.81-.15,5.63-.45,8.44-.61s5.9-.61,8.72-.75c2.8.17,5.59.51,8.39.85l24.5.15,7.41,0,7.39,0,4.85,0c2.26,1,6.39-.12,6,2.3,5.11-.13,10.69.72,16.15-1.52,5.4,4.89,22.07,3.2,30.27,2.6,13.27.07,22.66,1.26,38,1C811.29,163.67,813.56,164.16,816.09,164.66Z" transform="translate(-0.08)"/><path class="cls-3" d="M779.47,103.82l-17.1-.09c-2.26-.82-4.77-1.64-7-2.47,2.47-4,9.71-.43,12.17-3.82,3.15-2.09,8.39.69,12.17,1.69l8.68,0c-.56,1.14,1.46,1.63,2.38,3.91C786.91,103.22,783.31,103.52,779.47,103.82Z" transform="translate(-0.08)"/><path class="cls-3" d="M703.57,105.67c-3.57-.18-7.38-.52-11-.87l-3.75-1.48c-6.2,1.42-3.77,4.19-7.32,3.85-1.8.15-3.34.47-5.15.78l-3.56,0c-4.59-.35-8.91-.69-13.5-.89-4.75-2.29-11.43-1.36-20.71.7-4.56-.68-9.14-1.19-13.45-1.7-2.6.8-4.93,1.59-7.51,2.23-4.84-.19-9.67-.54-14.78-.74l-14.54-.08c-2-.65-4-1.15-6.05-1.65l-7.4,0a6,6,0,0,0-1.32.81l-7.41,0c-2.22-1.64-4.71-3.11-6.93-4.74-3-.67-4.41,1.6-7.44.77l-9.95-.06-7.15,0a16.78,16.78,0,0,0-1.41,3.07l-3.83,0c-3.56-.5-7.1-1-10.91-1.68-4.6.3-9,.59-13.56.73h-1a28.12,28.12,0,0,1-1.07-4.71c2.33-.64,4.92-1.43,7.51-2.23a21.57,21.57,0,0,1,7.11.85c2.83-.63,5.92-1.1,8.75-1.57,2.62-1.44,6.4-.45,9.74-.76l7.39.05c10.19.71,20.37,1.25,30.56,1.79.78-.32,1.55-.47,2.59-.8,4.07.51,8.12,1,12.18,1.69,1.54,0,3.32,0,4.85,0,6.28,2.31,8.83,2.48,10.91,1.52,2-.15,4.11-.46,6.15-.61,5.31,1.16,1.7-3.56,6.28-3.21,1.48,1.14,3.22,2.13,4.7,3.27,3.83,0,10.56,3.63,11.27-.75,3,1.15,8.88,1.19,12.25.07,4.55,1,5.34.35,11-1.56.59,4.06,2.13,3.9,6.09.84,9.08,2.65,19.33,1.74,26.77,1,3.54.51,8.86,1.68,10-.74,10-.27,16.3.73,25.82-.67-2.63-4.07,6.47-2.07,8.48-1.41,4.13,4.72,14.54.24,19.46,4.65-4.36.3-7,2.88-11.13,3.18C728.88,104.84,716.09,105.25,703.57,105.67Z" transform="translate(-0.08)"/><path class="cls-3" d="M530.25,173.92c-5.19,1.75-14.16,2.51-17.1-.1C516.06,171.4,521.11,172.73,530.25,173.92Z" transform="translate(-0.08)"/><path class="cls-3" d="M495.72,175.34c-3.67,1.92-10.82,1.89-13.31.74C482.25,173.81,487.37,173.51,495.72,175.34Z" transform="translate(-0.08)"/><path class="cls-3" d="M477.31,176.05A18,18,0,0,1,465,177.44l-9.7-.05c1-.65,2.44-3.24,9.76-1.41Z" transform="translate(-0.08)"/><path class="cls-3" d="M445.59,177.33c-5.22,2.4-8.78,2.38-12.32,1.55-3.34.46-6.68.94-10,1.56-3.59.47-7.44.94-11.05,1.4-7.38-.2-11.37,3.18-21.06,3-3.6.63-7.19,1.1-11,1.56-3.07.15-5-1.32-8.36-1.66.82-1,1.63-2.1,2.44-3.07l7.4,0c3.3.5,6.34,1,9.63,1.68,1.07-1.13,1.88-2.1,2.69-3.07,2,.5,5.81,1.33,7.47-1.58h2.3c2.79.51,7.59,1.5,10-1.56H416c2.53.67,5.06,1.16,7.33,1.67,4.36-.31,3.17-2.26,10-1.57Z" transform="translate(-0.08)"/><path class="cls-3" d="M350.73,186.2c-.26,6-8.81,3-13.66,3-4.22,3.06-13.34,1.38-13.77,5.43-4.37.47-4.31-.83-7-3.11a26.86,26.86,0,0,1-2.4-3.26c5.39-.62,10.78-1.4,15.92-2.18l3.83,0h1.28c1-.32,2.32-.48,3.61-.79C342.59,185.67,346.66,185.85,350.73,186.2Z" transform="translate(-0.08)"/><path class="cls-3" d="M310,195.37c.69,1.79,1.87,3.9-.16,3.89-1.13,2.26-2.95,3.23-5.31,4.51-4-1.65-4.9-4.89-10.6-8.49-.83,1.45-1.67,3.07-2.5,4.52-.79-5.19-11.64-2.5-12-5.41,0-.65.05-1.14.07-1.62-2.2-2-5.43-4.09-7.16-5.4.07-1.61.15-3.23.22-4.69,4.33,0,1.66-3.08.24-5.51-.37-3.41-.72-6.82-.83-10.06a11.54,11.54,0,0,1,1.38-2.43c3.54.84,7.33,1.67,10.87,2.5a60.56,60.56,0,0,0,2.27,6.17c.23.81.7,1.63.92,2.44,1.21,1.47,2.42,3.09,3.63,4.56-.11,2.43-.21,4.7-.32,7.13-.07,1.46-.14,3.08,3.26,7,3.37-1.11,6.73-2.07,10.1-3Z" transform="translate(-0.08)"/><path class="cls-3" d="M277.05,132.12c-1.37,2.26-2.71,3.56-5,3.06-4.78-1.49-4.94-3.76-4.57-6.19,2.87-1.61,7.17-.61,9.66.7C277.1,131,277.08,131.48,277.05,132.12Z" transform="translate(-0.08)"/><path class="cls-3" d="M973.86,118.86c-2.37,1.78-9.81,2.54-10,0,3.36-1.12.74-5.35,6.33-4.67C971.45,115.77,972.65,117.4,973.86,118.86Z" transform="translate(-0.08)"/><path class="cls-3" d="M944.25,118.7c-.86,2.26-4.39,1.27-6.16.78-3.81-.51-8.13-1-12.18-1.69,2.23-4.21,9.12-4,15-3.81C942.09,115.61,943.3,117.24,944.25,118.7Z" transform="translate(-0.08)"/><path class="cls-3" d="M409.1,171c3.58.17,7.13.52,10.95.87,5.08.67,7-2.23,8.59-3.85-1.6,1.62-3.51,4.52-8.59,3.85C416.23,171.49,412.68,171.14,409.1,171Z" transform="translate(-0.08)"/><path class="cls-3" d="M406.46,173.22c-2.83.31-6.36-.69-8.82,3.19-1.56.48-3.36,1-4.92,1.43-2.82.31-5.64.46-8.46.76-2.53-.5-5.06-1-7.33-1.66-2.62,1.44-6.66.61-10.06,2.37l-8.42,0c.32-1.62-.12-3.08-2.35-4.71h1.28c6.39-.29,13-.42,19.69-.71,9.45-.1,15.68-2.5,23.4-3.76,2,.34,4.06.51,6.09.84C406.52,171.76,406.49,172.57,406.46,173.22Z" transform="translate(-0.08)"/><path class="cls-3" d="M313.88,188.26c0-1,.09-2.11.13-3.08,3.36-.79,6.45-1.42,9.8-2.22,3.37-1,4,1.48,6,3.12C324.66,186.86,319.27,187.64,313.88,188.26Z" transform="translate(-0.08)"/><path class="cls-3" d="M1040.24,113.08c-4.56,5-13.12,2.2-19.79,3a41.31,41.31,0,0,0-1-5.53C1026.53,111.38,1033.38,112.23,1040.24,113.08Z" transform="translate(-0.08)"/><path class="cls-3" d="M894.84,104.48c-2.07.8-.94,4-7.4,0,1.56-.65,3.37-1.12,4.93-1.59C893.11,103.34,893.86,103.82,894.84,104.48Z" transform="translate(-0.08)"/><path class="cls-3" d="M863.08,129.92l-8.92,5.45c0,1-.1,2.11-.15,3.08-2.53-.34-4.82-.51-7.35-.85-1.3.31-2.33.48-3.62.79l-4.71-3.11c-10.83,2.54-26.88,1.47-36.78.61-4.24-2.46-13.53-.24-24.4-2.57l.06-1.46c6.89,0,12.5.07,19.54-3.13,0-.49,0-1,.07-1.46l-12.25-.07-7.15,0c0,.16,0,.49,0,.81-3.81-.35-7.37-.69-11.19-.87-1.57.8-3.13,1.44-5,2.24l-4.71-3.11c-3.14,1.6-7.93.12-11.06,1.56-2.77-.83-5.79-1.65-8.57-2.48a6.41,6.41,0,0,0,1.35-1.45c7.55,2.31,8.88-4.65,12.25.07l6.13,0c3.31.18,6.61.52,9.66.71,3.35-.63,6.71-1.42,10.06-2.22,2.78.51,5.58,1,8.35,1.68,1.82-.65,3.37-1.12,5.18-1.6,2.26.82,4.78,1.65,7,2.31,2.08-1,4.87-.62,11.15,1.68-1.31.81-2.62,1.61-3.93,2.25,7,2.47,8.2-.77,11-.59,4.61-.29,9.93.55,13.56-.73l20.93.11,9.7.06C860.59,128.44,861.83,129.1,863.08,129.92Z" transform="translate(-0.08)"/><path class="cls-3" d="M714.89,126.81c-2.57.15-4.88.46-7.44.77,0-.32,0-.65,0-.81-2.3.14-4.87.46-7.43.77,0,.48,0,1-.07,1.46l-7.14-.05c-4.08-.18-8.4-.53-12.23-.88-2.05.48-3.87,1.12-6.16.78-2.27-.5-4-1-6.05-1.49,4.65-1.27,5.25-3.54,13.41-3.17,4.58.35,8.91.7,13.5.89h1.27c3.59-.46,7.44-.92,11-1.39,2.54.17,4.83.51,7.37.68,2.51.83,4.77,1.65,7.3,2.48Z" transform="translate(-0.08)"/><path class="cls-3" d="M692.62,104.8c-1.08,1.62-3.17,2.73-5,3.86-2.28-.5-4-1-6.06-1.49,3.55.34,1.12-2.43,7.32-3.85Z" transform="translate(-0.08)"/><path class="cls-3" d="M621.59,129.36c-6.92.46-13.83.9-20.75,1.51-9.2.11-18.15.38-27.09.5-2.56.3-4.19,2.4-7.47,1.57-2-.33-4.06-.51-6.09-.84l-22.06,2.31c-4.07-.35-8.14-.7-12.22-.88l12.37-2.37c7.65,0,10.33-2.69,22-1.33,3.86-.63,7.45-1.09,11.05-1.56,5.65-.94,9.49-1.08,14.9-2.18,4.85.18,9.68.53,14.77.89,4.43-1.92,10.21.06,13.24.72,2.54.34,5.08.68,7.37.85C621.61,128.88,621.6,129,621.59,129.36Z" transform="translate(-0.08)"/><path class="cls-3" d="M560,107.94c-.76-.16-1.51-.49-2.27-.66-2.6,1-4.93,1.92-7.54,3l-2.55,0a85.25,85.25,0,0,0-14.34-4.78,16.78,16.78,0,0,1,1.41-3.07l7.15,0,9.95.06c3,.83,4.41-1.44,7.44-.77,2.22,1.63,4.71,3.1,6.93,4.74Z" transform="translate(-0.08)"/><path class="cls-3" d="M531.5,117.18h-2.56c0-.33,0-.48,0-.81-6.35-.84-7.47,1.42-13.35,1.54-2,0-5.37.3-5-1.64-5.84-.85-8,1.25-11.11,3-10.66-1.51-21,.7-30.63-.17-9.67-.7-6.93,6.61-7.85,10.17-3.36.63-4.76-2.13-7-3.12-3.08.47-5.91.93-8.74,1.41a25.71,25.71,0,0,1-2.66,2.42c-2.82.14-6.35-.68-7.29,3l-5.1,0-2.47,3.87a30.71,30.71,0,0,0-14.84.73c-2.3.15-4.87.46-7.43.61-4.2-3.11-8.19.43-14.65,2.34h-2.56c-1.2-1.63-2.16-3.09-3.37-4.72-4.61.46-9,.93-13.6,1.55-2.59.95-4.93,1.91-7.53,3-2.31.14-4.87.45-7.44.76,0,.65-.06,1.46-.1,2.27-1.56.49-3.36.95-4.92,1.59l-11-.06c-2.91,2.25-6.07,4.5-9,6.92l-3.58,0c-.59-4.05-2.12-3.9-3.4-3.91-2.34,1-1.16,3.08-1.48,4.7-1.08,1.29-3.67,2.08-2.59.63-.93-2.11-2.56-5.53-7.16-5.39-2.32.47-4.9.94-7.21,1.42a23.9,23.9,0,0,0-8.62-1.51l-8.68-.05c.08-1.62.14-3.08.21-4.7,1.81-.48,3.36-1,5.18-1.59-.35-3.57-.7-7.14-.79-10.87,0-.16,0-.48,0-.81l3.58,0h1.27c4.07.35,8.14.69,12.22.88l2.55,0,7.15,0c1.82-.8,2.91-2.42,5.21-2.24l4.85,0c2.26.83,4.78,1.49,7.29,2.32,4.35-.15,9.68.69,14.59-.74-.7-1.46-1.39-3.09-2.1-4.55-3.81-.34-7.37-.68-11.19-.87,2.9-2.09,9-1.25,8.85-3.84,4.61-.3,9-.6,13.57-.74,8.22-1.25,14.45-3.64,26-5.36-9.46.27-9.08-2.49-11.06-4a13.92,13.92,0,0,0,2.65-2.26c2.53.51,4.81,1,7.34,1.67.08-1.95.16-3.73.24-5.52,2.06-.31,4.11-.46,6.16-.77a10.38,10.38,0,0,0,1.17,2.43c9.77-1.4,11.53,4.77,18.31,1.57,0-.16,0-.48,0-.82l9.7.07c3.34-.47,6.42-1,9.76-1.41a23.52,23.52,0,0,0,1.45-3.88L450,102c1.7,2.12,3.14,4.07,4.83,6.19-2.68,2.9-10.94-.71-11.4,3.83,1.75.82,3.24,1.64,5,2.46,2.55-.15,5.6.35,7.21-1.58,12.29-.75,21.27-1.51,32-2.09l14.81.08c2,.18,4.06.51,6.09.68,3.58-.14,7.42-.44,11-.59,2.54.51,4.81,1,7.34,1.5l2.3,0c2,.17,2.86-1.28,8.64.86C535,113.8,535.43,114.78,531.5,117.18Z" transform="translate(-0.08)"/><path class="cls-3" d="M526.92,111l-7.41,0c-3.58.15-7.42.45-11,.59l-3.66-3.91c-.81,1.13-1.62,2.1-2.43,3.23l-14.81-.08c-1.21-1.63-2.15-3.26-3.36-4.72,1.54-.32,3.34-.63,4.88-.79,4.87-.29,9.72-.43,14.84-.72h1c4.6-.14,9-.43,13.56-.73,3.81.66,7.35,1.18,10.91,1.68C528.62,107.28,527.77,109.05,526.92,111Z" transform="translate(-0.08)"/><path class="cls-3" d="M507.47,134.88c-14.71-2.19-22.42-.93-29.43,1.45C485.05,134,492.76,132.69,507.47,134.88Z" transform="translate(-0.08)"/><path class="cls-3" d="M443.39,112c.46-4.54,8.72-.93,11.4-3.83-1.69-2.12-3.13-4.07-4.83-6.19,2.06-.31,4.11-.62,6.17-.77a10.59,10.59,0,0,1,2.47,1.63c-.05,1.3-.11,2.44-.16,3.89,6.08.85,7-2.88,11-1.56,4.84.2,9.93.55,14.77.9,1.21,1.46,2.15,3.09,3.36,4.72-10.74.58-19.72,1.34-32,2.09-1.61,1.93-4.66,1.43-7.21,1.58C446.63,113.63,445.14,112.81,443.39,112Z" transform="translate(-0.08)"/><path class="cls-3" d="M469.48,105.16c-4-1.32-5,2.41-11,1.56.05-1.45.11-2.59.16-3.89l11,.06C469.55,103.54,469.52,104.35,469.48,105.16Z" transform="translate(-0.08)"/><path class="cls-3" d="M457,140.11c-2.79-.34-5.85-.52-8.64-.86,0-.49,0-1,.06-1.46,2.58-.63,3.41-1.92,10,.06A7.59,7.59,0,0,0,457,140.11Z" transform="translate(-0.08)"/><path class="cls-3" d="M439.4,150.06l-9.78-3.94h-1c-3.08.31-5.9.62-8.72.75a33.23,33.23,0,0,1-2.73,3.89c-7.19,1.09-11.71,4.95-20.88,4.58,1.13,3.41-8.14-.53-6.29,3.86-15,5.1-29.19-3.9-44.23,1.37-2.82.14-6.61-.69-8.71.59,1.69,2.12,5.79,1.83,5.95,3.93,0,.81-.07,1.62-.1,2.43-3.34.47-6.43.93-9.77,1.41a21.07,21.07,0,0,1-3.47-2.29c.33-1.79.93-3.72,1.26-5.51,8.41-5.3,13.1-7.54,20-7.67,2.84-.63,5.94-1.43,8.78-2.22-2.78-.5-5.83-1-8.6-1.67.06-1.46.13-3.08.2-4.54,1.56-.64,3.36-1.1,4.92-1.59l7.4,0c2.55.17,4.83.51,7.37.86,6.17-.94,10.83-2.53,17.23-3,0-.32,0-.65,0-.81h2.56l14.54.08c2.57-.3,5.13-.61,7.44-.76a47.68,47.68,0,0,1,4.82.84c2.81-.31,5.89-.62,8.71-.77.78-.32,1.55-.47,2.59-.79,2.28.34,4.82.51,7.11.85,0,.81-.08,1.62-.1,2.27,2.51.82,5,1.65,7.29,2.47C441.86,146.51,440.75,148.28,439.4,150.06Z" transform="translate(-0.08)"/><path class="cls-3" d="M387.1,114.75c-11.57,1.72-17.8,4.11-26,5.36-4.61.14-9,.44-13.57.74.14,2.59-5.95,1.75-8.85,3.84,3.82.19,7.38.53,11.19.87.71,1.46,1.4,3.09,2.1,4.55-4.91,1.43-10.24.59-14.59.74-2.51-.83-5-1.49-7.29-2.32l-4.85,0c-2.3-.18-3.39,1.44-5.21,2.24l-7.15,0c.83-1.46,1.67-3.07,2.51-4.69l-7.4,0h-1c0-.65.06-1.46.09-2.27.08-1.62.14-3.08.21-4.7-1.35-4.06-3.1-4.72-2.27-6.17,1.56-.64,3.36-1.11,4.92-1.6l3.66,3.91c5.35,0,10.94.72,14.65-2.18.05-1.29.11-2.59.16-3.89l13.53.07c4.63-.62,9-1.08,13.6-1.54,3.64-1.43,7.47-1.42,11-1.39,4.12-.63,8.22-1.09,12.33-1.56l7.4,0c-.08,1.79-.16,3.57-.24,5.52-2.53-.67-4.81-1.16-7.34-1.67A13.92,13.92,0,0,1,376,110.8C378,112.26,377.64,115,387.1,114.75Z" transform="translate(-0.08)"/><path class="cls-3" d="M328.37,109.07c-.05,1.3-.11,2.6-.16,3.89-3.71,2.9-9.3,2.21-14.65,2.18l-3.66-3.91c2.83-.47,5.91-.93,8.74-1.41C320,108.37,325.05,109.22,328.37,109.07Z" transform="translate(-0.08)"/><path class="cls-3" d="M312.86,130.71l-2.55,0c-4.08-.19-8.15-.53-12.22-.88,2.87-1.28,5.73-2.56,8.86-3.84h1l7.4,0C314.53,127.64,313.69,129.25,312.86,130.71Z" transform="translate(-0.08)"/><path class="cls-3" d="M307.25,119c-.07,1.62-.13,3.08-.21,4.7-3-.83-5.79-1.65-8.57-2.32a11.94,11.94,0,0,1,1.38-2.42c1.63-2.1,3.5-4,5.13-6.13C304.15,114.28,305.9,114.94,307.25,119Z" transform="translate(-0.08)"/><path class="cls-3" d="M293.21,130.59c-7.44.77-12.14,3-16.16,1.53,0-.64.05-1.13.11-2.43a26.44,26.44,0,0,0,2.69-3.06c4.55,1,8.85,2.16,13.39,3.15C293.23,130.11,293.22,130.43,293.21,130.59Z" transform="translate(-0.08)"/><path class="cls-3" d="M1020.45,116.05c-3.35.79-6.45,1.58-9.8,2.21l-3.83,0c0-.65.07-1.46.14-3.08,2.62-1.44,5-3,7.61-4.66l4.85,0A41.31,41.31,0,0,1,1020.45,116.05Z" transform="translate(-0.08)"/><path class="cls-3" d="M815.16,128.18c-2.81-.18-4,3.06-11,.59,1.31-.64,2.62-1.44,3.93-2.25C810.36,127,812.89,127.52,815.16,128.18Z" transform="translate(-0.08)"/><path class="cls-3" d="M346.4,174.5c-5.4.78-10.09,3.19-12.52,6.09-.09,1.78-.17,3.73-.25,5.51l-3.83,0c-2-1.64-2.62-4.07-6-3.12-3.35.8-6.44,1.43-9.8,2.22-.45-1.3-.65-2.6-1.1-3.9-4.69-9.43,14.39-2.19,12.66-9.17-2.05.16-4.1.47-6.15.62,1.37-2.1-1.91-2.93-2.1-4.56a14,14,0,0,1,1.1-1.61l10,.06h1.27a21.07,21.07,0,0,0,3.47,2.29c1.55,5.19,7.51,3.44,10.8,4A10.66,10.66,0,0,0,346.4,174.5Z" transform="translate(-0.08)"/><path class="cls-3" d="M307,126c-3.13,1.28-6,2.56-8.86,3.84h-1.27c.63-2.76,1-5.67,1.65-8.43,2.78.67,5.55,1.49,8.57,2.32C307,124.51,307,125.32,307,126Z" transform="translate(-0.08)"/><path class="cls-3" d="M295.87,179.73c0,.16,0,.48,0,.65l-4.85,0c-1.21-1.47-2.42-3.09-3.63-4.56l8.68.05C296,177.14,295.94,178.27,295.87,179.73Z" transform="translate(-0.08)"/><path class="cls-3" d="M508.51,111.54c-2-.17-4.06-.5-6.09-.68.81-1.13,1.62-2.1,2.43-3.23Z" transform="translate(-0.08)"/><path class="cls-3" d="M431.41,105.76c-3.34.46-6.42.94-9.76,1.41l-9.7-.07c0,.34,0,.66,0,.82-6.78,3.2-8.54-3-18.31-1.57a10.38,10.38,0,0,1-1.17-2.43c8-1.42,12.64-2.85,18.48-2.17l21.95.13A23.52,23.52,0,0,1,431.41,105.76Z" transform="translate(-0.08)"/><path class="cls-3" d="M411,128.18l-7.4-.05c-1.75-1-3.22-2.12-4.72-3.1-12.4-2.18-19.06,3.94-29.64.64,0-.64.05-1.13.07-1.62,4.62-.46,9-.92,13.6-1.54,7.72-1.26,18.91-.39,28.33.16C411.18,124.45,411.09,126.39,411,128.18Z" transform="translate(-0.08)"/><path class="cls-3" d="M388.21,141.34c-6.4.46-11.06,2-17.23,3-2.54-.35-4.82-.69-7.37-.86l-7.4,0c0-.81.07-1.62.1-2.27,2.57-.31,5.13-.62,7.44-.76,2.6-1.13,4.94-2.09,7.53-3,4.63-.62,9-1.09,13.6-1.55,1.21,1.63,2.17,3.09,3.37,4.72C388.24,140.69,388.23,141,388.21,141.34Z" transform="translate(-0.08)"/><path class="cls-3" d="M359.69,151.23c-4.73,3.05-6.77,3-8.78,2.22-6.9.13-11.59,2.37-20,7.67-3.29-.51-6.33-1-9.63-1.51-.47-.82-.7-1.63-1.17-2.44.06-1.3.12-2.59.17-3.89-1.08,1.45,1.51.66,2.59-.63.32-1.62-.86-3.74,1.48-4.7,1.28,0,2.81-.14,3.4,3.91l3.58,0c2.91-2.42,6.07-4.67,9-6.92l11,.06c-.07,1.46-.14,3.08-.2,4.54C353.86,150.23,356.91,150.73,359.69,151.23Z" transform="translate(-0.08)"/><path class="cls-3" d="M309,161l-2.55,0c-2.89,1.77-5.78,3.7-8.67,5.46h-1.27c-4.09.13-8.19.44-12.29.74-3.54-.83-7.33-1.66-10.87-2.5,0-.48,0-1,.06-1.46-1.66-2.59-3.08-5.19-4.5-7.79,2.41-2.43,5.06-4.68,7.46-6.94a19.62,19.62,0,0,0-2.22-1.63l-3.83,0c-5.53-2-2.56-5.69-3.2-8.61l5-3c2.27.5,3.61-.8,5-3.06,4,1.49,8.72-.76,16.16-1.53.09,3.73.44,7.3.79,10.87-1.82.64-3.37,1.11-5.18,1.59-.07,1.62-.13,3.08-.21,4.7l8.68.05a23.9,23.9,0,0,1,8.62,1.51c0,.32,0,.64,0,.81.19,1.62.63,3.08.81,4.71,1.24.81,2.49,1.63,3.73,2.29A24.1,24.1,0,0,0,309,161Z" transform="translate(-0.08)"/><path class="cls-3" d="M296.88,185.89c-2.06.48-4.13,1-6.2,1.59.11-2.43.21-4.7.32-7.13l4.85,0A39.51,39.51,0,0,0,296.88,185.89Z" transform="translate(-0.08)"/><path class="cls-3" d="M604.1,109c-4.15,1.6-8.3,3-12.45,4.63h-1.28a17.7,17.7,0,0,1-2.22-1.63c.06-1.46.13-3.08.2-4.54l14.54.08A6.18,6.18,0,0,1,604.1,109Z" transform="translate(-0.08)"/><path class="cls-3" d="M329.65,166.63h-1.27l-10-.06c-.21-1-.68-2.11-.89-3.08a51.84,51.84,0,0,1,3.75-3.87c3.3.5,6.34,1,9.63,1.51C330.58,162.91,330,164.84,329.65,166.63Z" transform="translate(-0.08)"/><path class="cls-3" d="M303.62,172h-2.55a34.51,34.51,0,0,0-3.5-1.65c.05-1.29.12-2.59.17-3.89,2.89-1.76,5.78-3.69,8.67-5.46l2.55,0c0,.32,0,.64,0,.81a60.48,60.48,0,0,0,2.24,7C308.56,169.91,306,170.87,303.62,172Z" transform="translate(-0.08)"/><path class="cls-3" d="M356.1,174.56c-2.08.8-4.15,1.59-6.23,2.23.44,1.78.61,3.73,1,5.52l-8.67-.06c-2.08.8-1.88,2.11-3.71,3.07-1.29.31-2.58.47-3.61.79h-1.28c.08-1.78.16-3.73.25-5.51,2.43-2.9,7.12-5.31,12.52-6.09a10.66,10.66,0,0,1-2.48-1.63l-6.13,0c-4.65,1.27-5.27-1.81-4.67-3.91,3.34-.48,6.43-.94,9.77-1.41,0-.81.07-1.62.1-2.43,1.8-.15,3.34-.47,5.14-.62,7.47-1.58,9,3.94,18.24,3.18,1.19,1.79-2.66,2.26-2.69,3.07-2.58.47-4.9.94-7.48,1.57C356.17,172.93,356.14,173.75,356.1,174.56Z" transform="translate(-0.08)"/><path class="cls-3" d="M350.9,182.31c0,1.29-.11,2.59-.17,3.89-4.07-.35-8.14-.53-12.21-.88,1.83-1,1.63-2.27,3.71-3.07Z" transform="translate(-0.08)"/><path class="cls-3" d="M835.64,167.2l-7.4,0C830.52,167.34,828.88,164.25,835.64,167.2Z" transform="translate(-0.08)"/><path class="cls-3" d="M371.73,184.7c-5,2.56-13.68,3.32-21,1.5.06-1.3.12-2.6.17-3.89,4.6.18,8.92.53,13.5.88C366.68,183.69,369.21,184.19,371.73,184.7Z" transform="translate(-0.08)"/><path class="cls-3" d="M431.47,161.68a23,23,0,0,1-11.08,2.38C416.6,157.39,426.75,158.9,431.47,161.68Z" transform="translate(-0.08)"/><path class="cls-3" d="M880.9,142.49c-1.75-.81-3.24-1.63-5-2.3,1.61-1.61,2.24-4.2,6.28-3.2,2.28.34,4.05.67,6.09.85C888.11,141.08,882.35,138.77,880.9,142.49Z" transform="translate(-0.08)"/><path class="cls-3" d="M668.4,127.36c-2.29-.18-3.39,1.44-5.21,2.23-2-.33-4.06-.5-6.09-.84l-8.53,2.39-2.48-1.64c-4.15,1.44-9.72.43-14.58.73-2.53-.66-5.06-1.16-7.34-1.66,2.05,0,3.39-1.44,5-2.25l17.09.1c2,0,4.09,0,10.92,1.52C660,127.8,661.32,125.7,668.4,127.36Z" transform="translate(-0.08)"/></g></g></g></g></g></svg>