<svg id="レイヤー_1" data-name="レイヤー 1" xmlns="http://www.w3.org/2000/svg" viewBox="0 0 518.36 177.35"><defs><style>.cls-1,.cls-2,.cls-3,.cls-4{fill:#df818e;}.cls-1{opacity:0.32;}.cls-3{font-size:36px;}.cls-3,.cls-4{font-family:MS-UIGothic, MS UI Gothic;letter-spacing:0.5em;}.cls-4{font-size:72px;}</style></defs><circle class="cls-1" cx="87.53" cy="89.82" r="87.53"/><path class="cls-2" d="M164.55,328.48a77.83,77.83,0,0,1-11.92,5.46,79.29,79.29,0,0,1-12.69,3.53A81.46,81.46,0,0,1,126.81,339a83.74,83.74,0,0,1-13.24-.57A84.76,84.76,0,0,1,66,316.46a87.79,87.79,0,0,1-16.29-20.79,85.78,85.78,0,0,1-5.58-11.94,86.81,86.81,0,0,1-3.82-12.58,92,92,0,0,1,3.12-51.82,86.51,86.51,0,0,1,31.92-41.41A87.52,87.52,0,0,1,99.25,166.2a88,88,0,0,1,13-3,91.27,91.27,0,0,1,13.31-.95,86.34,86.34,0,0,1,26.26,4.26,88.27,88.27,0,0,1,23.65,12A86.28,86.28,0,0,1,194.32,197q1.89,2.7,3.74,5.43l3.28,5.71,2.83,5.92,2.33,6.12a.2.2,0,1,1-.36.15h0a88.72,88.72,0,0,0-32.39-39.3A86.89,86.89,0,0,0,77.47,181a87.8,87.8,0,0,0-32,39.14,80.85,80.85,0,0,0-3.95,12.27,75.44,75.44,0,0,0-2,12.77,79.87,79.87,0,0,0,0,12.94,78.77,78.77,0,0,0,2,12.78,81,81,0,0,0,10.05,23.7,89.81,89.81,0,0,0,7.58,10.38A92.05,92.05,0,0,0,78.4,321.8,91.39,91.39,0,0,0,89.54,328a80.9,80.9,0,0,0,11.94,4.56A81.91,81.91,0,0,0,114,335.37a89.87,89.87,0,0,0,50.41-7.23.19.19,0,0,1,.26.09A.2.2,0,0,1,164.55,328.48Z" transform="translate(-31.26 -162.28)"/><path class="cls-2" d="M182.76,307.88a13.45,13.45,0,0,0,.4-7.54,9.63,9.63,0,0,0-2.15-4.11,10.12,10.12,0,0,0-1.69-1.45c-.28-.2.36.36,0,0-.11-.12-.24-.22-.36-.33a21.19,21.19,0,0,1-3.17-4.07,77.31,77.31,0,0,1-4-6.8,72.55,72.55,0,0,1-6.56-16.23,32.5,32.5,0,0,1-.76-3.81,10.55,10.55,0,0,0-.66-3.15,15.09,15.09,0,0,0-4-4.73,65.07,65.07,0,0,0-9.85-6.92l.8,3c1.95-3.12,3.83-6.27,5.69-9.45a140.3,140.3,0,0,0,8.48-16c.84-2,1.92-4.31,1-6.42l-.35,2.69a4.35,4.35,0,0,1,4.32-1,6,6,0,0,1,3.75,4.23A18.12,18.12,0,0,1,174,232a37.81,37.81,0,0,1-1.19,7.08,17.94,17.94,0,0,1-2.1,5.35c-.1.16-.21.32-.32.47.33-.43,0,0-.08.06-.38.48.26-.16-.27.2a2.8,2.8,0,0,0-1.37,2.26c0,3.11,4.67,3.79,6.9,4.15a51.82,51.82,0,0,0,14.87.17,49.08,49.08,0,0,0,17.69-5.91,55.77,55.77,0,0,1,7.42-3.6,17.65,17.65,0,0,1,2.45-.73c.18,0,.35-.07.53-.09-.61.09-.08,0,0,0,.27,0,.54,0,.81,0-.68-.05-.31-.05-.13,0,.41.13-.06.09-.14-.08a1.08,1.08,0,0,0,.26.14c.33.2-.41-.39-.15-.12.45.48-.24-.36.06.06s0-.32.05.1a6.23,6.23,0,0,0,.15.62c.15.52,0-.51,0,.23,0,.51.05,1,.06,1.55,0,.32,0,.65,0,1,.07-.83-.35.89-.11.32a12,12,0,0,1-1.24,2.08,33.79,33.79,0,0,1-5.25,5.24,51.6,51.6,0,0,1-5.87,4.29c-.81.5-1.64,1-2.5,1.42l-.5.24c-.37.18.38-.1-.21.09a8.06,8.06,0,0,1-.84.24l1.19,4.29A33.69,33.69,0,0,1,216.77,262a19.32,19.32,0,0,1,2.06.48,1.41,1.41,0,0,1,.65.27l.51.3c.48.3-.25-.28.14.1.12.13.25.25.36.39-.28-.36-.1-.11-.05,0,.29.5-.23-.41.06.1,0,0,.13.57.07.23s-.07,1,0,.5a7.48,7.48,0,0,1-.32,1.12c-.18.43-.49,1-.66,1.48,0,.11-.07.24-.1.35-.17.58.21-.37-.06.16a9.29,9.29,0,0,1-.48.82c-.34.51.17-.19-.07.1s-.31.35-.48.52a12.46,12.46,0,0,1-3.73,2.45,39.63,39.63,0,0,1-11.21,3,51.23,51.23,0,0,1-5.93.47c-.83,0-1.67,0-2.5,0l-1.12-.08-.43-.05c.65.08,0,0-.17,0a2.3,2.3,0,0,0-2.51,1,2.25,2.25,0,0,0,.34,2.7,25.75,25.75,0,0,1,3.65,3.43,5.84,5.84,0,0,1,1.53,3c-.06-.42,0,.28,0,.43,0,.62.06-.23,0,.12a2.75,2.75,0,0,1-.11.41,4.17,4.17,0,0,1-.77,1.27,16.27,16.27,0,0,1-5.62,3.55,2.24,2.24,0,0,0-1,2.51,9.24,9.24,0,0,1-1.51,8.17,10,10,0,0,1-2.64,2.28,16.9,16.9,0,0,1-1.51.82l-.35.16c-.31.13.33-.13,0,0s-.53.2-.8.29-.77.2-1.16.31.28,0,0,0a2.94,2.94,0,0,0-1.39.31,4.49,4.49,0,0,0-1.34,1.7c-1.57,2.54-3.27,5-5,7.41a94.55,94.55,0,0,1-10.32,11.94c-2,2,1.09,5.14,3.15,3.14a101.56,101.56,0,0,0,16.6-21.15l-1.92,1.1c3.16-.05,6.47-2,8.73-4.05,3.85-3.53,4.89-8.63,3.7-13.59l-1,2.51c3.94-1.75,9-4.8,8.72-9.81-.25-4-3.53-7.08-6.45-9.43l-2.16,3.72a36.78,36.78,0,0,0,11.23-.09,44.5,44.5,0,0,0,13.55-3.61,15.76,15.76,0,0,0,4.78-3.29,15.05,15.05,0,0,0,2.74-5,6.42,6.42,0,0,0-.25-5.79,7.9,7.9,0,0,0-4.85-3.13c-5.21-1.36-11.18-.45-16.31.86-2.8.71-1.59,4.8,1.19,4.29a14.52,14.52,0,0,0,4.39-2,57.4,57.4,0,0,0,5.77-4c3.42-2.67,7.38-5.93,9.09-10a10,10,0,0,0-.35-7.84c-1.82-3-5.71-2.34-8.51-1.34-6,2.14-11.11,6-17.21,7.9a48.69,48.69,0,0,1-17.06,1.89,30.21,30.21,0,0,1-5.68-.78c-.34-.08-.69-.18-1-.28s-1.17-.47-.55-.17a6.36,6.36,0,0,0-.58-.3c-.27-.08.35.33.19.15s.23.38.27.48a2.06,2.06,0,0,1-.5,2.12c-.19.26-.13.12.06,0a5.48,5.48,0,0,0,.72-.55,8.38,8.38,0,0,0,1.62-2.16,27,27,0,0,0,2.39-6.47c1.17-4.74,2.05-10.42.61-15.2-1.55-5.2-6.9-9.09-12.34-7a9.2,9.2,0,0,0-3.13,2,2.28,2.28,0,0,0-.34,2.69c-.29-.64-.22-.53-.16-.34s-.1-.63-.06-.39a1.53,1.53,0,0,1,0,.37c0,.29.15-.6,0-.11-.06.19-.09.38-.14.57-.11.41-.25.81-.39,1.21-.08.21-.15.41-.23.61s-.38.92-.18.46c-1.06,2.46-2.31,4.85-3.58,7.22-2.65,4.94-5.5,9.78-8.42,14.58-.66,1.08-1.32,2.17-2,3.25a2.24,2.24,0,0,0,.8,3,67.63,67.63,0,0,1,7.5,5,32.36,32.36,0,0,1,2.59,2.23,12.44,12.44,0,0,1,1.65,1.84c.11.16.2.32.3.48s.29.69.09.17a1.39,1.39,0,0,1,.13.44c0-.64,0,.14,0,.38a36.39,36.39,0,0,0,.61,3.88A83.75,83.75,0,0,0,174.39,296a15.31,15.31,0,0,0,1.62,1.8,10.53,10.53,0,0,1,2.24,2.18,8.08,8.08,0,0,1,.22,6.76c-1,2.7,3.32,3.86,4.29,1.18Z" transform="translate(-31.26 -162.28)"/><path class="cls-2" d="M164.08,323.35a9.78,9.78,0,0,0-2.71-3.26,39.33,39.33,0,0,0-5.31-3.83,69.6,69.6,0,0,0-15.15-6.92,49,49,0,0,0-17.92-2.5,22.89,22.89,0,0,1-7.91-.66,8.05,8.05,0,0,1-4.17-2.56c-.4-.46.23.37-.1-.14-.13-.2-.26-.4-.38-.62s-.16-.31-.23-.47c.24.52,0-.16-.08-.27s-.25-1.32-.19-.72a9,9,0,0,1,0-1.16,4.22,4.22,0,0,1,0-.49c-.07.65,0-.07,0-.2a9.69,9.69,0,0,1,.34-1.08c-.21.55.22-.43.33-.62s.18-.26.26-.4c.2-.32-.27.31.14-.17a2.25,2.25,0,0,0-1.58-3.79c-.21,0-1.19-.12-.81-.06a13.89,13.89,0,0,1-1.43-.28c-.41-.11-.81-.23-1.2-.37-.11,0-.57-.23-.25-.09a5.46,5.46,0,0,1-.64-.32c-.26-.14-.87-.53-.89-.55s-.76-.76-.74-.73-.18-.27-.23-.36-.28-.52-.22-.37-.11-.33-.14-.43a5.23,5.23,0,0,1-.18-.76c0,.31,0-.26,0-.36s0-.51,0-.76a8.64,8.64,0,0,1,.35-1.69,18,18,0,0,1,1.94-4.17c.54-.89,1.31-1.72,1.17-2.82a3.83,3.83,0,0,0-.58-1.44,7.18,7.18,0,0,0-1.45-1.61c-2.89-2.38-6.89-3.3-10.49-4A88.89,88.89,0,0,0,80.18,271,52.87,52.87,0,0,0,70,271.4a6.51,6.51,0,0,0-1.14.27A7.75,7.75,0,0,0,68,272c.2-.1.47-.11,0,0s.35,0,.17,0-.27,0-.41,0c-.3,0-.6,0-.9,0a20.4,20.4,0,0,1-2.06-.16c.41.05.07,0-.13,0l-.64-.11c-.41-.07-.82-.16-1.22-.25a22.42,22.42,0,0,1-2.3-.66l-.53-.19c-.52-.2.13.07-.22-.09s-.68-.32-1-.51l-.42-.26c-.07,0-.48-.33-.22-.14l-.18-.15c-.11-.12-.22-.24-.34-.35s.18.34,0,0c0-.08-.27-.55-.12-.18s0-.06,0-.14,0,.5,0,0-.16.44,0,.07c0-.12.08-.26.12-.39-.2.64.35-.49.27-.38a10.32,10.32,0,0,1,2-1.7A31.81,31.81,0,0,1,64,264.2a54.19,54.19,0,0,1,20.79-5,62.67,62.67,0,0,1,8.11.16,35,35,0,0,1,4.83.67c.41.08.82.17,1.22.28l1.18-4.29a97,97,0,0,1-10.54-3.6c-5.3-2-10-4-15.13-6.43a124.89,124.89,0,0,1-15.09-8.19c-1-.66-2-1.35-2.93-2.06a4.1,4.1,0,0,1-.37-.27l-.63-.51c-.41-.35-.82-.7-1.22-1.07a23.49,23.49,0,0,1-2-2c-.22-.26.24.37-.06-.09l-.37-.53c-.19-.31-.34-.64-.52-.95s.15.44.06.17c0-.08-.07-.16-.09-.25s-.1-.38-.16-.56c-.19-.53,0,.32,0,0a3.23,3.23,0,0,0,0-.54c-.05-.47-.2.46,0,0a2.33,2.33,0,0,0,.14-.47c0-.08-.28.42,0,0,.1-.14.2-.3.29-.44-.38.6,0,.05.13-.11s.34-.3.51-.46.33-.22-.14.11a4.15,4.15,0,0,1,.34-.24c.21-.13.41-.27.63-.39l.7-.37c.15-.07.9-.4.43-.21.67-.28,1.37-.51,2.06-.73H55c7.7,2.89,15.31,6,23,9,4.84,1.87,9.69,3.72,14.57,5.48,3.54,1.27,7.1,2.58,10.74,3.53a3.34,3.34,0,0,0,.43.1c.4.06-.08,0-.1-.07.16.14.35.25.53.38.39.27.8.53,1.21.79a26.55,26.55,0,0,0,3,1.64c2.53,1.16,5.33,2,8.13,1.46,3.26-.69,5.19-3.63,5.85-6.71a25.73,25.73,0,0,0,.38-7.17c-.12-1.69-.34-3.37-.6-5a6.18,6.18,0,0,1-.13-1.35c0-.21,0-.43.06-.64s0,.08,0,.11c0-.14,0-.27.07-.4a21.89,21.89,0,0,1,5.25-10.42,11.41,11.41,0,0,1,1.9-1.67,9.07,9.07,0,0,1,1.05-.59c.1,0-.22.06.18,0,.23-.07.47-.13.71-.18s-.32,0,.12,0c.08,0,.61,0,.32,0s1,.35.58.14a5.11,5.11,0,0,1,.6.34,2,2,0,0,1,.26.18s-.23-.18,0,0a9,9,0,0,1,.88.92,14.41,14.41,0,0,1,1.87,3.56v-1.18a72.61,72.61,0,0,0-2.58,18.13c-.13,5.85.24,12.3,5.51,15.94a9.68,9.68,0,0,0,6.17,1.74,2.29,2.29,0,0,0,2.23-2.22,2.25,2.25,0,0,0-2.23-2.23,5.43,5.43,0,0,1-1.14,0c-.41,0,.33.09-.12,0l-.73-.16a5.1,5.1,0,0,1-1.21-.49,7.13,7.13,0,0,1-2.79-2.84,7.45,7.45,0,0,1-.77-2.33c-1.06-5-.48-10.8.24-15.92a63.42,63.42,0,0,1,1.51-7.72,3.57,3.57,0,0,0,.06-2.24,20.89,20.89,0,0,0-1.1-2.47,13.71,13.71,0,0,0-2.24-3.21c-3.36-3.46-7.88-2.57-11.24.33a25.35,25.35,0,0,0-7,11.27,13.55,13.55,0,0,0-.63,6.46,37.13,37.13,0,0,1,.55,8.42c0,.49-.08.91-.11,1.09-.08.48-.18,1-.31,1.44-.05.18-.11.37-.17.55s-.26.66-.14.4-.1.19-.14.26l-.27.47c-.08.13-.17.25-.25.37.35-.49,0-.06-.06,0a2.57,2.57,0,0,0-.29.28c-.3.35.26-.14,0,0l-.72.4c-.08.05.47-.11.07,0-.14,0-.28.09-.42.12l-.43.08c-.12,0,.52,0,.08,0s-.6,0-.91,0l-.39,0c-.45,0,.19,0,.05,0-.31-.07-.63-.12-1-.2a16.22,16.22,0,0,1-1.75-.57c-.08,0-.52-.21-.2-.07s-.19-.09-.26-.12l-.83-.4a28.77,28.77,0,0,1-2.9-1.68c-.38-.24-.73-.53-1.11-.76a8.05,8.05,0,0,0-2.11-.7c-3.84-1.07-7.61-2.45-11.36-3.81-9.62-3.5-19.13-7.27-28.65-11l-5.06-2-1.86-.71a3.75,3.75,0,0,0-2.85.07c-2.71.95-5.72,2.39-6.91,5.18-2.37,5.54,4.14,10.5,8,13.24,6.55,4.69,14,8.23,21.29,11.49a199.31,199.31,0,0,0,19.84,7.76c.9.29,1.79.57,2.7.8,2.77.72,3.94-3.51,1.18-4.29a41.67,41.67,0,0,0-8.48-1.2,63.76,63.76,0,0,0-16,1c-6.22,1.17-12.81,3.3-18.08,6.88-2.67,1.82-5.69,4.88-3.89,8.35,1.32,2.54,4.5,3.75,7.09,4.46a21.09,21.09,0,0,0,7.65.88,5.35,5.35,0,0,0,1.88-.5c.37-.18,0,.1-.22.07.11,0,.31-.11.43-.14s.4-.08.59-.12l.23,0c.46-.09-.57.06-.08,0s1.18-.13,1.77-.16a81.71,81.71,0,0,1,10,0,65.5,65.5,0,0,1,12.41,1.7c.87.21,1.74.46,2.58.75.39.13.78.27,1.16.42.6.25-.39-.18.18.09.22.1.44.2.66.32s.6.33.89.51a4,4,0,0,1,.34.23c.07.05-.27-.28.09.07.2.2.4.39.59.61-.56-.63.37.84,0,0l.22-1.71c-2.71,4.08-5.58,10-2.49,14.7,2.14,3.25,6.16,4.47,9.86,4.69l-1.57-3.79a9.77,9.77,0,0,0-2,9.4c1.45,4.2,5.5,6.54,9.68,7.34a43.72,43.72,0,0,0,9.36.3,39,39,0,0,1,9,.89,63.52,63.52,0,0,1,16.75,6.21,50.35,50.35,0,0,1,6.6,4.16,20.6,20.6,0,0,1,2.06,1.84c.13.14.25.29.39.42.35.37-.15-.28.1.12a6.52,6.52,0,0,1,.43.77,2.23,2.23,0,0,0,3,.8,2.28,2.28,0,0,0,.8-3Z" transform="translate(-31.26 -162.28)"/><text class="cls-3" transform="translate(188.06 49.41)">misaki</text><text class="cls-4" transform="translate(226.15 111.28)">zawa</text></svg>